{
.appVersion = "3530";
.formatVersion = 3;
DisplayStrings = (
"ABCDEFGHIJKLMN
OPQRSTUVWXYZ
abcdefghijklmn
opqrstuvwxyz.,

HHAHH "
);
axes = (
{
name = Weight;
tag = wght;
},
{
name = Width;
tag = wdth;
}
);
customParameters = (
{
name = "Enforce Compatibility Check";
value = 1;
},
{
name = fsType;
value = (
);
}
);
date = "2026-06-07 07:11:36 +0000";
familyName = "M PLUS F Latin";
featurePrefixes = (
{
automatic = 1;
code = "languagesystem DFLT dflt;
";
name = Languagesystems;
}
);
fontMaster = (
{
axesValues = (
100,
100
);
customParameters = (
{
name = typoAscender;
value = 880;
},
{
name = typoDescender;
value = -120;
},
{
name = typoLineGap;
value = 0;
},
{
name = winAscent;
value = 1160;
},
{
name = winDescent;
value = 288;
},
{
name = hheaAscender;
value = 1160;
},
{
name = hheaDescender;
value = -288;
},
{
name = hheaLineGap;
value = 0;
}
);
iconName = Light_SemiCondensed;
id = m004;
metricValues = (
{
over = 16;
pos = 860;
},
{
over = 11;
pos = 730;
},
{
over = 11;
pos = 520;
},
{
over = -11;
},
{
over = -15;
pos = -140;
},
{
}
);
name = "Thin F1";
stemValues = (
20,
20,
20,
20
);
userData = {
GSOffsetHorizontal = -20;
GSOffsetProportional = 1;
GSOffsetVertical = -20;
};
},
{
axesValues = (
500,
100
);
customParameters = (
{
name = typoAscender;
value = 880;
},
{
name = typoDescender;
value = -120;
},
{
name = typoLineGap;
value = 0;
},
{
name = winAscent;
value = 1160;
},
{
name = winDescent;
value = 288;
},
{
name = hheaAscender;
value = 1160;
},
{
name = hheaDescender;
value = -288;
},
{
name = hheaLineGap;
value = 0;
}
);
iconName = SemiCondensed;
id = m005;
metricValues = (
{
over = 16;
pos = 860;
},
{
over = 11;
pos = 730;
},
{
over = 11;
pos = 520;
},
{
over = -11;
},
{
over = -15;
pos = -140;
},
{
}
);
name = "Medium F1";
stemValues = (
100,
90,
110,
108
);
userData = {
GSOffsetHorizontal = -109;
GSOffsetProportional = 1;
GSOffsetVertical = 10;
};
},
{
axesValues = (
900,
100
);
customParameters = (
{
name = typoAscender;
value = 880;
},
{

glyphs = (
{
glyphname = A;
kernLeft = A;
kernRight = A;
lastChange = "2026-07-10 08:20:49 +0000";
layers = (
{
layerId = m01;
shapes = (
{
closed = 1;
nodes = (
(42,0,l),
(357,664,l),
(379,712,l),
(381,712,l),
(403,664,l),
(718,0,l),
(740,0,l),
(394,730,l),
(366,730,l),
(20,0,l)
);
},
{
closed = 1;
nodes = (
(590,290,l),
(590,310,l),
(170,310,l),
(170,290,l)
);
}
);
width = 760;
},
{
layerId = m002;
shapes = (
{
closed = 1;
nodes = (
(138,0,l),
(370,561,l),
(395,625,l),
(397,625,l),
(422,561,l),
(654,0,l),
(776,0,l),
(464,730,l),
(328,730,l),
(16,0,l)
);
},
{
closed = 1;
nodes = (
(606,222,l),
(606,319,l),
(186,319,l),
(186,222,l)
);
}
);
width = 792;
},
{
layerId = m003;
shapes = (
{
closed = 1;
nodes = (
(230,0,l),
(382,450,l),
(411,540,l),
(413,540,l),
(442,450,l),
(594,0,l),
(812,0,l),
(537,730,l),
(287,730,l),
(12,0,l)
);
},
{
closed = 1;
nodes = (
(622,153,l),
(622,327,l),
(202,327,l),
(202,153,l)
);
}
);
width = 824;
},
{
layerId = m004;
shapes = (
{
closed = 1;
nodes = (
(41,0,l),
(285,669,l),
(298,707,l),
(300,707,l),
(313,669,l),
(557,0,l),
(579,0,l),
(312,730,l),
(286,730,l),
(19,0,l)
);
},
{
closed = 1;
nodes = (
(474,260,l),
(474,280,l),
(124,280,l),
(124,260,l)
);
}
);
width = 598;
},
{
layerId = m005;
shapes = (
{
closed = 1;
nodes = (
(136,0,l),
(302,550,l),
(320,613,l),
(322,613,l),
(340,550,l),
(506,0,l),
(626,0,l),
(396,730,l),
(246,730,l),
(16,0,l)
);
},
{
closed = 1;
nodes = (
(496,191,l),
(496,289,l),
(146,289,l),
(146,191,l)
);
}
);
width = 642;
},
{
layerId = m006;
shapes = (
{
closed = 1;
nodes = (
(226,0,l),
(319,430,l),
(341,536,l),
(343,536,l),
(365,430,l),
(458,0,l),
(672,0,l),
(467,730,l),
(217,730,l),
(12,0,l)
);
},
{
closed = 1;
nodes = (
(517,123,l),
(517,297,l),
(167,297,l),
(167,123,l)
);
}
);
width = 684;
}
);
metricLeft = "=H*.2";
metricRight = "=|";
unicode = 65;
},
{
glyphname = B;
kernLeft = H;
kernRight = B;
lastChange = "2026-07-10 08:21:54 +0000";
layers = (
{
layerId = m01;
metricRight = "=H*.6";
shapes = (
{
closed = 1;
nodes = (
(488,-10,o),
(600,58,o),
(600,195,cs),
(600,301,o),
(528,369,o),
(399,391,c),
(399,393,l),
(495,416,o),
(550,474,o),
(550,560,cs),
(550,677,o),
(452,740,o),
(271,740,cs),
(232,740,o),
(195,737,o),
(100,726,c),
(100,4,l),
(163,-6,o),
(209,-10,o),
(263,-10,cs)
);
},
{
closed = 1;
nodes = (
(210,10,o),
(166,14,o),
(103,24,c),
(120,14,l),
(120,716,l),
(102,706,l),
(197,717,o),
(233,720,o),
(271,720,cs),
(443,720,o),
(530,663,o),
(530,560,cs),
(530,458,o),
(444,400,o),
(293,400,cs),
(111,400,l),
(111,380,l),
(293,380,ls),
(478,380,o),
(580,314,o),
(580,195,cs),
(580,72,o),
(480,10,o),
(263,10,cs)
);
}
);
width = 660;
},
{
associatedMasterId = m01;
attr = {
coordinates = (
200,
200
);
};
layerId = "045BF7CD-F08D-414D-A7F3-96A78B5CF3C8";
metricRight = "=H*.6";
name = "Jun 9, 26 at 21:10";
shapes = (
{
closed = 1;
nodes = (
(494,-10,o),
(608,58,o),
(608,196,cs),
(608,301,o),
(542,369,o),
(424,390,c),
(424,392,l),
(510,415,o),
(559,475,o),
(559,559,cs),
(559,678,o),
(461,740,o),
(272,740,cs),
(230,740,o),
(189,737,o),
(95,726,c),
(95,4,l),
(157,-6,o),
(205,-10,o),
(262,-10,cs)
);
},
{
closed = 1;
nodes = (
(221,30,o),
(167,33,o),
(111,42,c),
(137,19,l),
(137,712,l),
(110,688,l),
(189,697,o),
(239,701,o),
(278,701,cs),
(436,701,o),
(516,649,o),
(516,554,cs),
(516,459,o),
(438,407,o),
(297,407,cs),
(117,407,l),
(117,368,l),
(299,368,ls),
(472,368,o),
(564,309,o),
(564,200,cs),
(564,86,o),
(472,30,o),
(273,30,cs)
);
}
);
width = 665;
},
{
associatedMasterId = m01;
attr = {
axisRules = (
{
},
{
max = 150;
min = 100;
}
);
};
layerId = "0A0012AC-723E-4655-B905-BB0008F0DE8C";
metricRight = "=H*.6";
name = "Thin F1 [100‹wd‹150] Jun 15, 26 at 20:59";
shapes = (
{
closed = 1;
nodes = (
(449,0,o),
(550,65,o),
(550,195,cs),
(550,299,o),
(487,369,o),
(373,391,c),
(373,393,l),
(456,417,o),
(502,477,o),
(502,560,cs),
(502,672,o),
(418,730,o),
(254,730,cs),
(214,730,o),
(177,730,o),
(100,730,c),
(100,0,l),
(157,0,o),
(199,0,o),
(247,0,cs)
);
},
{
closed = 1;
nodes = (
(201,20,o),
(161,20,o),
(104,20,c),
(120,14,l),
(120,716,l),
(103,710,l),
(180,710,o),
(215,710,o),
(254,710,cs),
(409,710,o),
(482,659,o),
(482,560,cs),
(482,486,o),
(441,400,o),
(274,400,cs),
(110,400,l),
(110,380,l),
(274,380,ls),
(473,380,o),
(530,289,o),
(530,195,cs),
(530,79,o),
(440,20,o),
(247,20,cs)
);
}
);
width = 610;
},
{
associatedMasterId = m01;
attr = {
axisRules = (
{
},
{
max = 150;
min = 100;
}
);
coordinates = (
200,
200
);
};
layerId = "352600B3-56CE-4747-BD4F-228B2749AAB0";
metricRight = "=H*.6";
name = "Jun 15, 26 at 20:58";
shapes = (
{
closed = 1;
nodes = (
(458,0,o),
(560,64,o),
(560,196,cs),
(560,298,o),
(500,369,o),
(397,390,c),
(397,392,l),
(471,416,o),
(514,478,o),
(514,559,cs),
(514,673,o),
(429,730,o),
(259,730,cs),
(213,730,o),
(171,730,o),
(95,730,c),
(95,0,l),
(153,0,o),
(199,0,o),
(250,0,cs)
);
},
{
closed = 1;
nodes = (
(210,40,o),
(161,40,o),
(111,40,c),
(137,19,l),
(137,712,l),
(110,691,l),
(174,691,o),
(222,691,o),
(260,691,cs),
(402,691,o),
(470,644,o),
(470,552,cs),
(470,480,o),
(427,407,o),
(278,407,cs),
(116,407,l),
(116,368,l),
(279,368,ls),
(459,368,o),
(516,291,o),
(516,200,cs),
(516,93,o),
(433,40,o),
(255,40,cs)
);
}
);
width = 617;
},
{
layerId = m002;
metricRight = "=H*.5";
shapes = (
{
closed = 1;
nodes = (
(513,-10,o),
(630,56,o),
(630,198,cs),
(630,301,o),
(569,367,o),
(459,385,c),
(459,387,l),
(542,413,o),
(585,471,o),
(585,555,cs),
(585,682,o),
(487,740,o),
(274,740,cs),
(225,740,o),
(171,737,o),
(80,726,c),
(80,4,l),
(138,-6,o),
(194,-10,o),
(260,-10,cs)
);
},
{
closed = 1;
nodes = (
(254,88,o),
(165,92,o),
(134,96,c),
(189,32,l),
(189,699,l),
(134,634,l),
(166,637,o),
(256,642,o),
(299,642,cs),
(415,642,o),
(472,606,o),
(472,534,cs),
(472,463,o),
(418,428,o),
(310,428,cs),
(135,428,l),
(135,332,l),
(316,332,ls),
(452,332,o),
(517,294,o),
(517,215,cs),
(517,128,o),
(449,88,o),
(301,88,cs)
);
}
);
width = 670;
},
{
layerId = m003;
metricRight = "=H*.4";
shapes = (
{
closed = 1;
nodes = (
(542,-10,o),
(660,51,o),
(660,200,cs),
(660,303,o),
(604,364,o),
(497,378,c),
(497,380,l),
(582,409,o),
(620,461,o),
(620,550,cs),
(620,688,o),
(526,740,o),
(277,740,cs),
(198,740,o),
(128,735,o),
(60,726,c),
(60,4,l),
(141,-6,o),
(182,-10,o),
(256,-10,cs)
);
},
{
closed = 1;
nodes = (
(273,147,o),
(188,152,o),
(154,157,c),
(258,48,l),
(258,682,l),
(154,573,l),
(194,578,o),
(270,583,o),
(306,583,cs),
(379,583,o),
(410,562,o),
(410,513,cs),
(410,467,o),
(379,447,o),
(306,447,cs),
(154,447,l),
(154,293,l),
(318,293,ls),
(415,293,o),
(450,274,o),
(450,221,cs),
(450,169,o),
(411,147,o),
(318,147,c)
);
}
);
width = 684;
},
{
layerId = m004;
metricRight = "=H*.6";
shapes = (
{
closed = 1;
nodes = (
(461,-10,o),
(566,58,o),
(566,195,cs),
(566,302,o),
(502,369,o),
(381,391,c),
(381,393,l),
(469,417,o),
(516,476,o),
(516,560,cs),
(516,677,o),
(425,740,o),
(257,740,cs),
(215,740,o),
(176,736,o),
(96,726,c),
(96,4,l),
(156,-6,o),
(199,-10,o),
(250,-10,cs)
);
},
{
closed = 1;
nodes = (
(200,10,o),
(159,14,o),
(99,24,c),
(116,14,l),
(116,716,l),
(98,706,l),
(178,716,o),
(216,720,o),
(257,720,cs),
(416,720,o),
(496,664,o),
(496,560,cs),
(496,457,o),
(418,400,o),
(278,400,cs),
(106,400,l),
(106,380,l),
(278,380,ls),
(454,380,o),
(546,316,o),
(546,195,cs),
(546,72,o),
(452,10,o),
(250,10,cs)
);
}
);
width = 624;
},
{
associatedMasterId = m004;
attr = {
coordinates = (
200,
100
);
};
layerId = "6536ABDB-027F-41C3-A38C-CA501C79773F";
metricRight = "=H*.6";
name = "{200} Jun 14, 26 at 17:39";
shapes = (
{
closed = 1;
nodes = (
(468,-10,o),
(574,58,o),
(574,196,cs),
(574,300,o),
(514,369,o),
(405,390,c),
(405,392,l),
(483,416,o),
(527,476,o),
(527,559,cs),
(527,678,o),
(435,740,o),
(259,740,cs),
(212,740,o),
(170,736,o),
(92,726,c),
(92,4,l),
(152,-6,o),
(197,-10,o),
(250,-10,cs)
);
},
{
closed = 1;
nodes = (
(210,30,o),
(161,33,o),
(107,42,c),
(134,19,l),
(134,712,l),
(106,688,l),
(172,696,o),
(223,701,o),
(263,701,cs),
(409,701,o),
(483,650,o),
(483,554,cs),
(483,459,o),
(412,407,o),
(282,407,cs),
(113,407,l),
(113,368,l),
(283,368,ls),
(446,368,o),
(530,310,o),
(530,199,cs),
(530,86,o),
(444,30,o),
(258,30,cs)
);
}
);
width = 629;
},
{
associatedMasterId = m004;
attr = {
axisRules = (
{
},
{
max = 150;
min = 100;
}
);
};
layerId = "2CD06F6B-4F8F-4796-94F0-062F0D0B15DF";
metricRight = "=H*.6";
name = "Jun 14, 26 at 17:45";
shapes = (
{
closed = 1;
nodes = (
(461,0,o),
(566,65,o),
(566,195,cs),
(566,299,o),
(500,369,o),
(381,391,c),
(381,393,l),
(468,417,o),
(516,477,o),
(516,560,cs),
(516,672,o),
(428,730,o),
(257,730,cs),
(215,730,o),
(176,730,o),
(96,730,c),
(96,0,l),
(156,0,o),
(199,0,o),
(250,0,cs)
);
},
{
closed = 1;
nodes = (
(200,20,o),
(159,20,o),
(99,20,c),
(116,14,l),
(116,716,l),
(98,710,l),
(178,710,o),
(216,710,o),
(257,710,cs),
(419,710,o),
(496,658,o),
(496,560,cs),
(496,486,o),
(453,400,o),
(278,400,cs),
(106,400,l),
(106,380,l),
(278,380,ls),
(486,380,o),
(546,289,o),
(546,195,cs),
(546,79,o),
(453,20,o),
(250,20,cs)
);
}
);
width = 624;
},
{
associatedMasterId = m004;
attr = {
axisRules = (
{
},
{
max = 150;
min = 100;
}
);
coordinates = (
200,
100
);
};
layerId = "4F1B4BE8-EDDA-468F-8D03-044AB595CA70";
metricRight = "=H*.6";
name = "Jun 9, 26 at 21:16";
shapes = (
{
closed = 1;
nodes = (
(469,0,o),
(574,64,o),
(574,196,cs),
(574,298,o),
(512,369,o),
(405,390,c),
(405,392,l),
(482,416,o),
(527,478,o),
(527,559,cs),
(527,673,o),
(439,730,o),
(262,730,cs),
(215,730,o),
(171,730,o),
(92,730,c),
(92,0,l),
(152,0,o),
(199,0,o),
(253,0,cs)
);
},
{
closed = 1;
nodes = (
(210,40,o),
(160,40,o),
(107,40,c),
(134,19,l),
(134,712,l),
(106,691,l),
(173,691,o),
(223,691,o),
(263,691,cs),
(412,691,o),
(483,643,o),
(483,552,cs),
(483,480,o),
(438,407,o),
(282,407,cs),
(113,407,l),
(113,368,l),
(283,368,ls),
(470,368,o),
(530,291,o),
(530,200,cs),
(530,93,o),
(445,40,o),
(258,40,cs)
);
}
);
width = 629;
},
{
layerId = m005;
metricRight = "=H*.5";
shapes = (
{
closed = 1;
nodes = (
(488,-10,o),
(598,56,o),
(598,198,cs),
(598,300,o),
(541,367,o),
(436,385,c),
(436,387,l),
(517,413,o),
(558,471,o),
(558,555,cs),
(558,682,o),
(465,740,o),
(264,740,cs),
(204,740,o),
(150,735,o),
(78,726,c),
(78,4,l),
(137,-6,o),
(191,-10,o),
(250,-10,cs)
);
},
{
closed = 1;
nodes = (
(239,88,o),
(162,92,o),
(131,96,c),
(187,32,l),
(187,699,l),
(131,634,l),
(157,637,o),
(242,642,o),
(282,642,cs),
(389,642,o),
(443,606,o),
(443,534,cs),
(443,464,o),
(392,428,o),
(292,428,cs),
(132,428,l),
(132,332,l),
(297,332,ls),
(423,332,o),
(483,293,o),
(483,211,cs),
(483,127,o),
(420,88,o),
(283,88,cs)
);
}
);
width = 637;
},
{
associatedMasterId = m005;
attr = {
axisRules = (
{
},
{
max = 150;
min = 100;
}
);
};
layerId = "8060C201-5DEE-4975-A598-B4EB239F2D66";
metricRight = "=H*.5";
name = "Jun 14, 26 at 17:28";
shapes = (
{
closed = 1;
nodes = (
(493,0,o),
(598,62,o),
(598,198,cs),
(598,300,o),
(539,367,o),
(436,385,c),
(436,387,l),
(515,413,o),
(558,470,o),
(558,555,cs),
(558,676,o),
(471,730,o),
(277,730,cs),
(213,730,o),
(155,730,o),
(78,730,c),
(78,0,l),
(141,0,o),
(200,0,o),
(263,0,cs)
);
},
{
closed = 1;
nodes = (
(238,98,o),
(162,98,o),
(131,98,c),
(187,32,l),
(187,699,l),
(131,632,l),
(157,632,o),
(245,632,o),
(282,632,cs),
(389,632,o),
(443,598,o),
(443,529,cs),
(443,462,o),
(392,428,o),
(292,428,cs),
(132,428,l),
(132,332,l),
(297,332,ls),
(423,332,o),
(483,295,o),
(483,216,cs),
(483,135,o),
(420,98,o),
(283,98,cs)
);
}
);
width = 637;
},
{
layerId = m006;
metricRight = "=H*.4";
shapes = (
{
closed = 1;
nodes = (
(518,-10,o),
(630,51,o),
(630,200,cs),
(630,303,o),
(577,364,o),
(475,378,c),
(475,380,l),
(562,409,o),
(600,460,o),
(600,550,cs),
(600,688,o),
(509,740,o),
(266,740,cs),
(191,740,o),
(125,735,o),
(60,726,c),
(60,4,l),
(137,-6,o),
(176,-10,o),
(246,-10,cs)
);
},
{
closed = 1;
nodes = (
(253,147,o),
(220,147,o),
(159,147,c),
(258,48,l),
(258,682,l),
(159,583,l),
(219,583,o),
(256,583,o),
(311,583,cs),
(366,583,o),
(390,562,o),
(390,513,cs),
(390,466,o),
(368,447,o),
(311,447,cs),
(159,447,l),
(159,293,l),
(321,293,ls),
(394,293,o),
(420,274,o),
(420,222,cs),
(420,168,o),
(392,147,o),
(321,147,cs)
);
}
);
width = 654;
},
{
associatedMasterId = m006;
attr = {
axisRules = (
{
},
{
max = 150;
min = 100;
}
);
};
layerId = "8D11030C-BE9D-4093-894E-515C8C7DF80E";
metricRight = "=H*.4";
name = "Jun 14, 26 at 17:14";
shapes = (
{
closed = 1;
nodes = (
(528,0,o),
(630,58,o),
(630,200,cs),
(630,303,o),
(576,364,o),
(475,378,c),
(475,380,l),
(562,409,o),
(600,461,o),
(600,550,cs),
(600,681,o),
(518,730,o),
(296,730,cs),
(210,730,o),
(134,730,o),
(60,730,c),
(60,0,l),
(149,0,o),
(195,0,o),
(276,0,cs)
);
},
{
closed = 1;
nodes = (
(253,157,o),
(220,157,o),
(159,157,c),
(258,48,l),
(258,682,l),
(159,573,l),
(219,573,o),
(256,573,o),
(311,573,cs),
(366,573,o),
(390,553,o),
(390,508,cs),
(390,464,o),
(368,447,o),
(311,447,cs),
(159,447,l),
(159,293,l),
(321,293,ls),
(394,293,o),
(420,275,o),
(420,227,cs),
(420,177,o),
(392,157,o),
(321,157,cs)
);
}
);
width = 654;
},
{
associatedMasterId = m002;
attr = {
axisRules = (
{
},
{
max = 150;
min = 100;
}
);
};
layerId = "2802B45B-26D9-4ABF-839D-724F2B009C71";
metricRight = "=H*.5";
name = "Jun 15, 26 at 20:59";
shapes = (
{
closed = 1;
nodes = (
(487,0,o),
(590,62,o),
(590,198,cs),
(590,300,o),
(532,367,o),
(431,385,c),
(431,387,l),
(509,413,o),
(551,470,o),
(551,555,cs),
(551,676,o),
(465,730,o),
(275,730,cs),
(212,730,o),
(156,730,o),
(80,730,c),
(80,0,l),
(142,0,o),
(200,0,o),
(261,0,cs)
);
},
{
closed = 1;
nodes = (
(238,98,o),
(164,98,o),
(134,98,c),
(189,32,l),
(189,699,l),
(134,632,l),
(159,632,o),
(245,632,o),
(280,632,cs),
(384,632,o),
(436,598,o),
(436,529,cs),
(436,462,o),
(387,428,o),
(290,428,cs),
(135,428,l),
(135,332,l),
(295,332,ls),
(417,332,o),
(475,295,o),
(475,216,cs),
(475,135,o),
(414,98,o),
(281,98,cs)
);
}
);
width = 630;
},
{
associatedMasterId = m003;
attr = {
axisRules = (
{
},
{
max = 150;
min = 100;
}
);
};
layerId = "6B768C5E-A1D0-4819-A003-44E97986E5A1";
metricRight = "=H*.4";
name = "Jun 15, 26 at 20:59";
shapes = (
{
closed = 1;
nodes = (
(528,0,o),
(630,58,o),
(630,200,cs),
(630,303,o),
(576,364,o),
(475,378,c),
(475,380,l),
(562,409,o),
(600,461,o),
(600,550,cs),
(600,681,o),
(518,730,o),
(296,730,cs),
(210,730,o),
(134,730,o),
(60,730,c),
(60,0,l),
(149,0,o),
(195,0,o),
(276,0,cs)
);
},
{
closed = 1;
nodes = (
(253,157,o),
(220,157,o),
(159,157,c),
(258,48,l),
(258,682,l),
(159,573,l),
(219,573,o),
(256,573,o),
(311,573,cs),
(366,573,o),
(390,553,o),
(390,508,cs),
(390,464,o),
(368,447,o),
(311,447,cs),
(159,447,l),
(159,293,l),
(321,293,ls),
(394,293,o),
(420,275,o),
(420,227,cs),
(420,177,o),
(392,157,o),
(321,157,cs)
);
}
);
width = 654;
}
);
metricLeft = "=H";
metricRight = "=H*.6";
unicode = 66;
},
{
glyphname = C;
kernLeft = O;
kernRight = C;
lastChange = "2026-07-10 08:25:23 +0000";
layers = (
{
layerId = m01;
shapes = (
{
closed = 1;
nodes = (
(542,-20,o),
(638,1,o),
(710,36,c),
(701,54,l),
(631,20,o),
(540,0,o),
(455,0,cs),
(229,0,o),
(80,145,o),
(80,365,cs),
(80,585,o),
(229,730,o),
(455,730,cs),
(540,730,o),
(631,710,o),
(701,676,c),
(710,694,l),
(638,729,o),
(542,750,o),
(455,750,cs),
(218,750,o),
(60,596,o),
(60,365,cs),
(60,134,o),
(218,-20,o),
(455,-20,cs)
);
}
);
width = 790;
},
{
layerId = m002;
shapes = (
{
closed = 1;
nodes = (
(538,-20,o),
(635,1,o),
(708,36,c),
(686,134,l),
(622,104,o),
(534,85,o),
(459,85,cs),
(278,85,o),
(163,194,o),
(163,365,cs),
(163,536,o),
(278,645,o),
(459,645,cs),
(534,645,o),
(622,626,o),
(686,596,c),
(708,694,l),
(635,729,o),
(538,750,o),
(449,750,cs),
(209,750,o),
(48,596,o),
(48,365,cs),
(48,134,o),
(209,-20,o),
(449,-20,cs)
);
}
);
width = 772;
},
{
layerId = m005;
shapes = (
{
closed = 1;
nodes = (
(484,-20,o),
(580,2,o),
(647,36,c),
(625,134,l),
(568,105,o),
(482,85,o),
(414,85,cs),
(258,85,o),
(162,192,o),
(162,365,cs),
(162,538,o),
(258,645,o),
(414,645,cs),
(482,645,o),
(568,625,o),
(625,596,c),
(647,694,l),
(580,728,o),
(484,750,o),
(403,750,cs),
(189,750,o),
(47,596,o),
(47,365,cs),
(47,134,o),
(189,-20,o),
(403,-20,cs)
);
}
);
width = 709;
},
{
layerId = m003;
name = Black;
shapes = (
{
closed = 1;
nodes = (
(533,-20,o),
(632,1,o),
(706,36,c),
(670,214,l),
(613,188,o),
(531,170,o),
(463,170,cs),
(326,170,o),
(246,242,o),
(246,365,cs),
(246,488,o),
(326,560,o),
(463,560,cs),
(531,560,o),
(613,542,o),
(670,516,c),
(706,694,l),
(632,729,o),
(533,750,o),
(443,750,cs),
(199,750,o),
(36,596,o),
(36,365,cs),
(36,134,o),
(199,-20,o),
(443,-20,cs)
);
}
);
width = 754;
},
{
layerId = m006;
name = "Black F2";
shapes = (
{
closed = 1;
nodes = (
(501,-20,o),
(604,2,o),
(676,36,c),
(640,214,l),
(588,189,o),
(501,170,o),
(438,170,cs),
(316,170,o),
(246,241,o),
(246,365,cs),
(246,489,o),
(316,560,o),
(438,560,cs),
(501,560,o),
(588,541,o),
(640,516,c),
(676,694,l),
(604,728,o),
(501,750,o),
(415,750,cs),
(188,750,o),
(36,596,o),
(36,365,cs),
(36,134,o),
(188,-20,o),
(415,-20,cs)
);
}
);
width = 724;
},
{
layerId = m004;
name = "Thin F2";
shapes = (
{
closed = 1;
nodes = (
(465,-20,o),
(555,2,o),
(618,36,c),
(609,54,l),
(548,21,o),
(462,0,o),
(390,0,cs),
(203,0,o),
(78,144,o),
(78,365,cs),
(78,586,o),
(203,730,o),
(390,730,cs),
(462,730,o),
(548,709,o),
(609,676,c),
(618,694,l),
(555,728,o),
(465,750,o),
(390,750,cs),
(191,750,o),
(58,596,o),
(58,365,cs),
(58,134,o),
(191,-20,o),
(390,-20,cs)
);
}
);
width = 695;
}
);
metricLeft = "=O";
metricRight = "=H*.8";
unicode = 67;
},
{
glyphname = D;
kernLeft = H;
kernRight = O;
lastChange = "2026-07-10 08:25:25 +0000";
layers = (
{
layerId = m01;
shapes = (
{
closed = 1;
nodes = (
(560,-10,o),
(700,120,o),
(700,365,cs),
(700,610,o),
(560,740,o),
(296,740,cs),
(239,740,o),
(164,734,o),
(100,726,c),
(100,4,l),
(164,-4,o),
(239,-10,o),
(296,-10,cs)
);
},
{
closed = 1;
nodes = (
(240,10,o),
(166,16,o),
(102,24,c),
(120,5,l),
(120,725,l),
(102,706,l),
(166,714,o),
(240,720,o),
(296,720,cs),
(549,720,o),
(680,598,o),
(680,365,cs),
(680,132,o),
(549,10,o),
(296,10,cs)
);
}
);
width = 760;
},
{
layerId = m002;
shapes = (
{
closed = 1;
nodes = (
(564,-10,o),
(710,119,o),
(710,365,cs),
(710,611,o),
(564,740,o),
(286,740,cs),
(232,740,o),
(162,735,o),
(80,726,c),
(80,4,l),
(162,-5,o),
(232,-10,o),
(286,-10,cs)
);
},
{
closed = 1;
nodes = (
(244,88,o),
(182,93,o),
(125,100,c),
(190,38,l),
(190,693,l),
(125,630,l),
(182,637,o),
(244,642,o),
(292,642,cs),
(497,642,o),
(597,551,o),
(597,365,cs),
(597,179,o),
(497,88,o),
(292,88,cs)
);
}
);
width = 758;
},
{
layerId = m003;
shapes = (
{
closed = 1;
nodes = (
(567,-10,o),
(720,119,o),
(720,365,cs),
(720,611,o),
(567,740,o),
(276,740,cs),
(224,740,o),
(160,736,o),
(60,726,c),
(60,4,l),
(160,-6,o),
(224,-10,o),
(276,-10,cs)
);
},
{
closed = 1;
nodes = (
(247,166,o),
(198,170,o),
(148,176,c),
(260,70,l),
(260,660,l),
(148,554,l),
(198,560,o),
(247,564,o),
(287,564,cs),
(444,564,o),
(514,503,o),
(514,365,cs),
(514,227,o),
(444,166,o),
(287,166,cs)
);
}
);
width = 756;
},
{
layerId = m004;
shapes = (
{
closed = 1;
nodes = (
(480,-10,o),
(596,119,o),
(596,365,cs),
(596,611,o),
(480,740,o),
(259,740,cs),
(211,740,o),
(146,734,o),
(96,726,c),
(96,4,l),
(146,-4,o),
(211,-10,o),
(259,-10,cs)
);
},
{
closed = 1;
nodes = (
(212,10,o),
(149,16,o),
(99,24,c),
(116,5,l),
(116,725,l),
(99,706,l),
(149,714,o),
(212,720,o),
(259,720,cs),
(468,720,o),
(576,601,o),
(576,365,cs),
(576,129,o),
(468,10,o),
(259,10,cs)
);
}
);
width = 654;
},
{
layerId = m005;
shapes = (
{
closed = 1;
nodes = (
(501,-10,o),
(628,119,o),
(628,365,cs),
(628,611,o),
(501,740,o),
(258,740,cs),
(210,740,o),
(148,735,o),
(78,726,c),
(78,4,l),
(148,-5,o),
(210,-10,o),
(258,-10,cs)
);
},
{
closed = 1;
nodes = (
(238,88,o),
(169,91,o),
(129,95,c),
(188,38,l),
(188,693,l),
(129,635,l),
(169,639,o),
(238,642,o),
(268,642,cs),
(435,642,o),
(515,552,o),
(515,365,cs),
(515,178,o),
(435,88,o),
(268,88,cs)
);
}
);
width = 675;
},
{
associatedMasterId = m006;
attr = {
axisRules = (
{
},
{
max = 150;
min = 100;
}
);
};
layerId = "917F88B9-AC39-4EB0-AEDC-ED192323635B";
name = "Jun 14, 26 at 20:14";
shapes = (
{
closed = 1;
nodes = (
(532,0,o),
(660,125,o),
(660,365,cs),
(660,605,o),
(532,730,o),
(287,730,cs),
(233,730,o),
(165,730,o),
(60,730,c),
(60,0,l),
(165,0,o),
(233,0,o),
(287,0,cs)
);
},
{
closed = 1;
nodes = (
(258,176,o),
(203,176,o),
(159,176,c),
(260,70,l),
(260,660,l),
(159,554,l),
(203,554,o),
(258,554,o),
(287,554,cs),
(404,554,o),
(454,497,o),
(454,365,cs),
(454,233,o),
(404,176,o),
(287,176,cs)
);
}
);
width = 696;
},
{
layerId = m006;
name = "Black F2";
shapes = (
{
closed = 1;
nodes = (
(521,-10,o),
(660,119,o),
(660,365,cs),
(660,611,o),
(521,740,o),
(256,740,cs),
(209,740,o),
(151,736,o),
(60,726,c),
(60,4,l),
(151,-6,o),
(209,-10,o),
(256,-10,cs)
);
},
{
closed = 1;
nodes = (
(251,166,o),
(200,166,o),
(159,166,c),
(260,70,l),
(260,660,l),
(159,564,l),
(200,564,o),
(251,564,o),
(278,564,cs),
(401,564,o),
(454,504,o),
(454,365,cs),
(454,226,o),
(401,166,o),
(278,166,cs)
);
}
);
width = 696;
},
{
associatedMasterId = m004;
attr = {
axisRules = (
{
},
{
max = 150;
min = 100;
}
);
};
layerId = "2C313F7F-C172-496B-8618-15F2998ADFC4";
name = "Jun 14, 26 at 20:18";
shapes = (
{
closed = 1;
nodes = (
(490,0,o),
(596,125,o),
(596,365,cs),
(596,605,o),
(490,730,o),
(285,730,cs),
(240,730,o),
(184,730,o),
(96,730,c),
(96,0,l),
(184,0,o),
(240,0,o),
(285,0,cs)
);
},
{
closed = 1;
nodes = (
(240,20,o),
(194,20,o),
(106,20,c),
(116,10,l),
(116,720,l),
(106,710,l),
(194,710,o),
(240,710,o),
(285,710,cs),
(478,710,o),
(576,595,o),
(576,365,cs),
(576,135,o),
(478,20,o),
(285,20,cs)
);
}
);
width = 654;
},
{
associatedMasterId = m005;
attr = {
axisRules = (
{
},
{
max = 150;
min = 100;
}
);
};
layerId = "0B885725-F10F-4644-9827-EA65289D82C3";
name = "Jun 14, 26 at 20:30";
shapes = (
{
closed = 1;
nodes = (
(510,0,o),
(628,126,o),
(628,365,cs),
(628,604,o),
(510,730,o),
(286,730,cs),
(231,730,o),
(159,730,o),
(78,730,c),
(78,0,l),
(159,0,o),
(231,0,o),
(286,0,cs)
);
},
{
closed = 1;
nodes = (
(252,98,o),
(174,98,o),
(129,98,c),
(188,38,l),
(188,693,l),
(129,632,l),
(174,632,o),
(252,632,o),
(286,632,cs),
(441,632,o),
(515,546,o),
(515,365,cs),
(515,184,o),
(441,98,o),
(286,98,cs)
);
}
);
width = 675;
},
{
associatedMasterId = m01;
attr = {
axisRules = (
{
},
{
max = 150;
min = 100;
}
);
};
layerId = "08845D47-9C10-4CC7-8019-E07738689642";
name = "Jun 15, 26 at 20:56";
shapes = (
{
closed = 1;
nodes = (
(486,0,o),
(590,125,o),
(590,365,cs),
(590,605,o),
(486,730,o),
(285,730,cs),
(241,730,o),
(186,730,o),
(100,730,c),
(100,0,l),
(186,0,o),
(241,0,o),
(285,0,cs)
);
},
{
closed = 1;
nodes = (
(241,20,o),
(196,20,o),
(110,20,c),
(120,10,l),
(120,720,l),
(110,710,l),
(196,710,o),
(241,710,o),
(285,710,cs),
(474,710,o),
(570,595,o),
(570,365,cs),
(570,135,o),
(474,20,o),
(285,20,cs)
);
}
);
width = 650;
},
{
associatedMasterId = m002;
attr = {
axisRules = (
{
},
{
max = 150;
min = 100;
}
);
};
layerId = "0A29775C-4A36-4DE7-8E65-A7018B973283";
name = "Jun 15, 26 at 20:56";
shapes = (
{
closed = 1;
nodes = (
(504,0,o),
(620,126,o),
(620,365,cs),
(620,604,o),
(504,730,o),
(284,730,cs),
(230,730,o),
(160,730,o),
(80,730,c),
(80,0,l),
(160,0,o),
(230,0,o),
(284,0,cs)
);
},
{
closed = 1;
nodes = (
(252,98,o),
(176,98,o),
(132,98,c),
(190,38,l),
(190,693,l),
(132,632,l),
(176,632,o),
(252,632,o),
(284,632,cs),
(435,632,o),
(507,546,o),
(507,365,cs),
(507,184,o),
(435,98,o),
(284,98,cs)
);
}
);
width = 668;
},
{
associatedMasterId = m003;
attr = {
axisRules = (
{
},
{
max = 150;
min = 100;
}
);
};
layerId = "DC3B71D2-4A19-40D9-869C-876F9570803E";
name = "Jun 15, 26 at 20:56";
shapes = (
{
closed = 1;
nodes = (
(524,0,o),
(650,125,o),
(650,365,cs),
(650,605,o),
(524,730,o),
(283,730,cs),
(230,730,o),
(163,730,o),
(60,730,c),
(60,0,l),
(163,0,o),
(230,0,o),
(283,0,cs)
);
},
{
closed = 1;
nodes = (
(256,176,o),
(203,176,o),
(162,176,c),
(260,70,l),
(260,660,l),
(162,554,l),
(203,554,o),
(256,554,o),
(284,554,cs),
(396,554,o),
(444,497,o),
(444,365,cs),
(444,233,o),
(396,176,o),
(284,176,cs)
);
}
);
width = 686;
}
);
metricLeft = "=H";
metricRight = "=O";
unicode = 68;
},
{
glyphname = E;
kernLeft = H;
kernRight = E;
lastChange = "2026-07-10 08:22:00 +0000";
layers = (
{
layerId = m01;
shapes = (
{
closed = 1;
nodes = (
(480,0,l),
(480,20,l),
(120,20,l),
(120,380,l),
(460,380,l),
(460,400,l),
(120,400,l),
(120,710,l),
(480,710,l),
(480,730,l),
(100,730,l),
(100,0,l)
);
}
);
width = 570;
},
{
layerId = m002;
shapes = (
{
closed = 1;
nodes = (
(500,0,l),
(500,98,l),
(190,98,l),
(190,331,l),
(480,331,l),
(480,429,l),
(190,429,l),
(190,632,l),
(500,632,l),
(500,730,l),
(80,730,l),
(80,0,l)
);
}
);
width = 572;
},
{
layerId = m003;
shapes = (
{
closed = 1;
nodes = (
(520,0,l),
(520,172,l),
(260,172,l),
(260,285,l),
(500,285,l),
(500,455,l),
(260,455,l),
(260,558,l),
(520,558,l),
(520,730,l),
(60,730,l),
(60,0,l)
);
}
);
width = 574;
},
{
layerId = m004;
shapes = (
{
closed = 1;
nodes = (
(496,0,l),
(496,20,l),
(116,20,l),
(116,380,l),
(476,380,l),
(476,400,l),
(116,400,l),
(116,710,l),
(496,710,l),
(496,730,l),
(96,730,l),
(96,0,l)
);
}
);
width = 582;
},
{
layerId = m005;
shapes = (
{
closed = 1;
nodes = (
(528,0,l),
(528,98,l),
(188,98,l),
(188,331,l),
(508,331,l),
(508,429,l),
(188,429,l),
(188,632,l),
(528,632,l),
(528,730,l),
(78,730,l),
(78,0,l)
);
}
);
width = 598;
},
{
layerId = m006;
shapes = (
{
closed = 1;
nodes = (
(560,0,l),
(560,172,l),
(260,172,l),
(260,285,l),
(540,285,l),
(540,455,l),
(260,455,l),
(260,558,l),
(560,558,l),
(560,730,l),
(60,730,l),
(60,0,l)
);
}
);
width = 614;
}
);
metricLeft = "=H";
metricRight = "=H*.9";
unicode = 69;
},
{
glyphname = F;
kernLeft = H;
kernRight = F;
lastChange = "2026-07-10 08:22:01 +0000";
layers = (
{
layerId = m01;
shapes = (
{
closed = 1;
nodes = (
(120,0,l),
(120,380,l),
(460,380,l),
(460,400,l),
(120,400,l),
(120,710,l),
(480,710,l),
(480,730,l),
(100,730,l),
(100,0,l)
);
}
);
width = 540;
},
{
layerId = m002;
shapes = (
{
closed = 1;
nodes = (
(190,0,l),
(190,326,l),
(485,326,l),
(485,424,l),
(190,424,l),
(190,632,l),
(505,632,l),
(505,730,l),
(80,730,l),
(80,0,l)
);
}
);
width = 553;
},
{
layerId = m003;
shapes = (
{
closed = 1;
nodes = (
(260,0,l),
(260,272,l),
(510,272,l),
(510,448,l),
(260,448,l),
(260,554,l),
(530,554,l),
(530,730,l),
(60,730,l),
(60,0,l)
);
}
);
width = 566;
},
{
layerId = m004;
shapes = (
{
closed = 1;
nodes = (
(116,0,l),
(116,380,l),
(496,380,l),
(496,400,l),
(116,400,l),
(116,710,l),
(516,710,l),
(516,730,l),
(96,730,l),
(96,0,l)
);
}
);
width = 574;
},
{
layerId = m005;
shapes = (
{
closed = 1;
nodes = (
(188,0,l),
(188,326,l),
(523,326,l),
(523,424,l),
(188,424,l),
(188,632,l),
(543,632,l),
(543,730,l),
(78,730,l),
(78,0,l)
);
}
);
width = 590;
},
{
layerId = m006;
shapes = (
{
closed = 1;
nodes = (
(260,0,l),
(260,272,l),
(550,272,l),
(550,448,l),
(260,448,l),
(260,554,l),
(570,554,l),
(570,730,l),
(60,730,l),
(60,0,l)
);
}
);
width = 606;
}
);
metricLeft = "=H";
metricRight = "=H*.6";
unicode = 70;
},
{
glyphname = G;
kernLeft = O;
kernRight = G;
lastChange = "2026-07-10 08:25:26 +0000";
layers = (
{
layerId = m003;
name = "Black F1";
shapes = (
{
closed = 1;
nodes = (
(559,-20,o),
(681,5,o),
(756,42,c),
(756,449,l),
(390,449,l),
(390,271,l),
(556,271,l),
(556,156,l),
(571,181,l),
(535,166,o),
(505,160,o),
(465,160,cs),
(322,160,o),
(242,233,o),
(242,365,cs),
(242,495,o),
(319,570,o),
(453,570,cs),
(524,570,o),
(611,549,o),
(665,519,c),
(707,693,l),
(636,730,o),
(547,750,o),
(452,750,cs),
(194,750,o),
(36,603,o),
(36,365,cs),
(36,127,o),
(194,-20,o),
(452,-20,cs)
);
}
);
width = 810;
},
{
layerId = m002;
name = "Medium F1";
shapes = (
{
closed = 1;
nodes = (
(563,-20,o),
(675,3,o),
(748,39,c),
(748,419,l),
(394,419,l),
(394,321,l),
(638,321,l),
(638,81,l),
(651,117,l),
(599,93,o),
(535,80,o),
(468,80,cs),
(276,80,o),
(161,186,o),
(161,365,cs),
(161,543,o),
(274,650,o),
(462,650,cs),
(543,650,o),
(621,630,o),
(685,593,c),
(709,691,l),
(639,730,o),
(556,750,o),
(462,750,cs),
(206,750,o),
(48,603,o),
(48,365,cs),
(48,127,o),
(207,-20,o),
(462,-20,cs)
);
}
);
width = 820;
},
{
layerId = m01;
name = "Thin F1";
shapes = (
{
closed = 1;
nodes = (
(566,-20,o),
(669,1,o),
(740,35,c),
(740,390,l),
(398,390,l),
(398,370,l),
(720,370,l),
(720,36,l),
(731,53,l),
(662,20,o),
(564,0,o),
(471,0,cs),
(229,0,o),
(80,139,o),
(80,365,cs),
(80,591,o),
(229,730,o),
(471,730,cs),
(561,730,o),
(634,711,o),
(700,671,c),
(710,688,l),
(641,730,o),
(564,750,o),
(471,750,cs),
(218,750,o),
(60,602,o),
(60,365,cs),
(60,128,o),
(218,-20,o),
(471,-20,cs)
);
}
);
width = 830;
},
{
layerId = m005;
name = "Medium F2";
shapes = (
{
closed = 1;
nodes = (
(525,-20,o),
(629,3,o),
(697,39,c),
(697,419,l),
(368,419,l),
(368,321,l),
(587,321,l),
(587,96,l),
(605,117,l),
(555,92,o),
(498,80,o),
(439,80,cs),
(264,80,o),
(160,186,o),
(160,365,cs),
(160,543,o),
(263,650,o),
(434,650,cs),
(508,650,o),
(579,630,o),
(635,595,c),
(660,691,l),
(595,730,o),
(518,750,o),
(431,750,cs),
(194,750,o),
(47,603,o),
(47,365,cs),
(47,127,o),
(194,-20,o),
(431,-20,cs)
);
}
);
width = 767;
},
{
layerId = m004;
name = "Thin F2";
shapes = (
{
closed = 1;
nodes = (
(512,-20,o),
(604,1,o),
(668,35,c),
(668,390,l),
(361,390,l),
(361,370,l),
(648,370,l),
(648,36,l),
(659,53,l),
(597,20,o),
(509,0,o),
(427,0,cs),
(211,0,o),
(78,139,o),
(78,365,cs),
(78,591,o),
(211,730,o),
(427,730,cs),
(507,730,o),
(571,711,o),
(630,671,c),
(641,688,l),
(579,730,o),
(510,750,o),
(427,750,cs),
(200,750,o),
(58,602,o),
(58,365,cs),
(58,128,o),
(200,-20,o),
(427,-20,cs)
);
}
);
width = 754;
},
{
layerId = m006;
name = "Black F2";
shapes = (
{
closed = 1;
nodes = (
(537,-20,o),
(654,5,o),
(726,42,c),
(726,449,l),
(375,449,l),
(375,271,l),
(526,271,l),
(526,156,l),
(551,181,l),
(517,166,o),
(489,160,o),
(451,160,cs),
(317,160,o),
(242,233,o),
(242,365,cs),
(242,495,o),
(314,570,o),
(441,570,cs),
(508,570,o),
(586,549,o),
(639,519,c),
(679,693,l),
(611,730,o),
(526,750,o),
(435,750,cs),
(188,750,o),
(36,604,o),
(36,365,cs),
(36,126,o),
(188,-20,o),
(435,-20,cs)
);
}
);
width = 780;
}
);
metricLeft = "=O";
metricRight = "=H*.9";
unicode = 71;
},
{
glyphname = H;
kernLeft = H;
kernRight = H;
lastChange = "2026-07-10 08:21:04 +0000";
layers = (
{
layerId = m01;
shapes = (
{
closed = 1;
nodes = (
(120,0,l),
(120,400,l),
(680,400,l),
(680,0,l),
(700,0,l),
(700,730,l),
(680,730,l),
(680,420,l),
(120,420,l),
(120,730,l),
(100,730,l),
(100,0,l)
);
}
);
width = 800;
},
{
layerId = m002;
shapes = (
{
closed = 1;
nodes = (
(190,0,l),
(190,350,l),
(610,350,l),
(610,0,l),
(720,0,l),
(720,730,l),
(610,730,l),
(610,450,l),
(190,450,l),
(190,730,l),
(80,730,l),
(80,0,l)
);
}
);
width = 800;
},
{
layerId = m003;
shapes = (
{
closed = 1;
nodes = (
(260,0,l),
(260,300,l),
(540,300,l),
(540,0,l),
(740,0,l),
(740,730,l),
(540,730,l),
(540,480,l),
(260,480,l),
(260,730,l),
(60,730,l),
(60,0,l)
);
}
);
width = 800;
},
{
layerId = m004;
shapes = (
{
closed = 1;
nodes = (
(116,0,l),
(116,380,l),
(576,380,l),
(576,0,l),
(596,0,l),
(596,730,l),
(576,730,l),
(576,400,l),
(116,400,l),
(116,730,l),
(96,730,l),
(96,0,l)
);
}
);
width = 692;
},
{
layerId = m005;
shapes = (
{
closed = 1;
nodes = (
(188,0,l),
(188,330,l),
(518,330,l),
(518,0,l),
(628,0,l),
(628,730,l),
(518,730,l),
(518,430,l),
(188,430,l),
(188,730,l),
(78,730,l),
(78,0,l)
);
}
);
width = 706;
},
{
layerId = m006;
shapes = (
{
closed = 1;
nodes = (
(260,0,l),
(260,280,l),
(460,280,l),
(460,0,l),
(660,0,l),
(660,730,l),
(460,730,l),
(460,460,l),
(260,460,l),
(260,730,l),
(60,730,l),
(60,0,l)
);
}
);
width = 720;
}
);
metricRight = "=|";
unicode = 72;
},
{
glyphname = I;
kernLeft = I;
kernRight = I;
lastChange = "2026-07-10 08:21:07 +0000";
layers = (
{
layerId = m01;
shapes = (
{
closed = 1;
nodes = (
(140,0,l),
(140,730,l),
(120,730,l),
(120,0,l)
);
}
);
width = 260;
},
{
layerId = m002;
shapes = (
{
closed = 1;
nodes = (
(210,0,l),
(210,730,l),
(96,730,l),
(96,0,l)
);
}
);
width = 306;
},
{
layerId = m003;
shapes = (
{
closed = 1;
nodes = (
(282,0,l),
(282,730,l),
(72,730,l),
(72,0,l)
);
}
);
width = 354;
},
{
layerId = m004;
shapes = (
{
closed = 1;
nodes = (
(135,0,l),
(135,730,l),
(115,730,l),
(115,0,l)
);
}
);
width = 250;
},
{
layerId = m005;
shapes = (
{
closed = 1;
nodes = (
(208,0,l),
(208,730,l),
(94,730,l),
(94,0,l)
);
}
);
width = 302;
},
{
layerId = m006;
shapes = (
{
closed = 1;
nodes = (
(282,0,l),
(282,730,l),
(72,730,l),
(72,0,l)
);
}
);
width = 354;
}
);
metricLeft = "=H*1.2";
metricRight = "=|";
unicode = 73;
},
{
glyphname = J;
kernLeft = I;
kernRight = I;
lastChange = "2026-07-10 08:22:06 +0000";
layers = (
{
layerId = m01;
metricLeft = "=I-260";
shapes = (
{
closed = 1;
nodes = (
(79,-228,o),
(140,-156,o),
(140,80,cs),
(140,730,l),
(120,730,l),
(120,80,ls),
(120,-146,o),
(67,-209,o),
(-140,-230,c),
(-138,-250,l)
);
}
);
width = 260;
},
{
layerId = m002;
metricLeft = "=I-230";
shapes = (
{
closed = 1;
nodes = (
(143,-228,o),
(216,-156,o),
(216,80,cs),
(216,730,l),
(102,730,l),
(102,80,ls),
(102,-96,o),
(65,-133,o),
(-134,-154,c),
(-116,-250,l)
);
}
);
width = 312;
},
{
layerId = m003;
metricLeft = "=I-200";
shapes = (
{
closed = 1;
nodes = (
(208,-228,o),
(292,-156,o),
(292,80,cs),
(292,730,l),
(84,730,l),
(84,80,ls),
(84,-47,o),
(64,-62,o),
(-128,-82,c),
(-94,-250,l)
);
}
);
width = 364;
},
{
layerId = m004;
metricLeft = "=I-220";
shapes = (
{
closed = 1;
nodes = (
(83,-228,o),
(135,-154,o),
(135,80,cs),
(135,730,l),
(115,730,l),
(115,80,ls),
(115,-145,o),
(70,-209,o),
(-105,-230,c),
(-103,-250,l)
);
}
);
width = 250;
},
{
layerId = m005;
metricLeft = "=I-200";
shapes = (
{
closed = 1;
nodes = (
(140,-228,o),
(204,-156,o),
(204,80,cs),
(204,730,l),
(90,730,l),
(90,80,ls),
(90,-96,o),
(59,-133,o),
(-106,-154,c),
(-88,-250,l)
);
}
);
width = 298;
},
{
layerId = m006;
metricLeft = "=I-180";
shapes = (
{
closed = 1;
nodes = (
(197,-228,o),
(272,-156,o),
(272,80,cs),
(272,730,l),
(64,730,l),
(64,80,ls),
(64,-47,o),
(48,-62,o),
(-108,-82,c),
(-74,-250,l)
);
}
);
width = 344;
},
{
associatedMasterId = m004;
attr = {
axisRules = (
{
},
{
max = 200;
min = 150;
}
);
};
layerId = "BB175CEE-9FE4-4BFD-98A2-C4857DDC271C";
metricLeft = "=I-180";
name = "Jul 9, 26 at 16:07";
shapes = (
{
closed = 1;
nodes = (
(78,-171,o),
(125,-84,o),
(125,84,cs),
(125,730,l),
(105,730,l),
(105,84,ls),
(105,-77,o),
(61,-158,o),
(-65,-233,c),
(-55,-250,l)
);
}
);
width = 240;
},
{
associatedMasterId = m005;
attr = {
axisRules = (
{
},
{
max = 200;
min = 150;
}
);
};
layerId = "224FE394-62D1-484A-A4F6-9DDD8C995DD2";
metricLeft = "=I-170";
name = "Jul 9, 26 at 16:07";
shapes = (
{
closed = 1;
nodes = (
(152,-143,o),
(204,-41,o),
(204,154,cs),
(204,730,l),
(90,730,l),
(90,154,ls),
(90,1,o),
(51,-73,o),
(-76,-159,c),
(-2,-250,l)
);
}
);
width = 298;
},
{
associatedMasterId = m006;
attr = {
axisRules = (
{
},
{
max = 200;
min = 150;
}
);
};
layerId = "3F49FAB5-16E2-4526-8A79-190D357FAFFD";
metricLeft = "=I-160";
name = "Jul 9, 26 at 16:07";
shapes = (
{
closed = 1;
nodes = (
(225,-114,o),
(282,3,o),
(282,224,cs),
(282,730,l),
(74,730,l),
(74,224,ls),
(74,71,o),
(41,6,o),
(-88,-94,c),
(50,-250,l)
);
}
);
width = 354;
},
{
associatedMasterId = m01;
attr = {
axisRules = (
{
},
{
max = 200;
min = 150;
}
);
};
layerId = "CB994C85-F095-4EDB-BB16-CE5B6E4FBFEE";
metricLeft = "=I-210";
name = "Jul 9, 26 at 16:07";
shapes = (
{
closed = 1;
nodes = (
(73,-194,o),
(140,-94,o),
(140,84,cs),
(140,730,l),
(120,730,l),
(120,84,ls),
(120,-86,o),
(58,-178,o),
(-90,-231,c),
(-83,-250,l)
);
}
);
width = 260;
},
{
associatedMasterId = m002;
attr = {
axisRules = (
{
},
{
max = 200;
min = 150;
}
);
};
layerId = "1B7848C7-4412-49E7-BA6A-B41AA99C6FD5";
metricLeft = "=I-200";
name = "Jul 9, 26 at 16:07";
shapes = (
{
closed = 1;
nodes = (
(146,-159,o),
(216,-50,o),
(216,154,cs),
(216,730,l),
(102,730,l),
(102,154,ls),
(102,-8,o),
(50,-86,o),
(-104,-156,c),
(-44,-250,l)
);
}
);
width = 312;
},
{
associatedMasterId = m003;
attr = {
axisRules = (
{
},
{
max = 200;
min = 150;
}
);
};
layerId = "77911C10-8A02-42E8-B15A-0C1AC77EA4F4";
metricLeft = "=I-190";
name = "Jul 9, 26 at 16:07";
shapes = (
{
closed = 1;
nodes = (
(222,-124,o),
(292,-7,o),
(292,224,cs),
(292,730,l),
(84,730,l),
(84,224,ls),
(84,61,o),
(43,-4,o),
(-118,-94,c),
(8,-250,l)
);
}
);
width = 364;
}
);
metricLeft = "=I-210";
metricRight = "=I";
unicode = 74;
},
{
glyphname = K;
kernLeft = H;
kernRight = X;
lastChange = "2026-07-10 08:21:09 +0000";
layers = (
{
layerId = m01;
metricRight = "=H*.2";
shapes = (
{
closed = 1;
nodes = (
(120,0,l),
(120,0,l),
(120,0,l),
(120,0,l),
(120,0,l),
(120,730,l),
(100,730,l),
(100,0,l)
);
},
{
closed = 1;
nodes = (
(111,280,l),
(277,419,l),
(277,419,l),
(650,730,l),
(620,731,l),
(108,304,l)
);
},
{
closed = 1;
nodes = (
(660,0,l),
(287,432,l),
(267,425,l),
(634,0,l)
);
}
);
width = 680;
},
{
layerId = m002;
metricRight = "=H*.14";
shapes = (
{
closed = 1;
nodes = (
(190,0,l),
(190,0,l),
(190,0,l),
(190,0,l),
(190,0,l),
(190,730,l),
(80,730,l),
(80,0,l)
);
},
{
closed = 1;
nodes = (
(181,207,l),
(336,363,l),
(336,363,l),
(705,730,l),
(561,730,l),
(158,327,l)
);
},
{
closed = 1;
nodes = (
(710,0,l),
(382,430,l),
(281,397,l),
(582,0,l)
);
}
);
width = 721;
},
{
layerId = m003;
metricRight = "=H*.08";
name = Black;
shapes = (
{
closed = 1;
nodes = (
(260,0,l),
(260,0,l),
(260,0,l),
(260,0,l),
(260,0,l),
(260,730,l),
(60,730,l),
(60,0,l)
);
},
{
closed = 1;
nodes = (
(204,109,l),
(359,299,l),
(394,281,l),
(760,730,l),
(524,730,l),
(215,345,l)
);
},
{
closed = 1;
nodes = (
(760,0,l),
(479,428,l),
(297,372,l),
(536,0,l)
);
}
);
width = 765;
},
{
layerId = m004;
metricRight = "=H*.2";
shapes = (
{
closed = 1;
nodes = (
(117,0,l),
(117,0,l),
(117,0,l),
(117,0,l),
(116,0,l),
(116,730,l),
(96,730,l),
(96,0,l)
);
},
{
closed = 1;
nodes = (
(107,280,l),
(267,419,l),
(267,419,l),
(626,730,l),
(596,730,l),
(104,304,l)
);
},
{
closed = 1;
nodes = (
(636,0,l),
(276,432,l),
(256,425,l),
(610,0,l)
);
}
);
width = 655;
},
{
background = {
shapes = (
{
closed = 0;
nodes = (
(188,363,l),
(539,730,l)
);
},
{
closed = 0;
nodes = (
(552,0,l),
(240,430,l)
);
},
{
closed = 0;
nodes = (
(253,418,l),
(552,0,l)
);
}
);
};
layerId = m005;
metricRight = "=H*.14";
shapes = (
{
closed = 1;
nodes = (
(188,0,l),
(188,0,l),
(188,0,l),
(188,0,l),
(188,0,l),
(188,730,l),
(78,730,l),
(78,0,l)
);
},
{
closed = 1;
nodes = (
(174,207,l),
(322,363,l),
(322,363,l),
(673,730,l),
(539,730,l),
(155,322,l)
);
},
{
closed = 1;
nodes = (
(678,0,l),
(366,430,l),
(268,397,l),
(552,0,l)
);
}
);
width = 689;
},
{
layerId = m006;
metricRight = "=H*.08";
shapes = (
{
closed = 1;
nodes = (
(260,0,l),
(260,0,l),
(260,0,l),
(260,0,l),
(260,0,l),
(260,730,l),
(60,730,l),
(60,0,l)
);
},
{
closed = 1;
nodes = (
(196,109,l),
(342,299,l),
(375,281,l),
(720,730,l),
(488,730,l),
(197,345,l)
);
},
{
closed = 1;
nodes = (
(720,0,l),
(455,428,l),
(239,428,l),
(498,0,l)
);
}
);
width = 725;
},
{
associatedMasterId = m004;
attr = {
axisRules = (
{
},
{
max = 200;
min = 150;
}
);
};
layerId = "B8E29D4C-2441-4074-9332-6E1F24C41620";
metricRight = "=H*.2";
name = "Jul 10, 26 at 15:58";
shapes = (
{
closed = 1;
nodes = (
(116,0,l),
(116,367,l),
(118,367,l),
(118,393,l),
(116,393,l),
(116,730,l),
(96,730,l),
(96,0,l)
);
},
{
closed = 1;
nodes = (
(119,369,l),
(119,369,l),
(119,369,l),
(626,730,l),
(592,730,l),
(107,385,l)
);
},
{
closed = 1;
nodes = (
(636,0,l),
(125,387,l),
(113,371,l),
(603,0,l)
);
}
);
width = 655;
},
{
associatedMasterId = m005;
attr = {
axisRules = (
{
},
{
max = 200;
min = 150;
}
);
};
layerId = "43C03848-BBFF-43DE-98CC-4D802CB9260B";
metricRight = "=H*.14";
name = "Jul 10, 26 at 15:58";
shapes = (
{
closed = 1;
nodes = (
(188,0,l),
(188,349,l),
(190,349,l),
(190,407,l),
(188,407,l),
(188,730,l),
(78,730,l),
(78,0,l)
);
},
{
closed = 1;
nodes = (
(281,355,l),
(281,355,l),
(281,355,l),
(668,730,l),
(532,730,l),
(148,367,l)
);
},
{
closed = 1;
nodes = (
(678,0,l),
(275,406,l),
(156,383,l),
(540,0,l)
);
}
);
width = 689;
},
{
associatedMasterId = m006;
attr = {
axisRules = (
{
},
{
max = 200;
min = 150;
}
);
};
layerId = "9549DA35-4F92-4A70-AEF1-B09FC05E8424";
metricRight = "=H*.08";
name = "Jul 10, 26 at 15:58";
shapes = (
{
closed = 1;
nodes = (
(260,0,l),
(260,316,l),
(262,316,l),
(262,437,l),
(260,437,l),
(260,730,l),
(60,730,l),
(60,0,l)
);
},
{
closed = 1;
nodes = (
(420,336,l),
(420,336,l),
(420,336,l),
(710,730,l),
(476,730,l),
(201,354,l)
);
},
{
closed = 1;
nodes = (
(720,0,l),
(414,427,l),
(211,389,l),
(484,0,l)
);
}
);
width = 725;
},
{
associatedMasterId = m01;
attr = {
axisRules = (
{
},
{
max = 200;
min = 150;
}
);
};
layerId = "AC9DE949-1E06-4CCB-A89D-960AB06B399E";
metricRight = "=H*.2";
name = "Jul 10, 26 at 15:58";
shapes = (
{
closed = 1;
nodes = (
(120,0,l),
(120,368,l),
(122,368,l),
(122,391,l),
(120,391,l),
(120,730,l),
(100,730,l),
(100,0,l)
);
},
{
closed = 1;
nodes = (
(131,374,l),
(131,374,l),
(131,374,l),
(650,730,l),
(614,730,l),
(105,379,l)
);
},
{
closed = 1;
nodes = (
(660,0,l),
(134,384,l),
(111,376,l),
(624,0,l)
);
}
);
width = 680;
},
{
associatedMasterId = m002;
attr = {
axisRules = (
{
},
{
max = 200;
min = 150;
}
);
};
background = {
shapes = (
{
closed = 1;
nodes = (
(190,0,l),
(190,355,l),
(192,355,l),
(192,400,l),
(190,400,l),
(190,730,l),
(80,730,l),
(80,0,l)
);
},
{
closed = 1;
nodes = (
(287,355,l),
(287,355,l),
(287,355,l),
(700,730,l),
(563,730,l),
(162,367,l)
);
},
{
closed = 1;
nodes = (
(710,0,l),
(285,406,l),
(169,383,l),
(570,0,l)
);
}
);
};
layerId = "FF5E09C4-5BBD-41FD-82C0-05779ECA5727";
metricRight = "=H*.14";
name = "Jul 10, 26 at 15:58";
shapes = (
{
closed = 1;
nodes = (
(190,0,l),
(190,359,l),
(192,359,l),
(192,397,l),
(190,397,l),
(190,730,l),
(80,730,l),
(80,0,l)
);
},
{
closed = 1;
nodes = (
(293,355,l),
(293,355,l),
(293,355,l),
(700,730,l),
(562,730,l),
(159,367,l)
);
},
{
closed = 1;
nodes = (
(710,0,l),
(287,406,l),
(167,383,l),
(570,0,l)
);
}
);
width = 721;
},
{
associatedMasterId = m003;
attr = {
axisRules = (
{
},
{
max = 200;
min = 150;
}
);
};
layerId = "AE8C7E91-F7D5-430A-89E3-254FC29B20F6";
metricRight = "=H*.08";
name = "Jul 10, 26 at 15:58";
shapes = (
{
closed = 1;
nodes = (
(260,0,l),
(260,342,l),
(262,342,l),
(262,409,l),
(260,409,l),
(260,730,l),
(60,730,l),
(60,0,l)
);
},
{
closed = 1;
nodes = (
(442,336,l),
(442,336,l),
(442,336,l),
(750,730,l),
(512,730,l),
(219,354,l)
);
},
{
closed = 1;
nodes = (
(760,0,l),
(435,427,l),
(227,389,l),
(516,0,l)
);
}
);
width = 765;
}
);
metricLeft = "=H";
metricRight = "=H*.3";
unicode = 75;
},
{
glyphname = L;
kernLeft = I;
kernRight = L;
lastChange = "2026-07-10 08:21:10 +0000";
layers = (
{
layerId = m01;
shapes = (
{
closed = 1;
nodes = (
(480,0,l),
(480,20,l),
(120,20,l),
(120,730,l),
(100,730,l),
(100,0,l)
);
}
);
width = 520;
},
{
layerId = m002;
shapes = (
{
closed = 1;
nodes = (
(510,0,l),
(510,100,l),
(194,100,l),
(194,730,l),
(80,730,l),
(80,0,l)
);
}
);
width = 542;
},
{
layerId = m003;
shapes = (
{
closed = 1;
nodes = (
(540,0,l),
(540,180,l),
(268,180,l),
(268,730,l),
(60,730,l),
(60,0,l)
);
}
);
width = 564;
},
{
layerId = m004;
shapes = (
{
closed = 1;
nodes = (
(536,0,l),
(536,20,l),
(116,20,l),
(116,730,l),
(96,730,l),
(96,0,l)
);
}
);
width = 574;
},
{
layerId = m005;
shapes = (
{
closed = 1;
nodes = (
(558,0,l),
(558,100,l),
(192,100,l),
(192,730,l),
(78,730,l),
(78,0,l)
);
}
);
width = 589;
},
{
layerId = m006;
shapes = (
{
closed = 1;
nodes = (
(580,0,l),
(580,180,l),
(268,180,l),
(268,730,l),
(60,730,l),
(60,0,l)
);
}
);
width = 604;
}
);
metricLeft = "=H";
metricRight = "=H*.4";
unicode = 76;
},
{
glyphname = M;
kernLeft = H;
kernRight = H;
lastChange = "2026-07-10 08:21:13 +0000";
layers = (
{
layerId = m01;
shapes = (
{
closed = 1;
nodes = (
(120,0,l),
(120,649,l),
(120,709,l),
(122,709,l),
(454,155,l),
(486,155,l),
(818,709,l),
(820,709,l),
(820,649,l),
(820,0,l),
(840,0,l),
(840,730,l),
(804,730,l),
(471,174,l),
(469,174,l),
(136,730,l),
(100,730,l),
(100,0,l)
);
}
);
width = 940;
},
{
layerId = m002;
shapes = (
{
closed = 1;
nodes = (
(190,0,l),
(190,485,l),
(188,565,l),
(190,565,l),
(417,155,l),
(523,155,l),
(750,565,l),
(752,565,l),
(750,485,l),
(750,0,l),
(860,0,l),
(860,730,l),
(714,730,l),
(471,291,l),
(469,291,l),
(226,730,l),
(80,730,l),
(80,0,l)
);
}
);
width = 940;
},
{
layerId = m004;
shapes = (
{
closed = 1;
nodes = (
(116,0,l),
(116,649,l),
(116,709,l),
(118,709,l),
(394,155,l),
(418,155,l),
(694,709,l),
(696,709,l),
(696,649,l),
(696,0,l),
(716,0,l),
(716,730,l),
(684,730,l),
(407,174,l),
(405,174,l),
(128,730,l),
(96,730,l),
(96,0,l)
);
}
);
width = 812;
},
{
layerId = m005;
shapes = (
{
closed = 1;
nodes = (
(188,0,l),
(188,485,l),
(186,565,l),
(188,565,l),
(370,155,l),
(476,155,l),
(658,565,l),
(660,565,l),
(658,485,l),
(658,0,l),
(768,0,l),
(768,730,l),
(610,730,l),
(424,310,l),
(422,310,l),
(236,730,l),
(78,730,l),
(78,0,l)
);
}
);
width = 846;
},
{
layerId = m006;
shapes = (
{
closed = 1;
nodes = (
(260,0,l),
(260,320,l),
(258,420,l),
(260,420,l),
(350,155,l),
(530,155,l),
(620,420,l),
(622,420,l),
(620,320,l),
(620,0,l),
(820,0,l),
(820,730,l),
(560,730,l),
(441,380,l),
(439,380,l),
(320,730,l),
(60,730,l),
(60,0,l)
);
}
);
width = 880;
},
{
layerId = m003;
name = Black;
shapes = (
{
closed = 1;
nodes = (
(260,0,l),
(260,320,l),
(258,420,l),
(260,420,l),
(380,155,l),
(560,155,l),
(680,420,l),
(682,420,l),
(680,320,l),
(680,0,l),
(880,0,l),
(880,730,l),
(624,730,l),
(471,390,l),
(469,390,l),
(316,730,l),
(60,730,l),
(60,0,l)
);
}
);
width = 940;
}
);
metricLeft = "=H";
metricRight = "=|";
unicode = 77;
},
{
glyphname = N;
kernLeft = H;
kernRight = H;
lastChange = "2026-07-10 08:21:15 +0000";
layers = (
{
layerId = m01;
shapes = (
{
closed = 1;
nodes = (
(120,0,l),
(120,627,l),
(120,707,l),
(122,707,l),
(630,0,l),
(660,0,l),
(660,730,l),
(640,730,l),
(640,103,l),
(640,23,l),
(638,23,l),
(130,730,l),
(100,730,l),
(100,0,l)
);
}
);
width = 760;
},
{
layerId = m002;
shapes = (
{
closed = 1;
nodes = (
(190,0,l),
(190,463,l),
(188,553,l),
(190,553,l),
(570,0,l),
(690,0,l),
(690,730,l),
(580,730,l),
(580,267,l),
(582,177,l),
(580,177,l),
(200,730,l),
(80,730,l),
(80,0,l)
);
}
);
width = 770;
},
{
layerId = m003;
shapes = (
{
closed = 1;
nodes = (
(260,0,l),
(260,314,l),
(258,414,l),
(260,414,l),
(500,0,l),
(720,0,l),
(720,730,l),
(520,730,l),
(520,416,l),
(522,316,l),
(520,316,l),
(280,730,l),
(60,730,l),
(60,0,l)
);
}
);
width = 780;
},
{
layerId = m004;
shapes = (
{
closed = 1;
nodes = (
(116,0,l),
(116,625,l),
(116,705,l),
(118,705,l),
(546,0,l),
(576,0,l),
(576,730,l),
(556,730,l),
(556,105,l),
(556,25,l),
(554,25,l),
(126,730,l),
(96,730,l),
(96,0,l)
);
}
);
width = 672;
},
{
layerId = m005;
shapes = (
{
closed = 1;
nodes = (
(188,0,l),
(188,450,l),
(186,540,l),
(188,540,l),
(498,0,l),
(618,0,l),
(618,730,l),
(508,730,l),
(508,280,l),
(510,190,l),
(508,190,l),
(198,730,l),
(78,730,l),
(78,0,l)
);
}
);
width = 696;
},
{
layerId = m006;
shapes = (
{
closed = 1;
nodes = (
(260,0,l),
(260,280,l),
(258,380,l),
(260,380,l),
(450,0,l),
(660,0,l),
(660,730,l),
(460,730,l),
(460,450,l),
(462,350,l),
(460,350,l),
(270,730,l),
(60,730,l),
(60,0,l)
);
}
);
width = 720;
}
);
metricLeft = "=H";
metricRight = "=|";
unicode = 78;
},
{
glyphname = O;
kernLeft = O;
kernRight = O;
lastChange = "2026-07-10 08:24:52 +0000";
layers = (
{
layerId = m01;
shapes = (
{
closed = 1;
nodes = (
(677,-20,o),
(840,141,o),
(840,365,cs),
(840,589,o),
(677,750,o),
(450,750,cs),
(223,750,o),
(60,589,o),
(60,365,cs),
(60,141,o),
(223,-20,o),
(450,-20,cs)
);
},
{
closed = 1;
nodes = (
(234,0,o),
(80,152,o),
(80,365,cs),
(80,578,o),
(234,730,o),
(450,730,cs),
(666,730,o),
(820,578,o),
(820,365,cs),
(820,152,o),
(666,0,o),
(450,0,cs)
);
}
);
width = 900;
},
{
layerId = m002;
shapes = (
{
closed = 1;
nodes = (
(673,-20,o),
(838,141,o),
(838,365,cs),
(838,589,o),
(673,750,o),
(443,750,cs),
(213,750,o),
(48,589,o),
(48,365,cs),
(48,141,o),
(213,-20,o),
(443,-20,cs)
);
},
{
closed = 1;
nodes = (
(278,85,o),
(162,201,o),
(162,365,cs),
(162,529,o),
(278,645,o),
(443,645,cs),
(608,645,o),
(724,529,o),
(724,365,cs),
(724,201,o),
(608,85,o),
(443,85,cs)
);
}
);
width = 886;
},
{
layerId = m003;
shapes = (
{
closed = 1;
nodes = (
(669,-20,o),
(836,141,o),
(836,365,cs),
(836,589,o),
(669,750,o),
(436,750,cs),
(203,750,o),
(36,589,o),
(36,365,cs),
(36,141,o),
(203,-20,o),
(436,-20,cs)
);
},
{
closed = 1;
nodes = (
(323,170,o),
(244,250,o),
(244,365,cs),
(244,480,o),
(323,560,o),
(436,560,cs),
(549,560,o),
(628,480,o),
(628,365,cs),
(628,250,o),
(549,170,o),
(436,170,cs)
);
}
);
width = 872;
},
{
layerId = m005;
shapes = (
{
closed = 1;
nodes = (
(633,-20,o),
(777,133,o),
(777,365,cs),
(777,598,o),
(633,750,o),
(412,750,cs),
(192,750,o),
(47,598,o),
(47,365,cs),
(47,133,o),
(192,-20,o),
(412,-20,cs)
);
},
{
closed = 1;
nodes = (
(257,85,o),
(161,192,o),
(161,365,cs),
(161,538,o),
(257,645,o),
(412,645,cs),
(567,645,o),
(663,538,o),
(663,365,cs),
(663,192,o),
(567,85,o),
(412,85,cs)
);
}
);
width = 824;
},
{
layerId = m006;
name = "Black F2";
shapes = (
{
closed = 1;
nodes = (
(642,-20,o),
(796,136,o),
(796,365,cs),
(796,594,o),
(642,750,o),
(416,750,cs),
(190,750,o),
(36,594,o),
(36,365,cs),
(36,136,o),
(190,-20,o),
(416,-20,cs)
);
},
{
closed = 1;
nodes = (
(310,170,o),
(244,245,o),
(244,365,cs),
(244,485,o),
(310,560,o),
(416,560,cs),
(522,560,o),
(588,485,o),
(588,365,cs),
(588,245,o),
(522,170,o),
(416,170,cs)
);
}
);
width = 832;
},
{
layerId = m004;
name = "Thin F2";
shapes = (
{
closed = 1;
nodes = (
(623,-20,o),
(758,129,o),
(758,365,cs),
(758,601,o),
(623,750,o),
(408,750,cs),
(193,750,o),
(58,601,o),
(58,365,cs),
(58,129,o),
(193,-20,o),
(408,-20,cs)
);
},
{
closed = 1;
nodes = (
(204,0,o),
(78,139,o),
(78,365,cs),
(78,591,o),
(204,730,o),
(408,730,cs),
(612,730,o),
(738,591,o),
(738,365,cs),
(738,139,o),
(612,0,o),
(408,0,cs)
);
}
);
width = 816;
}
);
metricLeft = "=H*.6";
metricRight = "=|";
unicode = 79;
},
{
glyphname = P;
kernLeft = H;
kernRight = P;
lastChange = "2026-07-10 08:21:19 +0000";
layers = (
{
layerId = m01;
shapes = (
{
closed = 1;
nodes = (
(120,0,l),
(120,715,l),
(102,706,l),
(213,717,o),
(252,720,o),
(299,720,cs),
(513,720,o),
(600,661,o),
(600,525,cs),
(600,389,o),
(513,330,o),
(299,330,cs),
(252,330,o),
(206,333,o),
(112,343,c),
(110,323,l),
(204,313,o),
(251,310,o),
(299,310,cs),
(522,310,o),
(620,376,o),
(620,525,cs),
(620,674,o),
(522,740,o),
(299,740,cs),
(251,740,o),
(211,737,o),
(100,726,c),
(100,0,l)
);
}
);
width = 660;
},
{
layerId = m002;
shapes = (
{
closed = 1;
nodes = (
(190,0,l),
(190,688,l),
(140,630,l),
(228,639,o),
(277,642,o),
(319,642,cs),
(472,642,o),
(535,601,o),
(535,501,cs),
(535,401,o),
(472,360,o),
(319,360,cs),
(277,360,o),
(228,363,o),
(140,372,c),
(140,272,l),
(217,264,o),
(260,262,o),
(298,262,cs),
(536,262,o),
(650,340,o),
(650,501,cs),
(650,662,o),
(536,740,o),
(298,740,cs),
(238,740,o),
(162,735,o),
(80,726,c),
(80,0,l)
);
}
);
width = 682;
},
{
layerId = m003;
shapes = (
{
closed = 1;
nodes = (
(260,0,l),
(260,660,l),
(170,554,l),
(240,560,o),
(300,564,o),
(339,564,cs),
(434,564,o),
(470,540,o),
(470,477,cs),
(470,414,o),
(434,390,o),
(339,390,cs),
(300,390,o),
(240,394,o),
(170,400,c),
(170,220,l),
(220,216,o),
(259,214,o),
(297,214,cs),
(550,214,o),
(680,303,o),
(680,477,cs),
(680,650,o),
(549,740,o),
(297,740,cs),
(231,740,o),
(125,734,o),
(60,726,c),
(60,0,l)
);
}
);
width = 704;
},
{
layerId = m004;
shapes = (
{
closed = 1;
nodes = (
(116,0,l),
(116,715,l),
(98,706,l),
(196,717,o),
(231,720,o),
(272,720,cs),
(459,720,o),
(536,661,o),
(536,525,cs),
(536,389,o),
(459,330,o),
(272,330,cs),
(231,330,o),
(190,333,o),
(107,343,c),
(105,323,l),
(188,313,o),
(230,310,o),
(272,310,cs),
(469,310,o),
(556,376,o),
(556,525,cs),
(556,674,o),
(469,740,o),
(272,740,cs),
(230,740,o),
(194,737,o),
(96,726,c),
(96,0,l)
);
}
);
width = 594;
},
{
layerId = m005;
shapes = (
{
closed = 1;
nodes = (
(189,0,l),
(189,688,l),
(131,630,l),
(212,639,o),
(257,642,o),
(293,642,cs),
(429,642,o),
(484,601,o),
(484,499,cs),
(484,398,o),
(427,355,o),
(293,355,cs),
(257,355,o),
(218,358,o),
(135,367,c),
(134,267,l),
(200,260,o),
(234,257,o),
(277,257,cs),
(495,257,o),
(598,335,o),
(598,499,cs),
(598,662,o),
(495,740,o),
(277,740,cs),
(222,740,o),
(154,735,o),
(78,726,c),
(78,0,l)
);
}
);
width = 629;
},
{
layerId = m006;
shapes = (
{
closed = 1;
nodes = (
(262,0,l),
(262,660,l),
(163,554,l),
(220,560,o),
(279,564,o),
(314,564,cs),
(401,564,o),
(432,540,o),
(432,472,cs),
(432,404,o),
(401,380,o),
(314,380,cs),
(279,380,o),
(220,384,o),
(163,390,c),
(163,210,l),
(219,205,o),
(255,204,o),
(281,204,cs),
(523,204,o),
(640,292,o),
(640,472,cs),
(640,652,o),
(523,740,o),
(281,740,cs),
(213,740,o),
(110,733,o),
(60,726,c),
(60,0,l)
);
}
);
width = 664;
},
{
associatedMasterId = m006;
attr = {
axisRules = (
{
},
{
max = 150;
min = 100;
}
);
};
layerId = "C2F37F2E-F1FA-4B5A-A169-3627F8CF03A4";
name = "Jun 15, 26 at 11:41";
shapes = (
{
closed = 1;
nodes = (
(262,0,l),
(262,660,l),
(163,554,l),
(220,554,o),
(279,554,o),
(314,554,cs),
(401,554,o),
(432,531,o),
(432,467,cs),
(432,403,o),
(401,380,o),
(314,380,cs),
(279,380,o),
(220,380,o),
(163,380,c),
(163,204,l),
(219,204,o),
(254,204,o),
(280,204,cs),
(527,204,o),
(640,286,o),
(640,467,cs),
(640,648,o),
(528,730,o),
(281,730,cs),
(213,730,o),
(110,730,o),
(60,730,c),
(60,0,l)
);
}
);
width = 664;
},
{
associatedMasterId = m004;
attr = {
axisRules = (
{
},
{
max = 150;
min = 100;
}
);
};
layerId = "190FF0EF-8281-4F64-A8C5-C406AC696CA8";
name = "Jun 15, 26 at 11:44";
shapes = (
{
closed = 1;
nodes = (
(116,0,l),
(116,720,l),
(106,710,l),
(204,710,o),
(230,710,o),
(272,710,cs),
(460,710,o),
(536,653,o),
(536,520,cs),
(536,387,o),
(460,330,o),
(272,330,cs),
(230,330,o),
(189,330,o),
(106,330,c),
(106,310,l),
(189,310,o),
(230,310,o),
(272,310,cs),
(469,310,o),
(556,374,o),
(556,520,cs),
(556,666,o),
(469,730,o),
(272,730,cs),
(230,730,o),
(194,730,o),
(96,730,c),
(96,0,l)
);
}
);
width = 594;
},
{
associatedMasterId = m005;
attr = {
axisRules = (
{
},
{
max = 150;
min = 100;
}
);
};
layerId = "4B8B41D0-6C23-456E-9863-169414F35D9E";
name = "Jun 15, 26 at 11:47";
shapes = (
{
closed = 1;
nodes = (
(189,0,l),
(189,690,l),
(135,632,l),
(212,632,o),
(255,632,o),
(293,632,cs),
(430,632,o),
(484,593,o),
(484,494,cs),
(484,395,o),
(430,356,o),
(293,356,cs),
(255,356,o),
(205,356,o),
(135,356,c),
(135,258,l),
(204,258,o),
(243,258,o),
(277,258,cs),
(499,258,o),
(598,331,o),
(598,494,cs),
(598,657,o),
(499,730,o),
(277,730,cs),
(222,730,o),
(152,730,o),
(78,730,c),
(78,0,l)
);
}
);
width = 629;
},
{
associatedMasterId = m01;
attr = {
axisRules = (
{
},
{
max = 150;
min = 100;
}
);
};
layerId = "3C33BAB6-008D-44BB-ABF1-03F02741D686";
name = "Jun 15, 26 at 21:01";
shapes = (
{
closed = 1;
nodes = (
(120,0,l),
(120,720,l),
(110,710,l),
(204,710,o),
(228,710,o),
(268,710,cs),
(448,710,o),
(520,656,o),
(520,530,cs),
(520,404,o),
(448,350,o),
(268,350,cs),
(228,350,o),
(189,350,o),
(110,350,c),
(110,330,l),
(189,330,o),
(228,330,o),
(268,330,cs),
(457,330,o),
(540,391,o),
(540,530,cs),
(540,669,o),
(457,730,o),
(268,730,cs),
(228,730,o),
(194,730,o),
(100,730,c),
(100,0,l)
);
}
);
width = 580;
},
{
associatedMasterId = m002;
attr = {
axisRules = (
{
},
{
max = 150;
min = 100;
}
);
};
layerId = "312D0A1D-0B74-4630-8A3F-2145FEFC06CA";
name = "Jun 15, 26 at 21:01";
shapes = (
{
closed = 1;
nodes = (
(191,0,l),
(191,690,l),
(133,632,l),
(205,632,o),
(243,632,o),
(279,632,cs),
(406,632,o),
(456,595,o),
(456,501,cs),
(456,407,o),
(406,370,o),
(279,370,cs),
(243,370,o),
(198,370,o),
(133,370,c),
(133,272,l),
(199,272,o),
(235,272,o),
(267,272,cs),
(477,272,o),
(570,342,o),
(570,501,cs),
(570,660,o),
(477,730,o),
(267,730,cs),
(215,730,o),
(151,730,o),
(80,730,c),
(80,0,l)
);
}
);
width = 602;
},
{
associatedMasterId = m003;
attr = {
axisRules = (
{
},
{
max = 150;
min = 100;
}
);
};
layerId = "6207D0E1-E8E0-49F7-8968-0B272C5B9462";
name = "Jun 15, 26 at 21:02";
shapes = (
{
closed = 1;
nodes = (
(262,0,l),
(262,660,l),
(156,554,l),
(206,554,o),
(258,554,o),
(289,554,cs),
(365,554,o),
(392,532,o),
(392,472,cs),
(392,412,o),
(365,390,o),
(289,390,cs),
(258,390,o),
(206,390,o),
(156,390,c),
(156,214,l),
(209,214,o),
(241,214,o),
(266,214,cs),
(496,214,o),
(600,294,o),
(600,472,cs),
(600,650,o),
(496,730,o),
(266,730,cs),
(202,730,o),
(107,730,o),
(60,730,c),
(60,0,l)
);
}
);
width = 624;
}
);
metricLeft = "=H";
metricRight = "=H*.4";
unicode = 80;
},
{
glyphname = Q;
kernLeft = O;
kernRight = O;
lastChange = "2026-07-10 08:21:21 +0000";
layers = (
{
layerId = m01;
shapes = (
{
closed = 1;
nodes = (
(588,-20,o),
(701,-68,o),
(770,-160,c),
(786,-148,l),
(731,-75,o),
(647,-27,o),
(544,-9,c),
(544,-7,l),
(715,34,o),
(830,178,o),
(830,365,cs),
(830,589,o),
(667,750,o),
(440,750,cs),
(213,750,o),
(50,589,o),
(50,365,cs),
(50,141,o),
(213,-20,o),
(440,-20,cs)
);
},
{
closed = 1;
nodes = (
(224,0,o),
(70,152,o),
(70,365,cs),
(70,578,o),
(224,730,o),
(440,730,cs),
(656,730,o),
(810,578,o),
(810,365,cs),
(810,152,o),
(656,0,o),
(440,0,cs)
);
}
);
width = 880;
},
{
layerId = m002;
shapes = (
{
closed = 1;
nodes = (
(567,-20,o),
(645,-57,o),
(715,-160,c),
(803,-90,l),
(761,-36,o),
(708,3,o),
(640,29,c),
(640,31,l),
(757,95,o),
(830,216,o),
(830,365,cs),
(830,589,o),
(665,750,o),
(435,750,cs),
(205,750,o),
(40,589,o),
(40,365,cs),
(40,141,o),
(205,-20,o),
(435,-20,cs)
);
},
{
closed = 1;
nodes = (
(269,85,o),
(152,201,o),
(152,365,cs),
(152,529,o),
(269,645,o),
(435,645,cs),
(601,645,o),
(718,529,o),
(718,365,cs),
(718,201,o),
(601,85,o),
(435,85,cs)
);
}
);
width = 870;
},
{
layerId = m003;
shapes = (
{
closed = 1;
nodes = (
(546,-20,o),
(589,-46,o),
(660,-160,c),
(820,-50,l),
(782,0,o),
(738,37,o),
(687,62,c),
(687,64,l),
(779,135,o),
(830,242,o),
(830,365,cs),
(830,589,o),
(663,750,o),
(430,750,cs),
(197,750,o),
(30,589,o),
(30,365,cs),
(30,141,o),
(197,-20,o),
(430,-20,cs)
);
},
{
closed = 1;
nodes = (
(316,170,o),
(236,250,o),
(236,365,cs),
(236,480,o),
(316,560,o),
(430,560,cs),
(544,560,o),
(624,480,o),
(624,365,cs),
(624,250,o),
(544,170,o),
(430,170,cs)
);
}
);
width = 860;
},
{
layerId = m004;
shapes = (
{
closed = 1;
nodes = (
(534,-20,o),
(659,-74,o),
(722,-160,c),
(738,-148,l),
(683,-76,o),
(598,-28,o),
(494,-10,c),
(494,-8,l),
(652,30,o),
(748,167,o),
(748,365,cs),
(748,601,o),
(613,750,o),
(398,750,cs),
(183,750,o),
(48,601,o),
(48,365,cs),
(48,129,o),
(183,-20,o),
(398,-20,cs)
);
},
{
closed = 1;
nodes = (
(194,0,o),
(68,139,o),
(68,365,cs),
(68,591,o),
(194,730,o),
(398,730,cs),
(602,730,o),
(728,591,o),
(728,365,cs),
(728,139,o),
(602,0,o),
(398,0,cs)
);
}
);
width = 796;
},
{
layerId = m005;
shapes = (
{
closed = 1;
nodes = (
(533,-20,o),
(609,-59,o),
(676,-160,c),
(764,-90,l),
(720,-35,o),
(667,3,o),
(599,29,c),
(599,31,l),
(706,93,o),
(769,212,o),
(769,365,cs),
(769,598,o),
(625,750,o),
(404,750,cs),
(184,750,o),
(39,598,o),
(39,365,cs),
(39,133,o),
(184,-20,o),
(404,-20,cs)
);
},
{
closed = 1;
nodes = (
(249,85,o),
(153,192,o),
(153,365,cs),
(153,538,o),
(249,645,o),
(404,645,cs),
(559,645,o),
(655,538,o),
(655,365,cs),
(655,192,o),
(559,85,o),
(404,85,cs)
);
}
);
width = 808;
},
{
layerId = m006;
shapes = (
{
closed = 1;
nodes = (
(522,-20,o),
(563,-46,o),
(631,-160,c),
(790,-50,l),
(757,-4,o),
(709,35,o),
(655,60,c),
(655,62,l),
(740,129,o),
(790,235,o),
(790,365,cs),
(790,594,o),
(636,750,o),
(410,750,cs),
(184,750,o),
(30,594,o),
(30,365,cs),
(30,136,o),
(184,-20,o),
(410,-20,cs)
);
},
{
closed = 1;
nodes = (
(304,170,o),
(238,245,o),
(238,365,cs),
(238,485,o),
(304,560,o),
(410,560,cs),
(516,560,o),
(582,485,o),
(582,365,cs),
(582,245,o),
(516,170,o),
(410,170,cs)
);
}
);
width = 820;
}
);
metricLeft = "=H*.5";
metricRight = "=|";
unicode = 81;
},
{
glyphname = R;
kernLeft = H;
kernRight = R;
lastChange = "2026-07-10 08:21:23 +0000";
layers = (
{
layerId = m002;
metricRight = "=H*.3";
shapes = (
{
closed = 1;
nodes = (
(190,0,l),
(190,688,l),
(139,630,l),
(202,638,o),
(259,642,o),
(307,642,cs),
(450,642,o),
(510,605,o),
(510,516,cs),
(510,427,o),
(450,390,o),
(307,390,cs),
(273,390,o),
(245,392,o),
(139,402,c),
(139,306,l),
(215,298,o),
(251,296,o),
(288,296,cs),
(515,296,o),
(625,369,o),
(625,518,cs),
(625,667,o),
(515,740,o),
(288,740,cs),
(235,740,o),
(165,736,o),
(80,726,c),
(80,0,l)
);
},
{
closed = 1;
nodes = (
(660,0,l),
(286,353,l),
(153,353,l),
(520,0,l)
);
}
);
width = 684;
},
{
layerId = m003;
metricRight = "=H*.2";
shapes = (
{
closed = 1;
nodes = (
(260,0,l),
(260,660,l),
(170,570,l),
(215,575,o),
(292,580,o),
(325,580,cs),
(399,580,o),
(440,548,o),
(440,489,cs),
(440,430,o),
(399,398,o),
(325,398,cs),
(292,398,o),
(215,403,o),
(170,408,c),
(170,258,l),
(222,254,o),
(277,252,o),
(314,252,cs),
(544,252,o),
(650,329,o),
(650,496,cs),
(650,663,o),
(544,740,o),
(314,740,cs),
(250,740,o),
(153,734,o),
(60,726,c),
(60,0,l)
);
},
{
closed = 1;
nodes = (
(700,0,l),
(431,327,l),
(203,327,l),
(462,0,l)
);
}
);
width = 712;
},
{
layerId = m006;
metricRight = "=H*.2";
shapes = (
{
closed = 1;
nodes = (
(262,0,l),
(262,660,l),
(163,559,l),
(220,566,o),
(276,570,o),
(314,570,cs),
(401,570,o),
(432,549,o),
(432,489,cs),
(432,429,o),
(401,408,o),
(314,408,cs),
(276,408,o),
(220,412,o),
(163,419,c),
(163,250,l),
(219,245,o),
(254,244,o),
(281,244,cs),
(523,244,o),
(640,325,o),
(640,492,cs),
(640,659,o),
(523,740,o),
(281,740,cs),
(210,740,o),
(110,733,o),
(60,726,c),
(60,0,l)
);
},
{
closed = 1;
nodes = (
(660,0,l),
(461,327,l),
(253,327,l),
(440,0,l)
);
}
);
width = 672;
},
{
layerId = m004;
metricRight = "=H*.4";
name = "Thin Eve";
shapes = (
{
closed = 1;
nodes = (
(116,0,l),
(116,715,l),
(98,706,l),
(195,717,o),
(229,720,o),
(272,720,cs),
(460,720,o),
(536,666,o),
(536,540,cs),
(536,414,o),
(460,360,o),
(272,360,cs),
(229,360,o),
(188,363,o),
(107,373,c),
(105,353,l),
(186,343,o),
(228,340,o),
(272,340,cs),
(469,340,o),
(556,401,o),
(556,540,cs),
(556,679,o),
(469,740,o),
(272,740,cs),
(228,740,o),
(193,737,o),
(96,726,c),
(96,0,l)
);
},
{
closed = 1;
nodes = (
(576,0,l),
(276,351,l),
(250,351,l),
(550,0,l)
);
}
);
width = 614;
},
{
layerId = m005;
metricRight = "=H*.3";
name = "Medium Eve";
shapes = (
{
closed = 1;
nodes = (
(189,0,l),
(189,688,l),
(131,629,l),
(208,639,o),
(253,642,o),
(293,642,cs),
(430,642,o),
(484,606,o),
(484,515,cs),
(484,424,o),
(430,388,o),
(293,388,cs),
(247,388,o),
(189,392,o),
(135,399,c),
(134,302,l),
(203,294,o),
(240,292,o),
(277,292,cs),
(496,292,o),
(598,363,o),
(598,516,cs),
(598,669,o),
(496,740,o),
(277,740,cs),
(219,740,o),
(152,735,o),
(78,726,c),
(78,0,l)
);
},
{
closed = 1;
nodes = (
(618,0,l),
(369,339,l),
(247,339,l),
(494,0,l)
);
}
);
width = 641;
},
{
layerId = m01;
metricRight = "=H*.4";
name = Thin;
shapes = (
{
closed = 1;
nodes = (
(120,0,l),
(120,716,l),
(102,706,l),
(182,716,o),
(238,720,o),
(291,720,cs),
(491,720,o),
(570,666,o),
(570,540,cs),
(570,414,o),
(491,360,o),
(291,360,cs),
(238,360,o),
(186,364,o),
(110,373,c),
(108,353,l),
(184,344,o),
(237,340,o),
(291,340,cs),
(500,340,o),
(590,400,o),
(590,540,cs),
(590,680,o),
(500,740,o),
(291,740,cs),
(237,740,o),
(180,736,o),
(100,726,c),
(100,0,l)
);
},
{
closed = 1;
nodes = (
(620,0,l),
(173,355,l),
(141,355,l),
(588,0,l)
);
}
);
width = 660;
},
{
associatedMasterId = m004;
attr = {
axisRules = (
{
},
{
max = 150;
min = 100;
}
);
};
layerId = "AD341BE5-1D86-416D-BE90-BF446D902AD7";
metricRight = "=H*.3";
name = "Jun 15, 26 at 13:02";
shapes = (
{
closed = 1;
nodes = (
(116,0,l),
(116,720,l),
(106,710,l),
(214,710,o),
(243,710,o),
(292,710,cs),
(466,710,o),
(536,659,o),
(536,540,cs),
(536,421,o),
(466,370,o),
(292,370,cs),
(243,370,o),
(197,370,o),
(106,370,c),
(106,350,l),
(197,350,o),
(243,350,o),
(292,350,cs),
(475,350,o),
(556,408,o),
(556,540,cs),
(556,672,o),
(475,730,o),
(292,730,cs),
(243,730,o),
(204,730,o),
(96,730,c),
(96,0,l)
);
},
{
closed = 1;
nodes = (
(576,0,l),
(276,361,l),
(250,361,l),
(550,0,l)
);
}
);
width = 605;
},
{
associatedMasterId = m005;
attr = {
axisRules = (
{
},
{
max = 150;
min = 100;
}
);
};
layerId = "9CD70E61-86FD-46F2-9DDD-2820588FA83A";
metricRight = "=H*.2";
name = "Jun 15, 26 at 13:02";
shapes = (
{
closed = 1;
nodes = (
(189,0,l),
(189,690,l),
(135,632,l),
(217,632,o),
(260,632,o),
(303,632,cs),
(433,632,o),
(484,598,o),
(484,512,cs),
(484,426,o),
(433,392,o),
(303,392,cs),
(260,392,o),
(209,392,o),
(135,392,c),
(135,296,l),
(215,296,o),
(260,296,o),
(302,296,cs),
(504,296,o),
(598,365,o),
(598,513,cs),
(598,661,o),
(504,730,o),
(302,730,cs),
(237,730,o),
(161,730,o),
(78,730,c),
(78,0,l)
);
},
{
closed = 1;
nodes = (
(618,0,l),
(369,339,l),
(247,339,l),
(494,0,l)
);
}
);
width = 634;
},
{
associatedMasterId = m006;
attr = {
axisRules = (
{
},
{
max = 150;
min = 100;
}
);
};
layerId = "9B7AE8BE-55EB-41B3-8837-5119F823B4C2";
metricRight = "=H*.1";
name = "Jun 15, 26 at 13:02";
shapes = (
{
closed = 1;
nodes = (
(262,0,l),
(262,660,l),
(163,560,l),
(220,560,o),
(276,560,o),
(314,560,cs),
(401,560,o),
(432,540,o),
(432,484,cs),
(432,428,o),
(401,408,o),
(314,408,cs),
(276,408,o),
(220,408,o),
(163,408,c),
(163,244,l),
(233,244,o),
(277,244,o),
(311,244,cs),
(533,244,o),
(640,323,o),
(640,487,cs),
(640,651,o),
(533,730,o),
(311,730,cs),
(230,730,o),
(117,730,o),
(60,730,c),
(60,0,l)
);
},
{
closed = 1;
nodes = (
(660,0,l),
(461,327,l),
(253,327,l),
(440,0,l)
);
}
);
width = 666;
},
{
associatedMasterId = m01;
attr = {
axisRules = (
{
},
{
max = 150;
min = 100;
}
);
};
layerId = "E93DFEED-F193-4190-850B-2E94B8BF9895";
name = "Jun 15, 26 at 21:03";
shapes = (
{
closed = 1;
nodes = (
(120,0,l),
(120,720,l),
(110,710,l),
(214,710,o),
(241,710,o),
(288,710,cs),
(454,710,o),
(521,659,o),
(521,540,cs),
(521,421,o),
(454,370,o),
(288,370,cs),
(241,370,o),
(197,370,o),
(110,370,c),
(110,350,l),
(197,350,o),
(241,350,o),
(288,350,cs),
(463,350,o),
(541,408,o),
(541,540,cs),
(541,672,o),
(463,730,o),
(288,730,cs),
(241,730,o),
(204,730,o),
(100,730,c),
(100,0,l)
);
},
{
closed = 1;
nodes = (
(560,0,l),
(273,361,l),
(247,361,l),
(534,0,l)
);
}
);
width = 570;
},
{
associatedMasterId = m002;
attr = {
axisRules = (
{
},
{
max = 150;
min = 100;
}
);
};
layerId = "B2077651-A66E-46DF-A37B-806F64CE9DBA";
name = "Jun 15, 26 at 21:03";
shapes = (
{
closed = 1;
nodes = (
(191,0,l),
(191,690,l),
(135,632,l),
(214,632,o),
(254,632,o),
(295,632,cs),
(417,632,o),
(467,597,o),
(467,512,cs),
(467,427,o),
(417,392,o),
(295,392,cs),
(254,392,o),
(205,392,o),
(135,392,c),
(135,296,l),
(212,296,o),
(256,296,o),
(296,296,cs),
(490,296,o),
(581,365,o),
(581,513,cs),
(581,661,o),
(490,730,o),
(296,730,cs),
(233,730,o),
(160,730,o),
(80,730,c),
(80,0,l)
);
},
{
closed = 1;
nodes = (
(600,0,l),
(361,344,l),
(239,344,l),
(476,0,l)
);
}
);
width = 608;
},
{
associatedMasterId = m003;
attr = {
axisRules = (
{
},
{
max = 150;
min = 100;
}
);
};
layerId = "EFC19211-A3D4-408A-81A3-CD70C1F73641";
name = "Jun 15, 26 at 21:03";
shapes = (
{
closed = 1;
nodes = (
(262,0,l),
(262,660,l),
(160,560,l),
(213,560,o),
(266,560,o),
(302,560,cs),
(382,560,o),
(412,539,o),
(412,482,cs),
(412,425,o),
(382,404,o),
(302,404,cs),
(266,404,o),
(213,404,o),
(160,404,c),
(160,240,l),
(227,240,o),
(270,240,o),
(303,240,cs),
(516,240,o),
(620,320,o),
(620,485,cs),
(620,650,o),
(516,730,o),
(303,730,cs),
(224,730,o),
(115,730,o),
(60,730,c),
(60,0,l)
);
},
{
closed = 1;
nodes = (
(640,0,l),
(448,327,l),
(240,327,l),
(420,0,l)
);
}
);
width = 646;
}
);
metricLeft = "=H";
metricRight = "=H*.1";
unicode = 82;
},
{
glyphname = S;
kernLeft = S;
kernRight = S;
lastChange = "2026-07-10 08:21:25 +0000";
layers = (
{
layerId = m01;
shapes = (
{
closed = 1;
nodes = (
(442,-10,o),
(530,60,o),
(530,187,cs),
(530,433,o),
(82,338,o),
(82,568,cs),
(82,668,o),
(153,720,o),
(300,720,cs),
(382,720,o),
(450,704,o),
(505,677,c),
(514,695,l),
(457,723,o),
(385,740,o),
(300,740,cs),
(144,740,o),
(62,681,o),
(62,568,cs),
(62,318,o),
(510,417,o),
(510,187,cs),
(510,72,o),
(432,10,o),
(284,10,cs),
(207,10,o),
(130,26,o),
(68,53,c),
(60,35,l),
(124,7,o),
(205,-10,o),
(284,-10,cs)
);
}
);
width = 590;
},
{
layerId = m002;
shapes = (
{
closed = 1;
nodes = (
(466,-10,o),
(568,68,o),
(568,199,cs),
(568,455,o),
(163,374,o),
(163,544,cs),
(163,608,o),
(212,640,o),
(314,640,cs),
(390,640,o),
(467,622,o),
(524,593,c),
(550,693,l),
(489,723,o),
(409,740,o),
(318,740,cs),
(141,740,o),
(49,674,o),
(49,545,cs),
(49,280,o),
(454,366,o),
(454,199,cs),
(454,129,o),
(402,90,o),
(304,90,cs),
(225,90,o),
(134,115,o),
(74,146,c),
(48,46,l),
(112,11,o),
(205,-10,o),
(294,-10,cs)
);
}
);
width = 616;
},
{
layerId = m004;
shapes = (
{
closed = 1;
nodes = (
(440,-10,o),
(528,60,o),
(528,187,cs),
(528,433,o),
(80,338,o),
(80,568,cs),
(80,668,o),
(151,720,o),
(298,720,cs),
(380,720,o),
(448,704,o),
(503,677,c),
(512,695,l),
(455,723,o),
(383,740,o),
(298,740,cs),
(142,740,o),
(60,681,o),
(60,568,cs),
(60,318,o),
(508,417,o),
(508,187,cs),
(508,72,o),
(430,10,o),
(282,10,cs),
(205,10,o),
(128,26,o),
(66,53,c),
(58,35,l),
(122,7,o),
(203,-10,o),
(282,-10,cs)
);
}
);
width = 586;
},
{
layerId = m005;
shapes = (
{
closed = 1;
nodes = (
(465,-10,o),
(567,68,o),
(567,199,cs),
(567,455,o),
(162,374,o),
(162,544,cs),
(162,608,o),
(211,640,o),
(313,640,cs),
(389,640,o),
(466,622,o),
(523,593,c),
(549,693,l),
(488,723,o),
(408,740,o),
(317,740,cs),
(140,740,o),
(48,674,o),
(48,545,cs),
(48,280,o),
(453,366,o),
(453,199,cs),
(453,129,o),
(401,90,o),
(303,90,cs),
(224,90,o),
(133,115,o),
(73,146,c),
(47,46,l),
(111,11,o),
(204,-10,o),
(293,-10,cs)
);
}
);
width = 614;
},
{
layerId = m006;
shapes = (
{
closed = 1;
nodes = (
(500,-10,o),
(606,67,o),
(606,211,cs),
(606,468,o),
(244,414,o),
(244,520,cs),
(244,547,o),
(271,560,o),
(327,560,cs),
(397,560,o),
(482,540,o),
(541,509,c),
(585,691,l),
(521,723,o),
(432,740,o),
(336,740,cs),
(137,740,o),
(36,667,o),
(36,522,cs),
(36,256,o),
(398,312,o),
(398,210,cs),
(398,185,o),
(371,170,o),
(324,170,cs),
(254,170,o),
(138,203,o),
(80,238,c),
(36,56,l),
(99,15,o),
(194,-10,o),
(304,-10,cs)
);
}
);
width = 642;
},
{
layerId = m003;
name = "Black F1";
shapes = (
{
closed = 1;
nodes = (
(500,-10,o),
(606,67,o),
(606,211,cs),
(606,468,o),
(244,414,o),
(244,520,cs),
(244,547,o),
(271,560,o),
(327,560,cs),
(397,560,o),
(482,540,o),
(541,509,c),
(585,691,l),
(521,723,o),
(432,740,o),
(336,740,cs),
(137,740,o),
(36,667,o),
(36,522,cs),
(36,256,o),
(398,312,o),
(398,210,cs),
(398,185,o),
(371,170,o),
(324,170,cs),
(254,170,o),
(138,203,o),
(80,238,c),
(36,56,l),
(99,15,o),
(194,-10,o),
(304,-10,cs)
);
}
);
width = 642;
}
);
metricLeft = "=H*.6";
metricRight = "=|";
unicode = 83;
},
{
glyphname = T;
kernLeft = T;
kernRight = T;
lastChange = "2026-07-10 08:21:27 +0000";
layers = (
{
layerId = m01;
metricLeft = "=H*.1";
shapes = (
{
closed = 1;
nodes = (
(300,0,l),
(300,710,l),
(570,710,l),
(570,730,l),
(10,730,l),
(10,710,l),
(280,710,l),
(280,0,l)
);
}
);
width = 580;
},
{
layerId = m002;
metricLeft = "=H*.2";
shapes = (
{
closed = 1;
nodes = (
(357,0,l),
(357,630,l),
(586,630,l),
(586,730,l),
(16,730,l),
(16,630,l),
(245,630,l),
(245,0,l)
);
}
);
width = 602;
},
{
layerId = m003;
metricLeft = "=H*.3";
shapes = (
{
closed = 1;
nodes = (
(412,0,l),
(412,550,l),
(598,550,l),
(598,730,l),
(18,730,l),
(18,550,l),
(204,550,l),
(204,0,l)
);
}
);
width = 616;
},
{
layerId = m004;
metricLeft = "=H*.1";
shapes = (
{
closed = 1;
nodes = (
(300,0,l),
(300,710,l),
(570,710,l),
(570,730,l),
(10,730,l),
(10,710,l),
(280,710,l),
(280,0,l)
);
}
);
width = 580;
},
{
layerId = m005;
metricLeft = "=H*.2";
shapes = (
{
closed = 1;
nodes = (
(362,0,l),
(362,630,l),
(596,630,l),
(596,730,l),
(16,730,l),
(16,630,l),
(250,630,l),
(250,0,l)
);
}
);
width = 612;
},
{
layerId = m006;
metricLeft = "=H*.3";
shapes = (
{
closed = 1;
nodes = (
(422,0,l),
(422,550,l),
(618,550,l),
(618,730,l),
(18,730,l),
(18,550,l),
(214,550,l),
(214,0,l)
);
}
);
width = 636;
}
);
metricLeft = "=H*.1";
metricRight = "=|";
unicode = 84;
},
{
glyphname = U;
kernLeft = U;
kernRight = U;
lastChange = "2026-07-10 08:21:30 +0000";
layers = (
{
layerId = m01;
shapes = (
{
closed = 1;
nodes = (
(548,-20,o),
(635,83,o),
(635,300,cs),
(635,730,l),
(615,730,l),
(615,300,ls),
(615,93,o),
(536,0,o),
(365,0,cs),
(194,0,o),
(115,93,o),
(115,300,cs),
(115,730,l),
(95,730,l),
(95,300,ls),
(95,83,o),
(182,-20,o),
(365,-20,cs)
);
}
);
width = 730;
},
{
layerId = m002;
shapes = (
{
closed = 1;
nodes = (
(560,-20,o),
(656,88,o),
(656,305,cs),
(656,730,l),
(546,730,l),
(546,335,ls),
(556,153,o),
(505,81,o),
(366,81,cs),
(237,81,o),
(186,153,o),
(186,335,cs),
(186,730,l),
(76,730,l),
(76,305,ls),
(76,88,o),
(172,-20,o),
(366,-20,cs)
);
}
);
width = 732;
},
{
layerId = m003;
shapes = (
{
closed = 1;
nodes = (
(573,-20,o),
(677,91,o),
(677,310,cs),
(677,730,l),
(477,730,l),
(477,370,ls),
(477,209,o),
(452,162,o),
(367,162,cs),
(282,162,o),
(257,209,o),
(257,370,cs),
(257,730,l),
(57,730,l),
(57,310,ls),
(57,91,o),
(161,-20,o),
(367,-20,cs)
);
}
);
width = 734;
},
{
layerId = m004;
shapes = (
{
closed = 1;
nodes = (
(510,-20,o),
(591,84,o),
(591,300,cs),
(591,730,l),
(571,730,l),
(571,300,ls),
(571,94,o),
(497,0,o),
(341,0,cs),
(185,0,o),
(111,94,o),
(111,300,cs),
(111,730,l),
(91,730,l),
(91,300,ls),
(91,84,o),
(172,-20,o),
(341,-20,cs)
);
}
);
width = 682;
},
{
layerId = m005;
shapes = (
{
closed = 1;
nodes = (
(541,-20,o),
(634,88,o),
(634,305,cs),
(634,730,l),
(524,730,l),
(524,335,ls),
(524,153,o),
(476,81,o),
(354,81,cs),
(232,81,o),
(184,153,o),
(184,335,cs),
(184,730,l),
(74,730,l),
(74,305,ls),
(74,88,o),
(167,-20,o),
(354,-20,cs)
);
}
);
width = 708;
},
{
layerId = m006;
shapes = (
{
closed = 1;
nodes = (
(573,-20,o),
(677,91,o),
(677,310,cs),
(677,730,l),
(477,730,l),
(477,370,ls),
(477,209,o),
(452,162,o),
(367,162,cs),
(282,162,o),
(257,209,o),
(257,370,cs),
(257,730,l),
(57,730,l),
(57,310,ls),
(57,91,o),
(161,-20,o),
(367,-20,cs)
);
}
);
width = 734;
}
);
metricLeft = "=H*.95";
metricRight = "=|";
unicode = 85;
},
{
glyphname = V;
kernLeft = V;
kernRight = V;
lastChange = "2026-07-10 08:22:08 +0000";
layers = (
{
layerId = m002;
shapes = (
{
closed = 1;
nodes = (
(446,0,l),
(726,730,l),
(604,730,l),
(395,170,l),
(372,106,l),
(370,106,l),
(347,170,l),
(138,730,l),
(16,730,l),
(296,0,l)
);
}
);
width = 742;
},
{
layerId = m003;
shapes = (
{
closed = 1;
nodes = (
(517,0,l),
(772,730,l),
(554,730,l),
(422,300,l),
(393,198,l),
(391,198,l),
(362,300,l),
(230,730,l),
(12,730,l),
(267,0,l)
);
}
);
width = 784;
},
{
layerId = m004;
shapes = (
{
closed = 1;
nodes = (
(312,0,l),
(579,730,l),
(557,730,l),
(313,61,l),
(300,23,l),
(298,23,l),
(285,61,l),
(41,730,l),
(19,730,l),
(286,0,l)
);
}
);
width = 598;
},
{
layerId = m005;
shapes = (
{
closed = 1;
nodes = (
(396,0,l),
(626,730,l),
(506,730,l),
(340,180,l),
(322,117,l),
(320,117,l),
(302,180,l),
(136,730,l),
(16,730,l),
(246,0,l)
);
}
);
width = 642;
},
{
layerId = m006;
shapes = (
{
closed = 1;
nodes = (
(467,0,l),
(672,730,l),
(458,730,l),
(365,300,l),
(343,194,l),
(341,194,l),
(319,300,l),
(226,730,l),
(12,730,l),
(217,0,l)
);
}
);
width = 684;
},
{
layerId = m01;
name = "Thin F1";
shapes = (
{
closed = 1;
nodes = (
(363,0,l),
(680,730,l),
(658,730,l),
(368,61,l),
(351,20,l),
(349,20,l),
(332,61,l),
(42,730,l),
(20,730,l),
(337,0,l)
);
}
);
width = 700;
}
);
metricLeft = "=A";
metricRight = "=|";
unicode = 86;
},
{
glyphname = W;
kernLeft = V;
kernRight = V;
lastChange = "2026-07-10 08:23:00 +0000";
layers = (
{
layerId = m002;
shapes = (
{
closed = 1;
nodes = (
(339,0,l),
(490,595,l),
(492,595,l),
(643,0,l),
(779,0,l),
(966,730,l),
(850,730,l),
(727,206,l),
(710,132,l),
(708,132,l),
(690,206,l),
(559,730,l),
(559,730,l),
(559,730,l),
(423,730,l),
(423,730,l),
(423,730,l),
(292,206,l),
(274,132,l),
(272,132,l),
(255,206,l),
(132,730,l),
(16,730,l),
(203,0,l)
);
}
);
width = 982;
},
{
layerId = m004;
shapes = (
{
closed = 1;
nodes = (
(261,0,l),
(453,710,l),
(455,710,l),
(647,0,l),
(679,0,l),
(889,730,l),
(868,730,l),
(674,55,l),
(664,18,l),
(662,18,l),
(653,53,l),
(470,730,l),
(470,730,l),
(470,730,l),
(438,730,l),
(438,730,l),
(438,730,l),
(255,53,l),
(246,18,l),
(244,18,l),
(234,55,l),
(40,730,l),
(19,730,l),
(229,0,l)
);
}
);
width = 908;
},
{
layerId = m005;
shapes = (
{
closed = 1;
nodes = (
(339,0,l),
(490,595,l),
(492,595,l),
(643,0,l),
(779,0,l),
(966,730,l),
(850,730,l),
(727,206,l),
(710,132,l),
(708,132,l),
(690,206,l),
(559,730,l),
(559,730,l),
(559,730,l),
(423,730,l),
(423,730,l),
(423,730,l),
(292,206,l),
(274,132,l),
(272,132,l),
(255,206,l),
(132,730,l),
(16,730,l),
(203,0,l)
);
}
);
width = 982;
},
{
layerId = m006;
shapes = (
{
closed = 1;
nodes = (
(452,0,l),
(526,510,l),
(528,510,l),
(602,0,l),
(862,0,l),
(1042,730,l),
(828,730,l),
(753,305,l),
(738,215,l),
(736,215,l),
(724,305,l),
(667,730,l),
(667,730,l),
(667,730,l),
(387,730,l),
(387,730,l),
(387,730,l),
(330,305,l),
(318,215,l),
(316,215,l),
(301,305,l),
(226,730,l),
(12,730,l),
(192,0,l)
);
}
);
width = 1054;
},
{
layerId = m003;
name = "Black F1";
shapes = (
{
closed = 1;
nodes = (
(452,0,l),
(526,510,l),
(528,510,l),
(602,0,l),
(862,0,l),
(1042,730,l),
(828,730,l),
(753,305,l),
(738,215,l),
(736,215,l),
(724,305,l),
(667,730,l),
(667,730,l),
(667,730,l),
(387,730,l),
(387,730,l),
(387,730,l),
(330,305,l),
(318,215,l),
(316,215,l),
(301,305,l),
(226,730,l),
(12,730,l),
(192,0,l)
);
}
);
width = 1054;
},
{
layerId = m01;
name = "Thin F1";
shapes = (
{
closed = 1;
nodes = (
(262,0,l),
(454,710,l),
(456,710,l),
(648,0,l),
(680,0,l),
(890,730,l),
(869,730,l),
(675,55,l),
(665,18,l),
(663,18,l),
(654,53,l),
(471,730,l),
(471,730,l),
(471,730,l),
(439,730,l),
(439,730,l),
(439,730,l),
(256,53,l),
(247,18,l),
(245,18,l),
(235,55,l),
(41,730,l),
(20,730,l),
(230,0,l)
);
}
);
width = 910;
},
{
associatedMasterId = m004;
attr = {
axisRules = (
{
max = 400;
min = 100;
},
{
max = 200;
min = 180;
}
);
};
background = {
shapes = (
{
closed = 1;
nodes = (
(321,0,l),
(639,730,l),
(617,730,l),
(337,86,l),
(311,25,l),
(309,25,l),
(284,91,l),
(41,730,l),
(19,730,l),
(297,0,l)
);
},
{
closed = 1;
nodes = (
(661,0,l),
(939,730,l),
(917,730,l),
(674,91,l),
(649,25,l),
(647,25,l),
(621,86,l),
(341,730,l),
(319,730,l),
(637,0,l)
);
}
);
};
layerId = "E192F69A-8E5D-4218-A70D-FAE34409CC58";
name = "Jun 11, 26 at 17:53";
shapes = (
{
closed = 1;
nodes = (
(321,0,l),
(479,363,l),
(637,0,l),
(661,0,l),
(939,730,l),
(917,730,l),
(674,91,l),
(649,25,l),
(647,25,l),
(621,86,l),
(490,388,l),
(639,730,l),
(617,730,l),
(479,413,l),
(341,730,l),
(319,730,l),
(468,388,l),
(337,86,l),
(311,25,l),
(309,25,l),
(284,91,l),
(41,730,l),
(19,730,l),
(297,0,l)
);
}
);
width = 958;
},
{
associatedMasterId = m005;
attr = {
axisRules = (
{
max = 400;
min = 100;
},
{
max = 200;
min = 180;
}
);
};
background = {
shapes = (
{
closed = 1;
nodes = (
(408,0,l),
(716,730,l),
(600,730,l),
(373,192,l),
(349,132,l),
(347,132,l),
(324,198,l),
(136,730,l),
(16,730,l),
(274,0,l)
);
},
{
closed = 1;
nodes = (
(738,0,l),
(996,730,l),
(876,730,l),
(688,198,l),
(665,132,l),
(663,132,l),
(639,192,l),
(412,730,l),
(296,730,l),
(604,0,l)
);
}
);
};
layerId = "1250F801-1661-428B-A33C-769B7A1F763A";
name = "Jun 11, 26 at 17:53";
shapes = (
{
closed = 1;
nodes = (
(408,0,l),
(506,252,l),
(604,0,l),
(738,0,l),
(996,730,l),
(876,730,l),
(688,198,l),
(665,132,l),
(663,132,l),
(639,192,l),
(564,370,l),
(716,730,l),
(600,730,l),
(506,487,l),
(412,730,l),
(296,730,l),
(448,370,l),
(373,192,l),
(349,132,l),
(347,132,l),
(324,198,l),
(136,730,l),
(16,730,l),
(274,0,l)
);
}
);
width = 1012;
},
{
associatedMasterId = m01;
attr = {
axisRules = (
{
max = 400;
min = 100;
},
{
max = 200;
min = 180;
}
);
};
background = {
shapes = (
{
closed = 1;
nodes = (
(372,0,l),
(750,730,l),
(728,730,l),
(384,67,l),
(361,21,l),
(359,21,l),
(335,77,l),
(42,730,l),
(20,730,l),
(348,0,l)
);
},
{
closed = 1;
nodes = (
(772,0,l),
(1100,730,l),
(1078,730,l),
(785,77,l),
(761,21,l),
(759,21,l),
(736,67,l),
(392,730,l),
(370,730,l),
(748,0,l)
);
}
);
};
layerId = "84745874-0A59-4090-B506-B8B038283198";
name = "Thin F1 [100‹wg‹300, 150‹wd‹200] Jul 2, 26 at 12:49";
shapes = (
{
closed = 1;
nodes = (
(372,0,l),
(560,363,l),
(748,0,l),
(772,0,l),
(1100,730,l),
(1078,730,l),
(785,77,l),
(761,21,l),
(759,21,l),
(736,67,l),
(571,385,l),
(750,730,l),
(728,730,l),
(560,406,l),
(392,730,l),
(370,730,l),
(549,385,l),
(384,67,l),
(361,21,l),
(359,21,l),
(335,77,l),
(42,730,l),
(20,730,l),
(348,0,l)
);
}
);
width = 1120;
},
{
associatedMasterId = m002;
attr = {
axisRules = (
{
max = 400;
min = 100;
},
{
max = 200;
min = 180;
}
);
};
background = {
shapes = (
{
closed = 1;
nodes = (
(468,0,l),
(826,730,l),
(710,730,l),
(445,172,l),
(407,88,l),
(405,88,l),
(369,177,l),
(136,730,l),
(16,730,l),
(334,0,l)
);
},
{
closed = 1;
nodes = (
(858,0,l),
(1176,730,l),
(1056,730,l),
(823,177,l),
(787,88,l),
(785,88,l),
(747,172,l),
(482,730,l),
(366,730,l),
(724,0,l)
);
}
);
};
layerId = "995D3563-4519-49B2-A080-A616EDADFC3D";
name = "Medium F1 [100‹wg‹300, 150‹wd‹200] Jul 2, 26 at 12:56";
shapes = (
{
closed = 1;
nodes = (
(468,0,l),
(596,261,l),
(724,0,l),
(858,0,l),
(1176,730,l),
(1056,730,l),
(823,177,l),
(787,88,l),
(785,88,l),
(747,172,l),
(651,374,l),
(826,730,l),
(710,730,l),
(596,490,l),
(482,730,l),
(366,730,l),
(541,374,l),
(445,172,l),
(407,88,l),
(405,88,l),
(369,177,l),
(136,730,l),
(16,730,l),
(334,0,l)
);
}
);
width = 1192;
}
);
metricLeft = "=V";
metricRight = "=|";
unicode = 87;
},
{
glyphname = X;
kernLeft = X;
kernRight = X;
lastChange = "2026-07-10 08:22:10 +0000";
layers = (
{
background = {
shapes = (
{
closed = 0;
nodes = (
(632,730,l),
(608,730,l),
(40,0,l),
(65,0,l),
(624,718,l)
);
},
{
closed = 0;
nodes = (
(48,730,l),
(72,730,l),
(640,0,l),
(615,0,l),
(56,718,l)
);
}
);
};
layerId = m01;
metricLeft = "=|K*2";
shapes = (
{
closed = 1;
nodes = (
(65,0,l),
(339,352,l),
(341,352,l),
(615,0,l),
(640,0,l),
(352,369,l),
(633,730,l),
(608,730,l),
(341,387,l),
(339,387,l),
(72,730,l),
(47,730,l),
(328,369,l),
(40,0,l)
);
}
);
width = 680;
},
{
layerId = m005;
metricLeft = "=|K*2.6";
shapes = (
{
closed = 1;
nodes = (
(151,0,l),
(323,303,l),
(325,303,l),
(497,0,l),
(619,0,l),
(410,367,l),
(617,730,l),
(495,730,l),
(325,430,l),
(323,430,l),
(154,730,l),
(32,730,l),
(239,367,l),
(29,0,l)
);
}
);
width = 648;
},
{
layerId = m006;
metricLeft = "=|K*4";
shapes = (
{
closed = 1;
nodes = (
(246,0,l),
(344,255,l),
(346,255,l),
(444,0,l),
(670,0,l),
(500,365,l),
(670,730,l),
(444,730,l),
(346,475,l),
(344,475,l),
(246,730,l),
(20,730,l),
(190,365,l),
(20,0,l)
);
}
);
width = 690;
},
{
background = {
shapes = (
{
closed = 1;
nodes = (
(47,0,l),
(548,730,l),
(525,730,l),
(23,0,l)
);
},
{
closed = 1;
nodes = (
(553,0,l),
(51,730,l),
(28,730,l),
(529,0,l)
);
}
);
};
layerId = m004;
metricLeft = "=|K*1.2";
name = "Thin F2";
shapes = (
{
closed = 1;
nodes = (
(47,0,l),
(287,351,l),
(289,351,l),
(529,0,l),
(553,0,l),
(300,368,l),
(548,730,l),
(524,730,l),
(289,385,l),
(287,385,l),
(52,730,l),
(28,730,l),
(276,368,l),
(23,0,l)
);
}
);
width = 576;
},
{
layerId = m003;
metricLeft = "=|K*4";
name = "Black F1";
shapes = (
{
closed = 1;
nodes = (
(250,0,l),
(369,245,l),
(371,245,l),
(490,0,l),
(720,0,l),
(520,365,l),
(720,730,l),
(490,730,l),
(371,485,l),
(369,485,l),
(250,730,l),
(20,730,l),
(220,365,l),
(20,0,l)
);
}
);
width = 740;
},
{
layerId = m002;
metricLeft = "=|K*3";
name = "Medium F1";
shapes = (
{
closed = 1;
nodes = (
(159,0,l),
(357,299,l),
(359,299,l),
(557,0,l),
(683,0,l),
(434,367,l),
(679,730,l),
(553,730,l),
(359,436,l),
(357,436,l),
(163,730,l),
(37,730,l),
(282,367,l),
(33,0,l)
);
}
);
width = 716;
}
);
metricLeft = "=|K*2";
metricRight = "=|";
unicode = 88;
},
{
glyphname = Y;
kernLeft = Y;
kernRight = Y;
lastChange = "2026-07-10 06:58:25 +0000";
layers = (
{
layerId = m01;
shapes = (
{
closed = 1;
nodes = (
(353,0,l),
(353,338,l),
(684,730,l),
(658,730,l),
(345,359,l),
(343,359,l),
(30,730,l),
(4,730,l),
(335,338,l),
(335,0,l)
);
}
);
width = 688;
},
{
layerId = m002;
shapes = (
{
closed = 1;
nodes = (
(424,0,l),
(424,303,l),
(733,730,l),
(603,730,l),
(369,406,l),
(367,406,l),
(133,730,l),
(3,730,l),
(312,303,l),
(312,0,l)
);
}
);
width = 736;
},
{
layerId = m003;
shapes = (
{
closed = 1;
nodes = (
(496,0,l),
(496,280,l),
(782,730,l),
(556,730,l),
(393,450,l),
(391,450,l),
(228,730,l),
(2,730,l),
(288,280,l),
(288,0,l)
);
}
);
width = 784;
},
{
layerId = m004;
shapes = (
{
closed = 1;
nodes = (
(313,0,l),
(313,297,l),
(604,730,l),
(580,730,l),
(305,321,l),
(303,321,l),
(28,730,l),
(4,730,l),
(295,297,l),
(295,0,l)
);
}
);
width = 608;
},
{
layerId = m005;
shapes = (
{
closed = 1;
nodes = (
(379,0,l),
(379,274,l),
(643,730,l),
(517,730,l),
(324,393,l),
(322,393,l),
(129,730,l),
(3,730,l),
(267,274,l),
(267,0,l)
);
}
);
width = 646;
},
{
layerId = m006;
shapes = (
{
closed = 1;
nodes = (
(446,0,l),
(446,250,l),
(682,730,l),
(462,730,l),
(343,420,l),
(341,420,l),
(222,730,l),
(2,730,l),
(238,250,l),
(238,0,l)
);
}
);
width = 684;
}
);
metricLeft = "=V*.2";
metricRight = "=|";
unicode = 89;
},
{
glyphname = Z;
kernLeft = Z;
kernRight = Z;
lastChange = "2026-07-10 08:21:32 +0000";
layers = (
{
layerId = m01;
shapes = (
{
closed = 1;
nodes = (
(580,0,l),
(580,20,l),
(105,20,l),
(105,22,l),
(580,710,l),
(580,730,l),
(80,730,l),
(80,710,l),
(555,710,l),
(555,708,l),
(80,20,l),
(80,0,l)
);
}
);
width = 660;
},
{
layerId = m002;
shapes = (
{
closed = 1;
nodes = (
(594,0,l),
(594,98,l),
(196,98,l),
(196,100,l),
(594,632,l),
(594,730,l),
(64,730,l),
(64,632,l),
(462,632,l),
(462,630,l),
(64,98,l),
(64,0,l)
);
}
);
width = 658;
},
{
layerId = m003;
shapes = (
{
closed = 1;
nodes = (
(608,0,l),
(608,175,l),
(290,175,l),
(290,177,l),
(608,555,l),
(608,730,l),
(48,730,l),
(48,555,l),
(366,555,l),
(366,553,l),
(48,175,l),
(48,0,l)
);
}
);
width = 656;
},
{
layerId = m004;
shapes = (
{
closed = 1;
nodes = (
(557,0,l),
(557,20,l),
(102,20,l),
(102,22,l),
(557,710,l),
(557,730,l),
(77,730,l),
(77,710,l),
(532,710,l),
(532,708,l),
(77,20,l),
(77,0,l)
);
}
);
width = 634;
},
{
layerId = m005;
shapes = (
{
closed = 1;
nodes = (
(572,0,l),
(572,98,l),
(194,98,l),
(194,100,l),
(572,632,l),
(572,730,l),
(62,730,l),
(62,632,l),
(440,632,l),
(440,630,l),
(62,98,l),
(62,0,l)
);
}
);
width = 634;
},
{
layerId = m006;
shapes = (
{
closed = 1;
nodes = (
(588,0,l),
(588,175,l),
(288,175,l),
(288,177,l),
(588,555,l),
(588,730,l),
(48,730,l),
(48,555,l),
(348,555,l),
(348,553,l),
(48,175,l),
(48,0,l)
);
}
);
width = 636;
}
);
metricLeft = "=H*.8";
metricRight = "=|";
unicode = 90;
},
{
glyphname = a;
kernLeft = o;
kernRight = u;
lastChange = "2026-07-10 22:32:01 +0000";
layers = (
{
layerId = m01;
shapes = (
{
closed = 1;
nodes = (
(445,-10,o),
(536,46,o),
(576,144,c),
(578,144,l),
(578,0,l),
(598,0,l),
(598,520,l),
(598,520,l),
(598,520,l),
(598,520,l),
(578,520,l),
(578,520,l),
(578,520,l),
(578,520,l),
(578,376,l),
(576,376,l),
(536,474,o),
(445,530,o),
(328,530,cs),
(166,530,o),
(58,422,o),
(58,260,cs),
(58,98,o),
(166,-10,o),
(328,-10,cs)
);
},
{
closed = 1;
nodes = (
(177,10,o),
(78,109,o),
(78,260,cs),
(78,411,o),
(177,510,o),
(328,510,cs),
(479,510,o),
(578,411,o),
(578,260,c),
(578,260,l),
(578,109,o),
(479,10,o),
(328,10,cs)
);
}
);
width = 694;
},
{
associatedMasterId = m01;
attr = {
coordinates = (
200,
200
);
};
layerId = "46F1A50B-7C0C-4B23-8733-B6799256F0FB";
name = "Jun 20, 26 at 14:30";
shapes = (
{
closed = 1;
nodes = (
(428,-10,o),
(520,36,o),
(560,116,c),
(562,116,l),
(562,0,l),
(603,0,l),
(603,520,l),
(603,520,l),
(603,520,l),
(603,520,l),
(561,520,l),
(561,520,l),
(561,520,l),
(561,520,l),
(561,404,l),
(559,404,l),
(520,483,o),
(429,530,o),
(323,530,cs),
(162,530,o),
(55,422,o),
(55,260,cs),
(55,98,o),
(162,-10,o),
(323,-10,cs)
);
},
{
closed = 1;
nodes = (
(189,29,o),
(98,120,o),
(98,260,cs),
(98,400,o),
(189,492,o),
(329,492,cs),
(469,492,o),
(561,400,o),
(561,260,c),
(561,260,l),
(561,120,o),
(469,29,o),
(329,29,cs)
);
}
);
width = 694;
},
{
associatedMasterId = m01;
attr = {
axisRules = (
{
},
{
max = 150;
min = 100;
}
);
};
layerId = "C38710FC-DE03-4402-A680-1BD323331CB3";
name = "Thin F1 [100‹wd‹150] Jun 15, 26 at 20:31";
shapes = (
{
closed = 1;
nodes = (
(344,-10,o),
(434,38,o),
(476,108,c),
(478,108,l),
(478,0,l),
(498,0,l),
(498,315,ls),
(498,471,o),
(444,530,o),
(302,530,cs),
(226,530,o),
(145,513,o),
(81,484,c),
(89,466,l),
(151,494,o),
(228,510,o),
(302,510,cs),
(432,510,o),
(478,460,o),
(478,315,c),
(411,315,ls),
(177,315,o),
(58,263,o),
(58,144,cs),
(58,51,o),
(134,-10,o),
(245,-10,cs)
);
},
{
closed = 1;
nodes = (
(144,10,o),
(78,63,o),
(78,144,cs),
(78,247,o),
(185,295,o),
(411,295,cs),
(478,295,l),
(478,163,l),
(458,76,o),
(358,10,o),
(245,10,cs)
);
}
);
width = 594;
},
{
associatedMasterId = m01;
attr = {
axisRules = (
{
},
{
max = 150;
min = 100;
}
);
coordinates = (
200,
200
);
};
layerId = "0F8FA687-1F62-46B7-84B5-53EEADDCFC1A";
name = "Thin F1 [100‹wd‹120] Jun 13, 26 at 11:54";
shapes = (
{
closed = 1;
nodes = (
(328,-10,o),
(418,30,o),
(462,89,c),
(464,89,l),
(464,0,l),
(505,0,l),
(505,317,ls),
(505,473,o),
(451,530,o),
(304,530,cs),
(225,530,o),
(141,513,o),
(77,485,c),
(88,450,l),
(154,478,o),
(229,493,o),
(301,493,cs),
(421,493,o),
(463,449,o),
(463,319,c),
(394,319,ls),
(171,319,o),
(55,263,o),
(55,144,cs),
(55,51,o),
(129,-10,o),
(239,-10,cs)
);
},
{
closed = 1;
nodes = (
(155,30,o),
(97,75,o),
(97,148,cs),
(97,241,o),
(193,284,o),
(400,284,cs),
(463,284,l),
(463,168,l),
(443,88,o),
(351,30,o),
(246,30,cs)
);
}
);
width = 596;
},
{
layerId = m002;
shapes = (
{
closed = 1;
nodes = (
(391,-10,o),
(471,22,o),
(510,72,c),
(512,72,l),
(512,0,l),
(616,0,l),
(616,520,l),
(616,520,l),
(616,520,l),
(616,520,l),
(507,520,l),
(507,520,l),
(507,520,l),
(507,520,l),
(507,448,l),
(505,448,l),
(468,498,o),
(391,530,o),
(306,530,cs),
(150,530,o),
(46,422,o),
(46,260,cs),
(46,98,o),
(150,-10,o),
(306,-10,cs)
);
},
{
closed = 1;
nodes = (
(225,84,o),
(155,154,o),
(155,260,cs),
(155,366,o),
(225,436,o),
(331,436,cs),
(437,436,o),
(507,366,o),
(507,260,c),
(507,260,l),
(507,154,o),
(437,84,o),
(331,84,cs)
);
}
);
width = 693;
},
{
associatedMasterId = m002;
attr = {
axisRules = (
{
},
{
max = 150;
min = 100;
}
);
};
layerId = "ED553DDA-DF08-4367-81EA-A36C5E5BBDAF";
name = "Jun 13, 26 at 11:16";
shapes = (
{
closed = 1;
nodes = (
(300,-10,o),
(370,19,o),
(421,72,c),
(423,72,l),
(423,0,l),
(526,0,l),
(526,323,ls),
(526,478,o),
(472,530,o),
(312,530,cs),
(223,530,o),
(133,514,o),
(68,489,c),
(87,401,l),
(161,427,o),
(233,440,o),
(299,440,cs),
(390,440,o),
(418,415,o),
(418,332,c),
(345,332,ls),
(154,332,o),
(46,264,o),
(46,145,cs),
(46,50,o),
(115,-10,o),
(224,-10,cs)
);
},
{
closed = 1;
nodes = (
(188,88,o),
(154,112,o),
(154,159,cs),
(154,224,o),
(219,252,o),
(369,252,cs),
(418,252,l),
(418,183,l),
(398,125,o),
(333,88,o),
(252,88,cs)
);
}
);
width = 603;
},
{
layerId = m003;
shapes = (
{
closed = 1;
nodes = (
(334,-10,o),
(403,17,o),
(445,60,c),
(447,60,l),
(447,0,l),
(635,0,l),
(635,520,l),
(635,520,l),
(635,520,l),
(635,520,l),
(437,520,l),
(437,520,l),
(437,520,l),
(437,520,l),
(437,460,l),
(435,460,l),
(393,505,o),
(332,530,o),
(265,530,cs),
(127,530,o),
(35,422,o),
(35,260,cs),
(35,98,o),
(127,-10,o),
(265,-10,cs)
);
},
{
closed = 1;
nodes = (
(275,157,o),
(233,200,o),
(233,260,cs),
(233,320,o),
(275,363,o),
(335,363,cs),
(395,363,o),
(437,320,o),
(437,260,c),
(437,260,l),
(437,200,o),
(395,157,o),
(335,157,cs)
);
}
);
width = 693;
},
{
layerId = m004;
name = "Thin F2";
shapes = (
{
closed = 1;
nodes = (
(348,-10,o),
(417,35,o),
(454,108,c),
(456,108,l),
(456,0,l),
(476,0,l),
(476,520,l),
(476,520,l),
(476,520,l),
(476,520,l),
(456,520,l),
(456,520,l),
(456,520,l),
(456,520,l),
(456,412,l),
(454,412,l),
(417,485,o),
(348,530,o),
(267,530,cs),
(136,530,o),
(56,425,o),
(56,260,cs),
(56,95,o),
(136,-10,o),
(267,-10,cs)
);
},
{
closed = 1;
nodes = (
(149,10,o),
(76,105,o),
(76,260,cs),
(76,415,o),
(149,510,o),
(267,510,cs),
(360,510,o),
(434,448,o),
(456,351,c),
(456,169,l),
(434,72,o),
(360,10,o),
(267,10,cs)
);
}
);
width = 568;
},
{
associatedMasterId = m004;
attr = {
coordinates = (
200,
100
);
};
layerId = "4542052A-5F31-4362-B451-0B9720437F60";
name = "Jun 20, 26 at 14:28";
shapes = (
{
closed = 1;
nodes = (
(342,-10,o),
(408,28,o),
(445,89,c),
(447,89,l),
(447,0,l),
(488,0,l),
(488,520,l),
(488,520,l),
(488,520,l),
(488,520,l),
(446,520,l),
(446,520,l),
(446,520,l),
(446,520,l),
(446,431,l),
(444,431,l),
(406,494,o),
(340,530,o),
(264,530,cs),
(134,530,o),
(53,425,o),
(53,260,cs),
(53,95,o),
(134,-10,o),
(264,-10,cs)
);
},
{
closed = 1;
nodes = (
(163,28,o),
(96,116,o),
(96,260,cs),
(96,405,o),
(163,493,o),
(272,493,cs),
(358,493,o),
(426,434,o),
(446,344,c),
(446,176,l),
(426,86,o),
(358,28,o),
(272,28,cs)
);
}
);
width = 576;
},
{
associatedMasterId = m004;
attr = {
axisRules = (
{
},
{
max = 150;
min = 100;
}
);
};
layerId = "2F6DAC94-11DA-4706-9407-E7CE0C8C551C";
metricLeft = "=o";
name = "Jun 13, 26 at 10:59";
shapes = (
{
closed = 1;
nodes = (
(315,-10,o),
(395,37,o),
(434,108,c),
(436,108,l),
(436,0,l),
(456,0,l),
(456,315,ls),
(456,471,o),
(407,530,o),
(278,530,cs),
(209,530,o),
(135,513,o),
(77,484,c),
(86,466,l),
(142,494,o),
(211,510,o),
(278,510,cs),
(395,510,o),
(436,461,o),
(436,315,c),
(376,315,ls),
(164,315,o),
(56,262,o),
(56,145,cs),
(56,51,o),
(125,-10,o),
(226,-10,cs)
);
},
{
closed = 1;
nodes = (
(135,10,o),
(76,63,o),
(76,145,cs),
(76,247,o),
(172,295,o),
(376,295,cs),
(436,295,l),
(436,170,l),
(418,78,o),
(329,10,o),
(226,10,cs)
);
}
);
width = 548;
},
{
associatedMasterId = m004;
attr = {
axisRules = (
{
},
{
max = 150;
min = 100;
}
);
coordinates = (
200,
100
);
};
layerId = "AB5C3998-141E-4435-A4D0-70B56BE0E087";
name = "Jun 13, 26 at 12:15";
shapes = (
{
closed = 1;
nodes = (
(305,-10,o),
(385,29,o),
(423,89,c),
(425,89,l),
(425,0,l),
(466,0,l),
(466,317,ls),
(466,473,o),
(416,530,o),
(282,530,cs),
(210,530,o),
(133,513,o),
(74,485,c),
(85,449,l),
(143,477,o),
(212,493,o),
(278,493,cs),
(387,493,o),
(424,450,o),
(424,320,c),
(362,320,ls),
(159,320,o),
(53,263,o),
(53,145,cs),
(53,51,o),
(121,-10,o),
(223,-10,cs)
);
},
{
closed = 1;
nodes = (
(147,30,o),
(95,76,o),
(95,149,cs),
(95,241,o),
(182,284,o),
(367,284,cs),
(424,284,l),
(424,173,l),
(406,90,o),
(324,30,o),
(229,30,cs)
);
}
);
width = 554;
},
{
layerId = m005;
shapes = (
{
closed = 1;
nodes = (
(320,-10,o),
(379,19,o),
(419,72,c),
(421,72,l),
(421,0,l),
(525,0,l),
(525,520,l),
(525,520,l),
(525,520,l),
(525,520,l),
(416,520,l),
(416,520,l),
(416,520,l),
(416,520,l),
(416,448,l),
(414,448,l),
(376,501,o),
(320,530,o),
(253,530,cs),
(126,530,o),
(45,425,o),
(45,260,cs),
(45,95,o),
(126,-10,o),
(253,-10,cs)
);
},
{
closed = 1;
nodes = (
(203,80,o),
(154,147,o),
(154,260,cs),
(154,373,o),
(203,440,o),
(285,440,cs),
(351,440,o),
(401,396,o),
(416,324,c),
(416,196,l),
(401,124,o),
(351,80,o),
(285,80,cs)
);
}
);
width = 600;
},
{
layerId = m006;
name = "Black F2";
shapes = (
{
closed = 1;
nodes = (
(299,-10,o),
(341,10,o),
(385,60,c),
(387,60,l),
(387,0,l),
(575,0,l),
(575,520,l),
(575,520,l),
(575,520,l),
(575,520,l),
(377,520,l),
(377,520,l),
(377,520,l),
(377,520,l),
(377,460,l),
(375,460,l),
(333,511,o),
(297,530,o),
(242,530,cs),
(113,530,o),
(35,428,o),
(35,260,cs),
(35,92,o),
(113,-10,o),
(242,-10,cs)
);
},
{
closed = 1;
nodes = (
(257,142,o),
(233,181,o),
(233,260,cs),
(233,339,o),
(257,378,o),
(306,378,cs),
(341,378,o),
(369,358,o),
(377,327,c),
(377,193,l),
(369,162,o),
(341,142,o),
(306,142,cs)
);
}
);
width = 633;
},
{
associatedMasterId = m006;
attr = {
axisRules = (
{
},
{
max = 150;
min = 100;
}
);
};
layerId = "C7D51260-6CEC-42F1-8753-3096B68C9C5C";
name = "Jun 13, 26 at 10:57";
shapes = (
{
closed = 1;
nodes = (
(249,-10,o),
(312,18,o),
(347,60,c),
(349,60,l),
(349,0,l),
(535,0,l),
(535,330,ls),
(535,478,o),
(477,530,o),
(312,530,cs),
(225,530,o),
(125,516,o),
(54,493,c),
(77,353,l),
(144,376,o),
(221,390,o),
(276,390,cs),
(327,390,o),
(339,378,o),
(339,328,c),
(284,328,ls),
(129,328,o),
(35,259,o),
(35,145,cs),
(35,53,o),
(97,-10,o),
(188,-10,cs)
);
},
{
closed = 1;
nodes = (
(241,133,o),
(221,149,o),
(221,178,cs),
(221,214,o),
(252,231,o),
(318,231,cs),
(339,231,l),
(339,171,l),
(325,145,o),
(304,133,o),
(275,133,cs)
);
}
);
width = 593;
},
{
associatedMasterId = m005;
attr = {
axisRules = (
{
},
{
max = 150;
min = 100;
}
);
};
layerId = "F521AC3A-008E-4F9D-B9B8-0AF46135A852";
name = "Medium F1 [100‹wd‹150] Jul 5, 26 at 17:23";
shapes = (
{
closed = 1;
nodes = (
(285,-10,o),
(353,21,o),
(390,72,c),
(392,72,l),
(392,0,l),
(495,0,l),
(495,323,ls),
(495,477,o),
(444,530,o),
(295,530,cs),
(213,530,o),
(128,514,o),
(65,489,c),
(81,399,l),
(147,427,o),
(213,440,o),
(276,440,cs),
(362,440,o),
(387,416,o),
(387,333,c),
(321,333,ls),
(145,333,o),
(45,265,o),
(45,146,cs),
(45,50,o),
(110,-10,o),
(212,-10,cs)
);
},
{
closed = 1;
nodes = (
(184,88,o),
(153,113,o),
(153,159,cs),
(153,222,o),
(212,251,o),
(340,251,cs),
(387,251,l),
(387,183,l),
(369,125,o),
(309,88,o),
(239,88,cs)
);
}
);
width = 570;
},
{
associatedMasterId = m003;
attr = {
axisRules = (
{
},
{
max = 150;
min = 100;
}
);
};
layerId = "A8E37540-B84B-445C-A393-7F86791583F9";
name = "Jun 13, 26 at 11:16";
shapes = (
{
closed = 1;
nodes = (
(262,-10,o),
(329,18,o),
(366,60,c),
(369,60,l),
(369,0,l),
(555,0,l),
(555,330,ls),
(555,479,o),
(496,530,o),
(323,530,cs),
(231,530,o),
(125,515,o),
(55,493,c),
(78,353,l),
(152,376,o),
(234,390,o),
(295,390,cs),
(347,390,o),
(359,379,o),
(359,328,c),
(300,328,ls),
(136,328,o),
(35,258,o),
(35,143,cs),
(35,51,o),
(100,-10,o),
(197,-10,cs)
);
},
{
closed = 1;
nodes = (
(243,133,o),
(221,149,o),
(221,178,cs),
(221,214,o),
(257,231,o),
(334,231,cs),
(359,231,l),
(359,171,l),
(342,145,o),
(318,133,o),
(283,133,cs)
);
}
);
width = 613;
}
);
metricLeft = "=o";
metricRight = "=|h";
unicode = 97;
},
{
color = 4;
glyphname = b;
kernLeft = H;
kernRight = o;
lastChange = "2026-07-11 06:21:30 +0000";
layers = (
{
layerId = m01;
shapes = (
{
closed = 1;
nodes = (
(528,-10,o),
(636,98,o),
(636,260,c),
(636,260,l),
(636,422,o),
(528,530,o),
(366,530,cs),
(249,530,o),
(158,474,o),
(118,376,c),
(116,376,l),
(116,770,l),
(96,770,l),
(96,0,l),
(116,0,l),
(116,144,l),
(118,144,l),
(158,46,o),
(249,-10,o),
(366,-10,cs)
);
},
{
closed = 1;
nodes = (
(215,10,o),
(116,109,o),
(116,260,c),
(116,260,l),
(116,411,o),
(215,510,o),
(366,510,cs),
(517,510,o),
(616,411,o),
(616,260,c),
(616,260,l),
(616,109,o),
(517,10,o),
(366,10,cs)
);
}
);
width = 694;
},
{
associatedMasterId = m01;
attr = {
coordinates = (
200,
200
);
};
layerId = "46F1A50B-7C0C-4B23-8733-B6799256F0FB";
name = "Jun 20, 26 at 14:30";
shapes = (
{
closed = 1;
nodes = (
(531,-10,o),
(638,98,o),
(638,260,c),
(638,260,l),
(638,422,o),
(531,530,o),
(371,530,cs),
(266,530,o),
(174,484,o),
(135,404,c),
(133,404,l),
(133,770,l),
(91,770,l),
(91,0,l),
(132,0,l),
(132,116,l),
(134,116,l),
(174,35,o),
(268,-10,o),
(371,-10,cs)
);
},
{
closed = 1;
nodes = (
(225,29,o),
(133,120,o),
(133,260,c),
(133,260,l),
(133,400,o),
(225,492,o),
(364,492,cs),
(504,492,o),
(596,400,o),
(596,260,c),
(596,260,l),
(596,120,o),
(504,29,o),
(364,29,cs)
);
}
);
width = 693;
},
{
layerId = m002;
shapes = (
{
closed = 1;
nodes = (
(543,-10,o),
(647,98,o),
(647,260,c),
(647,260,l),
(647,422,o),
(543,530,o),
(387,530,cs),
(302,530,o),
(225,498,o),
(188,448,c),
(186,448,l),
(186,770,l),
(77,770,l),
(77,0,l),
(181,0,l),
(181,72,l),
(183,72,l),
(222,22,o),
(302,-10,o),
(387,-10,cs)
);
},
{
closed = 1;
nodes = (
(256,84,o),
(186,154,o),
(186,260,c),
(186,260,l),
(186,366,o),
(256,436,o),
(362,436,cs),
(468,436,o),
(538,366,o),
(538,260,c),
(538,260,l),
(538,154,o),
(468,84,o),
(362,84,cs)
);
}
);
width = 693;
},
{
layerId = m003;
shapes = (
{
closed = 1;
nodes = (
(566,-10,o),
(658,98,o),
(658,260,c),
(658,260,l),
(658,422,o),
(566,530,o),
(428,530,cs),
(361,530,o),
(300,505,o),
(258,460,c),
(256,460,l),
(256,770,l),
(58,770,l),
(58,0,l),
(246,0,l),
(246,60,l),
(248,60,l),
(290,17,o),
(359,-10,o),
(428,-10,cs)
);
},
{
closed = 1;
nodes = (
(298,157,o),
(256,200,o),
(256,260,c),
(256,260,l),
(256,320,o),
(298,363,o),
(358,363,cs),
(418,363,o),
(460,320,o),
(460,260,c),
(460,260,l),
(460,200,o),
(418,157,o),
(358,157,cs)
);
}
);
width = 693;
},
{
layerId = m004;
name = "Thin F2";
shapes = (
{
closed = 1;
nodes = (
(446,-10,o),
(532,90,o),
(532,240,cs),
(532,280,ls),
(532,430,o),
(446,530,o),
(312,530,cs),
(227,530,o),
(152,483,o),
(114,412,c),
(112,412,l),
(112,770,l),
(92,770,l),
(92,0,l),
(112,0,l),
(112,108,l),
(114,108,l),
(152,37,o),
(227,-10,o),
(312,-10,cs)
);
},
{
closed = 1;
nodes = (
(216,10,o),
(135,73,o),
(112,165,c),
(112,355,l),
(135,447,o),
(216,510,o),
(312,510,cs),
(434,510,o),
(512,420,o),
(512,280,cs),
(512,240,ls),
(512,100,o),
(434,10,o),
(312,10,cs)
);
}
);
width = 588;
},
{
layerId = m005;
shapes = (
{
closed = 1;
nodes = (
(487,-10,o),
(570,86,o),
(570,240,cs),
(570,280,ls),
(570,434,o),
(487,530,o),
(354,530,cs),
(283,530,o),
(228,503,o),
(186,448,c),
(184,448,l),
(184,770,l),
(75,770,l),
(75,0,l),
(179,0,l),
(179,72,l),
(181,72,l),
(224,18,o),
(282,-10,o),
(354,-10,cs)
);
},
{
closed = 1;
nodes = (
(256,86,o),
(200,136,o),
(184,209,c),
(184,311,l),
(200,384,o),
(256,434,o),
(323,434,cs),
(409,434,o),
(461,376,o),
(461,280,cs),
(461,240,ls),
(461,144,o),
(409,86,o),
(323,86,cs)
);
}
);
width = 615;
},
{
layerId = m006;
name = "Black F2";
shapes = (
{
closed = 1;
nodes = (
(528,-10,o),
(608,84,o),
(608,240,cs),
(608,280,ls),
(608,436,o),
(528,530,o),
(395,530,cs),
(338,530,o),
(302,513,o),
(258,460,c),
(256,460,l),
(256,770,l),
(58,770,l),
(58,0,l),
(246,0,l),
(246,60,l),
(248,60,l),
(294,9,o),
(335,-10,o),
(395,-10,cs)
);
},
{
closed = 1;
nodes = (
(295,142,o),
(265,162,o),
(256,193,c),
(256,327,l),
(265,358,o),
(295,378,o),
(333,378,cs),
(383,378,o),
(410,344,o),
(410,280,cs),
(410,240,ls),
(410,176,o),
(383,142,o),
(333,142,cs)
);
}
);
width = 643;
},
{
associatedMasterId = m004;
attr = {
coordinates = (
200,
100
);
};
layerId = "9ECECF33-0D80-4161-A09F-E5E90B007CD8";
name = "Jul 3, 26 at 20:59";
shapes = (
{
closed = 1;
nodes = (
(456,-10,o),
(542,89,o),
(542,240,cs),
(542,280,ls),
(542,431,o),
(456,530,o),
(323,530,cs),
(241,530,o),
(171,492,o),
(132,431,c),
(130,431,l),
(130,770,l),
(88,770,l),
(88,0,l),
(129,0,l),
(129,89,l),
(131,89,l),
(170,29,o),
(240,-10,o),
(323,-10,cs)
);
},
{
closed = 1;
nodes = (
(226,29,o),
(151,90,o),
(130,176,c),
(130,344,l),
(151,430,o),
(226,491,o),
(315,491,cs),
(428,491,o),
(499,409,o),
(499,280,cs),
(499,240,ls),
(499,111,o),
(428,29,o),
(315,29,cs)
);
}
);
width = 596;
}
);
metricLeft = "=h";
metricRight = "=o";
unicode = 98;
},
{
color = 4;
glyphname = c;
kernLeft = o;
kernRight = c;
lastChange = "2026-07-11 06:49:33 +0000";
layers = (
{
layerId = m01;
shapes = (
{
closed = 1;
nodes = (
(407,-20,o),
(477,-3,o),
(528,25,c),
(518,43,l),
(469,16,o),
(404,0,o),
(342,0,cs),
(185,0,o),
(78,105,o),
(78,260,cs),
(78,260,ls),
(78,415,o),
(185,520,o),
(342,520,cs),
(404,520,o),
(469,504,o),
(518,477,c),
(528,495,l),
(477,523,o),
(407,540,o),
(342,540,cs),
(174,540,o),
(58,426,o),
(58,260,cs),
(58,260,ls),
(58,94,o),
(174,-20,o),
(342,-20,cs)
);
}
);
width = 621;
},
{
layerId = m002;
shapes = (
{
closed = 1;
nodes = (
(420,-20,o),
(484,-5,o),
(536,23,c),
(514,113,l),
(458,88,o),
(406,76,o),
(356,76,cs),
(234,76,o),
(158,147,o),
(158,260,cs),
(158,260,ls),
(158,373,o),
(234,444,o),
(356,444,cs),
(406,444,o),
(458,432,o),
(514,407,c),
(536,497,l),
(484,525,o),
(420,540,o),
(350,540,cs),
(163,540,o),
(46,432,o),
(46,260,cs),
(46,260,ls),
(46,88,o),
(163,-20,o),
(350,-20,cs)
);
}
);
width = 610;
},
{
layerId = m003;
shapes = (
{
closed = 1;
nodes = (
(433,-20,o),
(492,-7,o),
(545,21,c),
(513,181,l),
(456,159,o),
(413,150,o),
(371,150,cs),
(285,150,o),
(239,188,o),
(239,260,cs),
(239,260,ls),
(239,332,o),
(285,370,o),
(371,370,cs),
(413,370,o),
(456,361,o),
(513,339,c),
(545,499,l),
(492,527,o),
(433,540,o),
(359,540,cs),
(153,540,o),
(35,438,o),
(35,260,cs),
(35,260,ls),
(35,82,o),
(153,-20,o),
(359,-20,cs)
);
}
);
width = 601;
},
{
background = {
shapes = (
{
closed = 1;
nodes = (
(360,-20,o),
(421,-3,o),
(466,25,c),
(455,42,l),
(413,16,o),
(357,0,o),
(304,0,cs),
(170,0,o),
(76,105,o),
(76,260,cs),
(76,415,o),
(170,520,o),
(304,520,cs),
(357,520,o),
(413,504,o),
(455,478,c),
(466,495,l),
(421,523,o),
(360,540,o),
(304,540,cs),
(158,540,o),
(56,425,o),
(56,260,cs),
(56,95,o),
(158,-20,o),
(304,-20,cs)
);
}
);
};
layerId = m004;
shapes = (
{
closed = 1;
nodes = (
(361,-20,o),
(421,-3,o),
(466,25,c),
(455,42,l),
(413,16,o),
(358,0,o),
(304,0,cs),
(170,0,o),
(76,99,o),
(76,240,cs),
(76,280,ls),
(76,421,o),
(170,520,o),
(304,520,cs),
(358,520,o),
(413,504,o),
(455,478,c),
(466,495,l),
(421,523,o),
(361,540,o),
(304,540,cs),
(159,540,o),
(56,432,o),
(56,280,cs),
(56,240,ls),
(56,88,o),
(159,-20,o),
(304,-20,cs)
);
}
);
width = 556;
},
{
background = {
shapes = (
{
closed = 1;
nodes = (
(379,-20,o),
(437,-5,o),
(484,23,c),
(462,113,l),
(414,88,o),
(369,76,o),
(325,76,cs),
(219,76,o),
(154,138,o),
(154,240,cs),
(154,280,ls),
(154,382,o),
(219,444,o),
(325,444,cs),
(369,444,o),
(414,432,o),
(462,407,c),
(484,497,l),
(437,525,o),
(379,540,o),
(317,540,cs),
(149,540,o),
(44,440,o),
(44,280,cs),
(44,240,ls),
(44,80,o),
(149,-20,o),
(317,-20,cs)
);
}
);
};
layerId = m005;
shapes = (
{
closed = 1;
nodes = (
(380,-20,o),
(438,-6,o),
(485,23,c),
(463,113,l),
(415,88,o),
(371,76,o),
(326,76,cs),
(219,76,o),
(155,141,o),
(155,250,cs),
(155,270,ls),
(155,379,o),
(219,444,o),
(326,444,cs),
(372,444,o),
(417,432,o),
(463,407,c),
(485,497,l),
(438,526,o),
(380,540,o),
(318,540,cs),
(152,540,o),
(45,438,o),
(45,280,cs),
(45,240,ls),
(45,82,o),
(152,-20,o),
(318,-20,cs)
);
}
);
width = 557;
},
{
background = {
shapes = (
{
closed = 1;
nodes = (
(402,-20,o),
(456,-7,o),
(505,21,c),
(473,181,l),
(424,159,o),
(389,150,o),
(350,150,cs),
(272,150,o),
(235,185,o),
(235,260,cs),
(235,335,o),
(272,370,o),
(350,370,cs),
(389,370,o),
(424,361,o),
(473,339,c),
(505,499,l),
(456,527,o),
(402,540,o),
(334,540,cs),
(145,540,o),
(35,437,o),
(35,260,cs),
(35,83,o),
(145,-20,o),
(334,-20,cs)
);
},
{
closed = 1;
nodes = (
(402,-20,o),
(456,-7,o),
(505,21,c),
(473,181,l),
(424,159,o),
(389,150,o),
(350,150,cs),
(272,150,o),
(235,185,o),
(235,260,cs),
(235,335,o),
(272,370,o),
(350,370,cs),
(389,370,o),
(424,361,o),
(473,339,c),
(505,499,l),
(456,527,o),
(402,540,o),
(334,540,cs),
(145,540,o),
(35,437,o),
(35,260,cs),
(35,83,o),
(145,-20,o),
(334,-20,cs)
);
}
);
};
layerId = m006;
shapes = (
{
closed = 1;
nodes = (
(402,-20,o),
(456,-7,o),
(505,21,c),
(473,181,l),
(422,158,o),
(390,150,o),
(350,150,cs),
(270,150,o),
(235,184,o),
(235,260,cs),
(235,260,ls),
(235,336,o),
(270,370,o),
(350,370,cs),
(390,370,o),
(422,362,o),
(473,339,c),
(505,499,l),
(456,527,o),
(402,540,o),
(334,540,cs),
(146,540,o),
(35,444,o),
(35,280,cs),
(35,240,ls),
(35,76,o),
(146,-20,o),
(334,-20,cs)
);
}
);
width = 561;
}
);
metricLeft = "=o";
metricRight = "=|*1.6";
unicode = 99;
},
{
color = 4;
glyphname = d;
kernLeft = o;
kernRight = H;
lastChange = "2026-07-11 06:24:05 +0000";
layers = (
{
layerId = m01;
shapes = (
{
closed = 1;
nodes = (
(445,-10,o),
(536,46,o),
(576,144,c),
(578,144,l),
(578,0,l),
(598,0,l),
(598,770,l),
(578,770,l),
(578,376,l),
(576,376,l),
(536,474,o),
(445,530,o),
(328,530,cs),
(166,530,o),
(58,422,o),
(58,260,c),
(58,260,l),
(58,98,o),
(166,-10,o),
(328,-10,cs)
);
},
{
closed = 1;
nodes = (
(177,10,o),
(78,109,o),
(78,260,c),
(78,260,l),
(78,411,o),
(177,510,o),
(328,510,cs),
(479,510,o),
(578,411,o),
(578,260,c),
(578,260,l),
(578,109,o),
(479,10,o),
(328,10,cs)
);
}
);
width = 694;
},
{
associatedMasterId = m01;
attr = {
coordinates = (
200,
200
);
};
layerId = "46F1A50B-7C0C-4B23-8733-B6799256F0FB";
name = "Jun 20, 26 at 14:30";
shapes = (
{
closed = 1;
nodes = (
(425,-10,o),
(519,35,o),
(559,116,c),
(561,116,l),
(561,0,l),
(602,0,l),
(602,770,l),
(560,770,l),
(560,404,l),
(558,404,l),
(519,484,o),
(427,530,o),
(322,530,cs),
(162,530,o),
(55,422,o),
(55,260,c),
(55,260,l),
(55,98,o),
(162,-10,o),
(322,-10,cs)
);
},
{
closed = 1;
nodes = (
(189,29,o),
(97,120,o),
(97,260,c),
(97,260,l),
(97,400,o),
(189,492,o),
(329,492,cs),
(468,492,o),
(560,400,o),
(560,260,c),
(560,260,l),
(560,120,o),
(468,29,o),
(329,29,cs)
);
}
);
width = 693;
},
{
layerId = m002;
shapes = (
{
closed = 1;
nodes = (
(391,-10,o),
(471,22,o),
(510,72,c),
(512,72,l),
(512,0,l),
(616,0,l),
(616,770,l),
(507,770,l),
(507,448,l),
(505,448,l),
(468,498,o),
(391,530,o),
(306,530,cs),
(150,530,o),
(46,422,o),
(46,260,c),
(46,260,l),
(46,98,o),
(150,-10,o),
(306,-10,cs)
);
},
{
closed = 1;
nodes = (
(225,84,o),
(155,154,o),
(155,260,c),
(155,260,l),
(155,366,o),
(225,436,o),
(331,436,cs),
(437,436,o),
(507,366,o),
(507,260,c),
(507,260,l),
(507,154,o),
(437,84,o),
(331,84,cs)
);
}
);
width = 693;
},
{
layerId = m003;
shapes = (
{
closed = 1;
nodes = (
(334,-10,o),
(403,17,o),
(445,60,c),
(447,60,l),
(447,0,l),
(635,0,l),
(635,770,l),
(437,770,l),
(437,460,l),
(435,460,l),
(393,505,o),
(332,530,o),
(265,530,cs),
(127,530,o),
(35,422,o),
(35,260,c),
(35,260,l),
(35,98,o),
(127,-10,o),
(265,-10,cs)
);
},
{
closed = 1;
nodes = (
(275,157,o),
(233,200,o),
(233,260,c),
(233,260,l),
(233,320,o),
(275,363,o),
(335,363,cs),
(395,363,o),
(437,320,o),
(437,260,c),
(437,260,l),
(437,200,o),
(395,157,o),
(335,157,cs)
);
}
);
width = 693;
},
{
layerId = m004;
name = "Thin F2";
shapes = (
{
closed = 1;
nodes = (
(361,-10,o),
(436,37,o),
(474,108,c),
(476,108,l),
(476,0,l),
(496,0,l),
(496,770,l),
(476,770,l),
(476,412,l),
(474,412,l),
(436,483,o),
(361,530,o),
(276,530,cs),
(142,530,o),
(56,430,o),
(56,280,cs),
(56,240,ls),
(56,90,o),
(142,-10,o),
(276,-10,cs)
);
},
{
closed = 1;
nodes = (
(154,10,o),
(76,100,o),
(76,240,cs),
(76,280,ls),
(76,420,o),
(154,510,o),
(276,510,cs),
(372,510,o),
(453,447,o),
(476,355,c),
(476,165,l),
(453,73,o),
(372,10,o),
(276,10,cs)
);
}
);
width = 588;
},
{
associatedMasterId = m004;
attr = {
coordinates = (
200,
100
);
};
layerId = "4542052A-5F31-4362-B451-0B9720437F60";
name = "Jun 20, 26 at 14:28";
shapes = (
{
closed = 1;
nodes = (
(355,-10,o),
(425,29,o),
(464,89,c),
(466,89,l),
(466,0,l),
(507,0,l),
(507,770,l),
(465,770,l),
(465,431,l),
(463,431,l),
(424,492,o),
(354,530,o),
(272,530,cs),
(139,530,o),
(53,431,o),
(53,280,cs),
(53,240,ls),
(53,89,o),
(139,-10,o),
(272,-10,cs)
);
},
{
closed = 1;
nodes = (
(167,29,o),
(96,111,o),
(96,240,cs),
(96,280,ls),
(96,409,o),
(167,491,o),
(280,491,cs),
(369,491,o),
(444,430,o),
(465,344,c),
(465,176,l),
(444,90,o),
(369,29,o),
(280,29,cs)
);
}
);
width = 595;
},
{
layerId = m005;
shapes = (
{
closed = 1;
nodes = (
(333,-10,o),
(391,18,o),
(434,72,c),
(436,72,l),
(436,0,l),
(540,0,l),
(540,770,l),
(431,770,l),
(431,448,l),
(429,448,l),
(387,503,o),
(332,530,o),
(261,530,cs),
(128,530,o),
(45,434,o),
(45,280,cs),
(45,240,ls),
(45,86,o),
(128,-10,o),
(261,-10,cs)
);
},
{
closed = 1;
nodes = (
(206,86,o),
(154,144,o),
(154,240,cs),
(154,280,ls),
(154,376,o),
(206,434,o),
(292,434,cs),
(359,434,o),
(415,384,o),
(431,311,c),
(431,209,l),
(415,136,o),
(359,86,o),
(292,86,cs)
);
}
);
width = 615;
},
{
layerId = m006;
name = "Black F2";
shapes = (
{
closed = 1;
nodes = (
(308,-10,o),
(349,9,o),
(395,60,c),
(397,60,l),
(397,0,l),
(585,0,l),
(585,770,l),
(387,770,l),
(387,460,l),
(385,460,l),
(341,513,o),
(305,530,o),
(248,530,cs),
(115,530,o),
(35,436,o),
(35,280,cs),
(35,240,ls),
(35,84,o),
(115,-10,o),
(248,-10,cs)
);
},
{
closed = 1;
nodes = (
(260,142,o),
(233,176,o),
(233,240,cs),
(233,280,ls),
(233,344,o),
(260,378,o),
(310,378,cs),
(348,378,o),
(378,358,o),
(387,327,c),
(387,193,l),
(378,162,o),
(348,142,o),
(310,142,cs)
);
}
);
width = 643;
}
);
metricLeft = "=o";
metricRight = "=|h";
unicode = 100;
},
{
color = 4;
glyphname = e;
kernLeft = o;
kernRight = o;
lastChange = "2026-07-11 08:05:47 +0000";
layers = (
{
layerId = m01;
metricRight = "=|*.8";
shapes = (
{
closed = 1;
nodes = (
(429,-20,o),
(508,3,o),
(563,42,c),
(552,58,l),
(499,21,o),
(426,0,o),
(344,0,cs),
(172,0,o),
(78,92,o),
(78,260,c),
(78,260,l),
(78,428,o),
(165,520,o),
(323,520,cs),
(481,520,o),
(568,428,o),
(568,260,cs),
(568,260,l),
(577,278,l),
(68,278,l),
(68,258,l),
(588,258,l),
(588,259,o),
(588,259,o),
(588,260,cs),
(588,439,o),
(492,540,o),
(323,540,cs),
(154,540,o),
(58,439,o),
(58,260,cs),
(58,260,ls),
(58,81,o),
(161,-20,o),
(344,-20,cs)
);
}
);
width = 634;
},
{
layerId = m002;
shapes = (
{
closed = 1;
nodes = (
(430,-20,o),
(505,-3,o),
(567,31,c),
(547,119,l),
(500,92,o),
(424,74,o),
(352,74,cs),
(222,74,o),
(155,133,o),
(155,245,c),
(155,275,l),
(155,389,o),
(212,448,o),
(322,448,cs),
(432,448,o),
(489,389,o),
(489,275,cs),
(489,245,l),
(535,308,l),
(110,308,l),
(110,214,l),
(594,214,l),
(595,225,o),
(596,242,o),
(596,260,cs),
(596,437,o),
(495,540,o),
(323,540,cs),
(149,540,o),
(46,435,o),
(46,260,cs),
(46,260,ls),
(46,80,o),
(155,-20,o),
(350,-20,cs)
);
}
);
width = 642;
},
{
layerId = m003;
metricRight = "=|*1.2";
shapes = (
{
closed = 1;
nodes = (
(437,-20,o),
(513,-5,o),
(572,19,c),
(542,163,l),
(496,142,o),
(420,128,o),
(361,128,cs),
(270,128,o),
(227,161,o),
(227,230,cs),
(227,290,ls),
(227,363,o),
(257,396,o),
(323,396,cs),
(389,396,o),
(419,363,o),
(419,290,cs),
(419,230,l),
(494,318,l),
(153,318,l),
(153,192,l),
(601,192,l),
(604,219,o),
(605,243,o),
(605,260,cs),
(605,435,o),
(500,540,o),
(325,540,cs),
(147,540,o),
(35,432,o),
(35,260,cs),
(35,260,ls),
(35,82,o),
(152,-20,o),
(358,-20,cs)
);
}
);
width = 647;
},
{
layerId = m004;
metricRight = "=|*.8";
shapes = (
{
closed = 1;
nodes = (
(372,-20,o),
(437,2,o),
(486,43,c),
(473,58,l),
(428,20,o),
(368,0,o),
(298,0,cs),
(155,0,o),
(76,85,o),
(76,240,cs),
(76,280,ls),
(76,434,o),
(151,520,o),
(281,520,cs),
(411,520,o),
(486,434,o),
(486,280,cs),
(486,268,l),
(496,278,l),
(65,278,l),
(65,258,l),
(506,258,l),
(506,265,o),
(506,273,o),
(506,280,cs),
(506,444,o),
(423,540,o),
(281,540,cs),
(139,540,o),
(56,444,o),
(56,280,cs),
(56,240,ls),
(56,74,o),
(144,-20,o),
(298,-20,cs)
);
}
);
width = 551;
},
{
layerId = m005;
shapes = (
{
closed = 1;
nodes = (
(388,-20,o),
(455,-2,o),
(509,31,c),
(485,119,l),
(423,87,o),
(376,74,o),
(320,74,cs),
(207,74,o),
(154,127,o),
(154,240,cs),
(154,280,ls),
(154,390,o),
(201,448,o),
(290,448,cs),
(379,448,o),
(426,390,o),
(426,280,cs),
(426,254,l),
(465,304,l),
(104,304,l),
(104,216,l),
(533,216,l),
(534,239,o),
(535,263,o),
(535,280,cs),
(535,444,o),
(445,540,o),
(292,540,cs),
(138,540,o),
(45,442,o),
(45,280,cs),
(45,240,ls),
(45,75,o),
(143,-20,o),
(314,-20,cs)
);
}
);
width = 580;
},
{
layerId = m006;
metricRight = "=|*1.2";
name = "Black F1";
shapes = (
{
closed = 1;
nodes = (
(405,-20,o),
(474,-6,o),
(533,19,c),
(507,163,l),
(423,135,o),
(387,128,o),
(344,128,cs),
(259,128,o),
(231,156,o),
(231,240,cs),
(231,280,ls),
(231,362,o),
(252,396,o),
(304,396,cs),
(356,396,o),
(377,362,o),
(377,280,cs),
(377,240,l),
(435,312,l),
(145,312,l),
(145,192,l),
(561,192,l),
(564,234,o),
(565,263,o),
(565,280,cs),
(565,444,o),
(469,540,o),
(305,540,cs),
(139,540,o),
(35,440,o),
(35,280,cs),
(35,240,ls),
(35,75,o),
(143,-20,o),
(332,-20,cs)
);
}
);
width = 607;
}
);
metricLeft = "=o";
metricRight = "=|";
unicode = 101;
},
{
glyphname = f;
kernLeft = f;
kernRight = f;
lastChange = "2026-07-10 22:32:01 +0000";
layers = (
{
layerId = m01;
shapes = (
{
closed = 1;
nodes = (
(223,0,l),
(223,500,l),
(478,500,l),
(478,520,l),
(223,520,l),
(223,640,ls),
(223,730,o),
(269,770,o),
(379,770,cs),
(412,770,o),
(434,767,o),
(468,756,c),
(468,777,l),
(436,786,o),
(412,790,o),
(379,790,cs),
(259,790,o),
(203,742,o),
(203,640,cs),
(203,520,l),
(38,520,l),
(38,500,l),
(203,500,l),
(203,0,l)
);
}
);
width = 516;
},
{
layerId = m002;
shapes = (
{
closed = 1;
nodes = (
(276,0,l),
(276,430,l),
(491,430,l),
(491,520,l),
(276,520,l),
(276,600,ls),
(276,674,o),
(308,702,o),
(392,702,cs),
(420,702,o),
(447,699,o),
(481,690,c),
(481,778,l),
(444,786,o),
(407,790,o),
(373,790,cs),
(237,790,o),
(167,727,o),
(167,605,cs),
(167,520,l),
(31,520,l),
(31,430,l),
(167,430,l),
(167,0,l)
);
}
);
width = 522;
},
{
layerId = m003;
shapes = (
{
closed = 1;
nodes = (
(328,0,l),
(328,360,l),
(503,360,l),
(503,520,l),
(328,520,l),
(328,560,ls),
(328,616,o),
(346,634,o),
(403,634,cs),
(430,634,o),
(462,630,o),
(493,624,c),
(493,778,l),
(450,786,o),
(400,790,o),
(366,790,cs),
(214,790,o),
(130,712,o),
(130,570,cs),
(130,520,l),
(23,520,l),
(23,360,l),
(130,360,l),
(130,0,l)
);
}
);
width = 526;
},
{
background = {
shapes = (
{
closed = 1;
nodes = (
(212,0,l),
(212,500,l),
(412,500,l),
(412,520,l),
(212,520,l),
(212,640,ls),
(212,732,o),
(249,770,o),
(339,770,cs),
(368,770,o),
(389,766,o),
(412,756,c),
(412,778,l),
(390,786,o),
(367,790,o),
(339,790,cs),
(238,790,o),
(192,743,o),
(192,640,cs),
(192,520,l),
(62,520,l),
(62,500,l),
(192,500,l),
(192,0,l)
);
}
);
};
layerId = m004;
shapes = (
{
closed = 1;
nodes = (
(207,0,l),
(207,500,l),
(437,500,l),
(437,520,l),
(207,520,l),
(207,640,ls),
(207,732,o),
(250,770,o),
(353,770,cs),
(387,770,o),
(410,766,o),
(437,756,c),
(437,778,l),
(416,786,o),
(386,790,o),
(353,790,cs),
(240,790,o),
(187,744,o),
(187,640,cs),
(187,520,l),
(37,520,l),
(37,500,l),
(187,500,l),
(187,0,l)
);
}
);
width = 474;
},
{
layerId = m005;
shapes = (
{
closed = 1;
nodes = (
(277,0,l),
(277,430,l),
(470,430,l),
(470,520,l),
(277,520,l),
(277,600,ls),
(277,675,o),
(306,702,o),
(386,702,cs),
(413,702,o),
(439,699,o),
(470,690,c),
(470,778,l),
(438,786,o),
(401,790,o),
(367,790,cs),
(234,790,o),
(168,728,o),
(168,605,cs),
(168,520,l),
(30,520,l),
(30,430,l),
(168,430,l),
(168,0,l)
);
}
);
width = 500;
},
{
background = {
shapes = (
{
closed = 1;
nodes = (
(348,0,l),
(348,360,l),
(478,360,l),
(478,520,l),
(348,520,l),
(348,560,ls),
(348,617,o),
(362,634,o),
(408,634,cs),
(428,634,o),
(449,631,o),
(478,624,c),
(478,778,l),
(435,786,o),
(395,790,o),
(364,790,cs),
(226,790,o),
(150,712,o),
(150,570,cs),
(150,520,l),
(48,520,l),
(48,360,l),
(150,360,l),
(150,0,l)
);
}
);
};
layerId = m006;
shapes = (
{
closed = 1;
nodes = (
(347,0,l),
(347,360,l),
(503,360,l),
(503,520,l),
(347,520,l),
(347,560,ls),
(347,618,o),
(363,634,o),
(419,634,cs),
(443,634,o),
(470,631,o),
(503,624,c),
(503,778,l),
(459,786,o),
(414,790,o),
(380,790,cs),
(230,790,o),
(149,713,o),
(149,570,cs),
(149,520,l),
(23,520,l),
(23,360,l),
(149,360,l),
(149,0,l)
);
}
);
width = 526;
}
);
metricLeft = "=h*.4";
metricRight = "=|";
unicode = 102;
},
{
color = 4;
glyphname = g;
kernLeft = o;
kernRight = u;
lastChange = "2026-07-11 08:48:12 +0000";
layers = (
{
layerId = m01;
shapes = (
{
closed = 1;
nodes = (
(503,-250,o),
(595,-160,o),
(596,20,cs),
(598,520,l),
(578,520,l),
(578,376,l),
(576,376,l),
(536,474,o),
(445,530,o),
(328,530,cs),
(166,530,o),
(58,422,o),
(58,260,cs),
(58,260,ls),
(58,98,o),
(166,-10,o),
(328,-10,cs),
(445,-10,o),
(536,46,o),
(576,144,c),
(578,144,l),
(576,20,ls),
(575,-150,o),
(492,-230,o),
(318,-230,cs),
(232,-230,o),
(169,-210,o),
(110,-166,c),
(98,-182,l),
(161,-229,o),
(228,-250,o),
(318,-250,cs)
);
},
{
closed = 1;
nodes = (
(177,10,o),
(78,109,o),
(78,260,cs),
(78,260,ls),
(78,411,o),
(177,510,o),
(328,510,cs),
(479,510,o),
(578,411,o),
(578,260,c),
(578,260,l),
(578,109,o),
(479,10,o),
(328,10,cs)
);
}
);
width = 694;
},
{
associatedMasterId = m01;
attr = {
coordinates = (
200,
200
);
};
layerId = "46F1A50B-7C0C-4B23-8733-B6799256F0FB";
name = "Jun 20, 26 at 14:30";
shapes = (
{
closed = 1;
nodes = (
(505,-250,o),
(600,-158,o),
(601,25,cs),
(603,520,l),
(562,520,l),
(562,394,l),
(560,394,l),
(520,480,o),
(432,530,o),
(323,530,cs),
(162,530,o),
(55,422,o),
(55,260,cs),
(55,260,ls),
(55,98,o),
(162,-10,o),
(323,-10,cs),
(431,-10,o),
(520,38,o),
(558,116,c),
(560,116,l),
(559,25,ls),
(558,-137,o),
(480,-211,o),
(313,-211,cs),
(230,-211,o),
(170,-193,o),
(111,-151,c),
(96,-185,l),
(159,-230,o),
(225,-250,o),
(314,-250,cs)
);
},
{
closed = 1;
nodes = (
(189,29,o),
(97,120,o),
(97,260,cs),
(97,260,ls),
(97,400,o),
(189,492,o),
(329,492,cs),
(469,492,o),
(560,400,o),
(560,260,c),
(560,260,l),
(560,120,o),
(469,29,o),
(329,29,cs)
);
}
);
width = 694;
},
{
layerId = m002;
shapes = (
{
closed = 1;
nodes = (
(511,-250,o),
(615,-154,o),
(616,40,cs),
(616,520,l),
(512,520,l),
(512,448,l),
(510,448,l),
(471,498,o),
(391,530,o),
(306,530,cs),
(150,530,o),
(46,422,o),
(46,260,cs),
(46,260,ls),
(46,98,o),
(150,-10,o),
(306,-10,cs),
(391,-10,o),
(468,22,o),
(505,72,c),
(507,72,l),
(507,39,ls),
(506,-97,o),
(442,-156,o),
(296,-156,cs),
(225,-156,o),
(171,-142,o),
(114,-108,c),
(90,-194,l),
(151,-233,o),
(215,-250,o),
(303,-250,cs)
);
},
{
closed = 1;
nodes = (
(225,84,o),
(155,154,o),
(155,260,cs),
(155,260,ls),
(155,366,o),
(225,436,o),
(331,436,cs),
(437,436,o),
(507,366,o),
(507,260,c),
(507,260,l),
(507,154,o),
(437,84,o),
(331,84,cs)
);
}
);
width = 693;
},
{
layerId = m003;
shapes = (
{
closed = 1;
nodes = (
(518,-250,o),
(635,-146,o),
(635,60,cs),
(635,520,l),
(447,520,l),
(447,460,l),
(445,460,l),
(403,503,o),
(334,530,o),
(265,530,cs),
(127,530,o),
(35,416,o),
(35,260,cs),
(35,260,ls),
(35,98,o),
(127,-10,o),
(265,-10,cs),
(332,-10,o),
(393,15,o),
(435,60,c),
(437,60,l),
(437,58,l),
(437,-50,o),
(389,-94,o),
(272,-94,cs),
(213,-94,o),
(165,-83,o),
(114,-58,c),
(80,-206,l),
(133,-236,o),
(201,-250,o),
(286,-250,cs)
);
},
{
closed = 1;
nodes = (
(275,157,o),
(233,200,o),
(233,260,cs),
(233,260,ls),
(233,320,o),
(275,363,o),
(335,363,cs),
(395,363,o),
(437,320,o),
(437,260,c),
(437,260,l),
(437,200,o),
(395,157,o),
(335,157,cs)
);
}
);
width = 693;
},
{
layerId = m004;
name = "Thin F2";
shapes = (
{
closed = 1;
nodes = (
(419,-250,o),
(496,-167,o),
(496,4,cs),
(496,520,l),
(476,520,l),
(476,412,l),
(473,412,l),
(436,485,o),
(363,530,o),
(276,530,cs),
(148,530,o),
(56,433,o),
(56,300,cs),
(56,260,ls),
(56,127,o),
(148,30,o),
(276,30,cs),
(363,30,o),
(436,75,o),
(473,148,c),
(476,148,l),
(476,4,ls),
(476,-156,o),
(407,-230,o),
(261,-230,cs),
(199,-230,o),
(155,-217,o),
(108,-185,c),
(97,-202,l),
(147,-236,o),
(196,-250,o),
(261,-250,cs)
);
},
{
closed = 1;
nodes = (
(159,50,o),
(76,138,o),
(76,260,cs),
(76,300,ls),
(76,422,o),
(159,510,o),
(276,510,cs),
(374,510,o),
(453,447,o),
(476,351,c),
(476,209,l),
(453,113,o),
(374,50,o),
(276,50,cs)
);
}
);
width = 588;
},
{
associatedMasterId = m004;
attr = {
coordinates = (
200,
100
);
};
layerId = "4542052A-5F31-4362-B451-0B9720437F60";
name = "Jun 20, 26 at 14:28";
shapes = (
{
closed = 1;
nodes = (
(426,-250,o),
(507,-164,o),
(507,11,cs),
(507,520,l),
(466,520,l),
(466,431,l),
(463,431,l),
(426,492,o),
(351,530,o),
(271,530,cs),
(143,530,o),
(53,434,o),
(53,299,cs),
(53,259,ls),
(53,124,o),
(143,28,o),
(271,28,cs),
(349,28,o),
(424,64,o),
(462,127,c),
(465,127,l),
(465,11,ls),
(465,-141,o),
(399,-211,o),
(259,-211,cs),
(199,-211,o),
(155,-198,o),
(109,-167,c),
(95,-202,l),
(145,-236,o),
(195,-250,o),
(262,-250,cs)
);
},
{
closed = 1;
nodes = (
(171,67,o),
(96,146,o),
(96,259,cs),
(96,299,ls),
(96,412,o),
(171,491,o),
(280,491,cs),
(371,491,o),
(444,434,o),
(465,348,c),
(465,209,l),
(444,124,o),
(371,67,o),
(280,67,cs)
);
}
);
width = 595;
},
{
layerId = m005;
shapes = (
{
closed = 1;
nodes = (
(445,-250,o),
(540,-154,o),
(540,30,cs),
(540,520,l),
(436,520,l),
(436,448,l),
(433,448,l),
(395,499,o),
(329,530,o),
(256,530,cs),
(129,530,o),
(45,437,o),
(45,295,cs),
(45,255,ls),
(45,113,o),
(129,20,o),
(256,20,cs),
(328,20,o),
(391,50,o),
(429,102,c),
(431,102,l),
(431,30,ls),
(431,-96,o),
(375,-154,o),
(253,-154,cs),
(199,-154,o),
(156,-142,o),
(110,-114,c),
(88,-204,l),
(135,-235,o),
(192,-250,o),
(264,-250,cs)
);
},
{
closed = 1;
nodes = (
(208,116,o),
(154,170,o),
(154,255,cs),
(154,295,ls),
(154,380,o),
(208,434,o),
(292,434,cs),
(361,434,o),
(415,398,o),
(431,340,c),
(431,210,l),
(415,152,o),
(361,116,o),
(292,116,cs)
);
}
);
width = 615;
},
{
layerId = m006;
name = "Black F2";
shapes = (
{
closed = 1;
nodes = (
(472,-250,o),
(585,-141,o),
(585,56,cs),
(585,520,l),
(397,520,l),
(397,460,l),
(395,460,l),
(355,507,o),
(303,530,o),
(238,530,cs),
(110,530,o),
(35,441,o),
(35,290,cs),
(35,250,ls),
(35,99,o),
(110,10,o),
(238,10,cs),
(302,10,o),
(347,32,o),
(386,80,c),
(388,80,l),
(388,56,ls),
(388,-47,o),
(344,-94,o),
(247,-94,cs),
(200,-94,o),
(158,-83,o),
(114,-58,c),
(80,-206,l),
(124,-234,o),
(190,-250,o),
(268,-250,cs)
);
},
{
closed = 1;
nodes = (
(258,164,o),
(233,192,o),
(233,250,cs),
(233,290,ls),
(233,348,o),
(258,376,o),
(310,376,cs),
(348,376,o),
(378,358,o),
(387,330,c),
(387,210,l),
(378,182,o),
(348,164,o),
(310,164,cs)
);
}
);
width = 643;
}
);
metricLeft = "=o";
metricRight = "=|h";
unicode = 103;
},
{
glyphname = h;
kernLeft = H;
kernRight = h;
lastChange = "2026-07-10 22:32:01 +0000";
layers = (
{
layerId = m01;
shapes = (
{
closed = 1;
nodes = (
(116,0,l),
(116,306,ls),
(116,432,o),
(196,510,o),
(326,510,cs),
(450,510,o),
(516,439,o),
(516,306,cs),
(516,0,l),
(536,0,l),
(536,306,ls),
(536,450,o),
(461,530,o),
(326,530,cs),
(228,530,o),
(154,488,o),
(118,412,c),
(116,412,l),
(116,770,l),
(96,770,l),
(96,0,l)
);
}
);
width = 613;
},
{
layerId = m002;
shapes = (
{
closed = 1;
nodes = (
(186,0,l),
(186,256,ls),
(186,363,o),
(248,434,o),
(341,434,cs),
(425,434,o),
(468,384,o),
(468,286,cs),
(468,0,l),
(577,0,l),
(577,313,ls),
(577,447,o),
(498,530,o),
(369,530,cs),
(291,530,o),
(225,500,o),
(188,448,c),
(186,448,l),
(186,770,l),
(77,770,l),
(77,0,l)
);
}
);
width = 639;
},
{
layerId = m004;
name = "Thin F2";
shapes = (
{
closed = 1;
nodes = (
(112,0,l),
(112,352,l),
(139,454,o),
(207,510,o),
(304,510,cs),
(411,510,o),
(462,442,o),
(462,300,cs),
(462,0,l),
(482,0,l),
(482,300,ls),
(482,451,o),
(424,530,o),
(304,530,cs),
(218,530,o),
(151,488,o),
(114,412,c),
(112,412,l),
(112,770,l),
(92,770,l),
(92,0,l)
);
}
);
width = 556;
},
{
layerId = m005;
shapes = (
{
closed = 1;
nodes = (
(184,0,l),
(184,334,l),
(207,397,o),
(259,434,o),
(326,434,cs),
(397,434,o),
(426,392,o),
(426,290,cs),
(426,0,l),
(535,0,l),
(535,300,ls),
(535,457,o),
(480,530,o),
(363,530,cs),
(290,530,o),
(229,502,o),
(186,448,c),
(184,448,l),
(184,770,l),
(75,770,l),
(75,0,l)
);
}
);
width = 595;
},
{
layerId = m006;
name = "Black F2";
shapes = (
{
closed = 1;
nodes = (
(256,0,l),
(256,315,l),
(264,347,o),
(290,366,o),
(326,366,cs),
(368,366,o),
(390,339,o),
(390,288,cs),
(390,0,l),
(588,0,l),
(588,300,ls),
(588,454,o),
(533,530,o),
(422,530,cs),
(361,530,o),
(306,507,o),
(258,460,c),
(256,460,l),
(256,770,l),
(58,770,l),
(58,0,l)
);
}
);
width = 634;
},
{
associatedMasterId = m004;
attr = {
coordinates = (
200,
100
);
};
layerId = "DBFFBCB2-45B6-47F5-99BE-56E40808C34B";
name = "Jun 21, 26 at 16:31";
shapes = (
{
closed = 1;
nodes = (
(130,0,l),
(130,348,l),
(156,440,o),
(220,491,o),
(309,491,cs),
(407,491,o),
(453,430,o),
(453,298,cs),
(453,0,l),
(495,0,l),
(495,300,ls),
(495,453,o),
(438,530,o),
(319,530,cs),
(238,530,o),
(171,494,o),
(132,431,c),
(130,431,l),
(130,770,l),
(88,770,l),
(88,0,l)
);
}
);
width = 565;
},
{
associatedMasterId = m01;
attr = {
coordinates = (
200,
200
);
};
layerId = "466FB072-3C8F-46C9-ADE0-E318C4508BE2";
name = "Jun 21, 26 at 20:33";
shapes = (
{
closed = 1;
nodes = (
(133,0,l),
(133,294,ls),
(133,415,o),
(208,491,o),
(329,491,cs),
(443,491,o),
(503,425,o),
(503,301,cs),
(503,0,l),
(546,0,l),
(546,308,ls),
(546,449,o),
(470,530,o),
(336,530,cs),
(245,530,o),
(170,493,o),
(135,431,c),
(133,431,l),
(133,770,l),
(91,770,l),
(91,0,l)
);
}
);
width = 619;
},
{
layerId = m003;
name = "Black F2";
shapes = (
{
closed = 1;
nodes = (
(256,0,l),
(256,265,ls),
(256,325,o),
(285,358,o),
(338,358,cs),
(391,358,o),
(420,325,o),
(420,265,cs),
(420,0,l),
(618,0,l),
(618,320,ls),
(618,444,o),
(533,530,o),
(411,530,cs),
(349,530,o),
(299,508,o),
(258,460,c),
(256,460,l),
(256,770,l),
(58,770,l),
(58,0,l)
);
}
);
width = 664;
}
);
metricLeft = "=H*.96";
metricRight = "=|*.8";
unicode = 104;
},
{
glyphname = i;
kernLeft = I;
kernRight = I;
lastChange = "2026-07-10 22:32:01 +0000";
layers = (
{
layerId = m01;
shapes = (
{
closed = 1;
nodes = (
(103,630,o),
(109,630,o),
(116,630,c),
(116,677,o),
(116,723,o),
(116,770,c),
(109,770,o),
(103,770,o),
(96,770,c),
(96,723,o),
(96,677,o),
(96,630,c)
);
},
{
closed = 1;
nodes = (
(116,0,l),
(116,520,l),
(96,520,l),
(96,0,l)
);
}
);
width = 212;
},
{
layerId = m002;
shapes = (
{
closed = 1;
nodes = (
(114,630,o),
(150,630,o),
(187,630,c),
(187,677,o),
(187,723,o),
(187,770,c),
(150,770,o),
(114,770,o),
(77,770,c),
(77,723,o),
(77,677,o),
(77,630,c)
);
},
{
closed = 1;
nodes = (
(187,0,l),
(187,520,l),
(77,520,l),
(77,0,l)
);
}
);
width = 264;
},
{
layerId = m003;
shapes = (
{
closed = 1;
nodes = (
(125,590,o),
(191,590,o),
(258,590,c),
(258,650,o),
(258,710,o),
(258,770,c),
(191,770,o),
(125,770,o),
(58,770,c),
(58,710,o),
(58,650,o),
(58,590,c)
);
},
{
closed = 1;
nodes = (
(258,0,l),
(258,500,l),
(58,500,l),
(58,0,l)
);
}
);
width = 316;
},
{
layerId = m004;
shapes = (
{
closed = 1;
nodes = (
(99,630,o),
(105,630,o),
(112,630,c),
(112,677,o),
(112,723,o),
(112,770,c),
(105,770,o),
(99,770,o),
(92,770,c),
(92,723,o),
(92,677,o),
(92,630,c)
);
},
{
closed = 1;
nodes = (
(112,0,l),
(112,520,l),
(92,520,l),
(92,0,l)
);
}
);
width = 204;
},
{
layerId = m005;
shapes = (
{
closed = 1;
nodes = (
(112,630,o),
(148,630,o),
(185,630,c),
(185,677,o),
(185,723,o),
(185,770,c),
(148,770,o),
(112,770,o),
(75,770,c),
(75,723,o),
(75,677,o),
(75,630,c)
);
},
{
closed = 1;
nodes = (
(185,0,l),
(185,520,l),
(75,520,l),
(75,0,l)
);
}
);
width = 260;
},
{
layerId = m006;
shapes = (
{
closed = 1;
nodes = (
(125,590,o),
(191,590,o),
(258,590,c),
(258,650,o),
(258,710,o),
(258,770,c),
(191,770,o),
(125,770,o),
(58,770,c),
(58,710,o),
(58,650,o),
(58,590,c)
);
},
{
closed = 1;
nodes = (
(258,0,l),
(258,500,l),
(58,500,l),
(58,0,l)
);
}
);
width = 316;
},
{
associatedMasterId = m004;
attr = {
axisRules = (
{
},
{
max = 200;
min = 150;
}
);
};
layerId = "661714C3-D999-4AA4-91D1-6B61CFC1BB77";
name = "Jul 7, 26 at 20:33";
shapes = (
{
closed = 1;
nodes = (
(132,0,l),
(132,520,l),
(112,520,l),
(112,0,l)
);
},
{
closed = 1;
nodes = (
(139,682,o),
(152,694,o),
(152,711,cs),
(152,728,o),
(139,740,o),
(122,740,cs),
(105,740,o),
(92,728,o),
(92,711,cs),
(92,694,o),
(105,682,o),
(122,682,cs)
);
}
);
width = 244;
},
{
associatedMasterId = m005;
attr = {
axisRules = (
{
},
{
max = 200;
min = 150;
}
);
};
layerId = "C1FCDDE3-3D75-488D-B441-0A7F987FB719";
name = "Jul 7, 26 at 20:33";
shapes = (
{
closed = 1;
nodes = (
(205,0,l),
(205,520,l),
(95,520,l),
(95,0,l)
);
},
{
closed = 1;
nodes = (
(194,636,o),
(225,666,o),
(225,708,cs),
(225,750,o),
(194,780,o),
(150,780,cs),
(106,780,o),
(75,750,o),
(75,708,cs),
(75,666,o),
(106,636,o),
(150,636,cs)
);
}
);
width = 300;
},
{
associatedMasterId = m006;
attr = {
axisRules = (
{
},
{
max = 200;
min = 150;
}
);
};
layerId = "D99710A3-AEF3-46E4-894E-A50C41CD0823";
name = "Jul 7, 26 at 20:33";
shapes = (
{
closed = 1;
nodes = (
(278,0,l),
(278,520,l),
(78,520,l),
(78,0,l)
);
},
{
closed = 1;
nodes = (
(248,590,o),
(298,638,o),
(298,705,cs),
(298,772,o),
(248,820,o),
(178,820,cs),
(108,820,o),
(58,772,o),
(58,705,cs),
(58,638,o),
(108,590,o),
(178,590,cs)
);
}
);
width = 356;
},
{
associatedMasterId = m01;
attr = {
axisRules = (
{
},
{
max = 200;
min = 150;
}
);
};
layerId = "C216FA6B-BE15-4F18-8B30-DB370F1F64E5";
name = "Jul 7, 26 at 20:33";
shapes = (
{
closed = 1;
nodes = (
(136,0,l),
(136,520,l),
(116,520,l),
(116,0,l)
);
},
{
closed = 1;
nodes = (
(143,682,o),
(156,694,o),
(156,711,cs),
(156,728,o),
(143,740,o),
(126,740,cs),
(109,740,o),
(96,728,o),
(96,711,cs),
(96,694,o),
(109,682,o),
(126,682,cs)
);
}
);
width = 252;
},
{
associatedMasterId = m002;
attr = {
axisRules = (
{
},
{
max = 200;
min = 150;
}
);
};
layerId = "18E8E41E-39B6-43B0-9386-44F54646E8AB";
name = "Jul 7, 26 at 20:33";
shapes = (
{
closed = 1;
nodes = (
(207,0,l),
(207,520,l),
(97,520,l),
(97,0,l)
);
},
{
closed = 1;
nodes = (
(196,636,o),
(227,666,o),
(227,708,cs),
(227,750,o),
(196,780,o),
(152,780,cs),
(108,780,o),
(77,750,o),
(77,708,cs),
(77,666,o),
(108,636,o),
(152,636,cs)
);
}
);
width = 304;
},
{
associatedMasterId = m003;
attr = {
axisRules = (
{
},
{
max = 200;
min = 150;
}
);
};
layerId = "27F19156-9B76-4DF9-894E-2EF6B44FC1E7";
name = "Jul 7, 26 at 20:33";
shapes = (
{
closed = 1;
nodes = (
(278,0,l),
(278,520,l),
(78,520,l),
(78,0,l)
);
},
{
closed = 1;
nodes = (
(248,590,o),
(298,638,o),
(298,705,cs),
(298,772,o),
(248,820,o),
(178,820,cs),
(108,820,o),
(58,772,o),
(58,705,cs),
(58,638,o),
(108,590,o),
(178,590,cs)
);
}
);
width = 356;
}
);
metricLeft = "=h";
metricRight = "=|";
unicode = 105;
},
{
glyphname = j;
kernLeft = I;
kernRight = I;
lastChange = "2026-07-10 22:32:01 +0000";
layers = (
{
layerId = m01;
metricLeft = "=i-190";
shapes = (
{
closed = 1;
nodes = (
(123,630,o),
(129,630,o),
(136,630,c),
(136,677,o),
(136,723,o),
(136,770,c),
(129,770,o),
(123,770,o),
(116,770,c),
(116,723,o),
(116,677,o),
(116,630,c)
);
},
{
closed = 1;
nodes = (
(87,-232,o),
(136,-174,o),
(136,20,cs),
(136,520,l),
(116,520,l),
(116,20,ls),
(116,-164,o),
(75,-213,o),
(-94,-230,c),
(-92,-250,l)
);
}
);
width = 232;
},
{
layerId = m002;
metricLeft = "=i-170";
shapes = (
{
closed = 1;
nodes = (
(134,630,o),
(170,630,o),
(207,630,c),
(207,677,o),
(207,724,o),
(207,770,c),
(170,770,o),
(134,770,o),
(97,770,c),
(97,724,o),
(97,677,o),
(97,630,c)
);
},
{
closed = 1;
nodes = (
(147,-232,o),
(207,-172,o),
(207,30,cs),
(207,520,l),
(97,520,l),
(97,30,ls),
(97,-109,o),
(65,-141,o),
(-93,-158,c),
(-77,-250,l)
);
}
);
width = 284;
},
{
layerId = m003;
metricLeft = "=i-150";
shapes = (
{
closed = 1;
nodes = (
(145,590,o),
(211,590,o),
(278,590,c),
(278,650,o),
(278,710,o),
(278,770,c),
(211,770,o),
(145,770,o),
(78,770,c),
(78,710,o),
(78,650,o),
(78,590,c)
);
},
{
closed = 1;
nodes = (
(204,-231,o),
(278,-168,o),
(278,40,cs),
(278,520,l),
(78,520,l),
(78,40,ls),
(78,-57,o),
(57,-73,o),
(-92,-90,c),
(-62,-250,l)
);
}
);
width = 336;
},
{
layerId = m004;
metricLeft = "=i-170";
shapes = (
{
closed = 1;
nodes = (
(109,630,o),
(115,630,o),
(122,630,c),
(122,677,o),
(122,723,o),
(122,770,c),
(115,770,o),
(109,770,o),
(102,770,c),
(102,723,o),
(102,677,o),
(102,630,c)
);
},
{
closed = 1;
nodes = (
(79,-232,o),
(122,-174,o),
(122,20,cs),
(122,520,l),
(102,520,l),
(102,20,ls),
(102,-165,o),
(66,-213,o),
(-78,-230,c),
(-76,-250,l)
);
}
);
width = 214;
},
{
layerId = m005;
metricLeft = "=i-150";
shapes = (
{
closed = 1;
nodes = (
(122,630,o),
(158,630,o),
(195,630,c),
(195,677,o),
(195,724,o),
(195,770,c),
(158,770,o),
(122,770,o),
(85,770,c),
(85,724,o),
(85,677,o),
(85,630,c)
);
},
{
closed = 1;
nodes = (
(141,-232,o),
(195,-172,o),
(195,30,cs),
(195,520,l),
(85,520,l),
(85,30,ls),
(85,-109,o),
(58,-141,o),
(-75,-158,c),
(-59,-250,l)
);
}
);
width = 270;
},
{
layerId = m006;
metricLeft = "=i-130";
shapes = (
{
closed = 1;
nodes = (
(135,590,o),
(201,590,o),
(268,590,c),
(268,650,o),
(268,710,o),
(268,770,c),
(201,770,o),
(135,770,o),
(68,770,c),
(68,710,o),
(68,650,o),
(68,590,c)
);
},
{
closed = 1;
nodes = (
(220,-230,o),
(268,-152,o),
(268,40,cs),
(268,520,l),
(68,520,l),
(68,40,ls),
(68,-62,o),
(44,-74,o),
(-72,-90,c),
(-42,-250,l)
);
}
);
width = 326;
},
{
associatedMasterId = m004;
attr = {
axisRules = (
{
},
{
max = 200;
min = 150;
}
);
};
layerId = "DB37AFCF-9D9C-40EC-8C39-AF0D3A0AA066";
metricLeft = "=i-140";
name = "Jul 7, 26 at 20:51";
shapes = (
{
closed = 1;
nodes = (
(149,682,o),
(162,694,o),
(162,711,cs),
(162,728,o),
(149,740,o),
(132,740,cs),
(115,740,o),
(102,728,o),
(102,711,cs),
(102,694,o),
(115,682,o),
(132,682,cs)
);
},
{
closed = 1;
nodes = (
(95,-171,o),
(142,-84,o),
(142,84,cs),
(142,520,l),
(122,520,l),
(122,84,ls),
(122,-77,o),
(78,-158,o),
(-48,-233,c),
(-38,-250,l)
);
}
);
width = 254;
},
{
associatedMasterId = m005;
attr = {
axisRules = (
{
},
{
max = 200;
min = 150;
}
);
};
layerId = "C0902FB3-8A3E-48DD-86F8-A9BC9CF50EF6";
metricLeft = "=i-130";
name = "Jul 7, 26 at 20:51";
shapes = (
{
closed = 1;
nodes = (
(206,636,o),
(237,666,o),
(237,708,cs),
(237,750,o),
(206,780,o),
(162,780,cs),
(119,780,o),
(87,750,o),
(87,708,cs),
(87,666,o),
(119,636,o),
(162,636,cs)
);
},
{
closed = 1;
nodes = (
(167,-142,o),
(217,-40,o),
(217,154,cs),
(217,520,l),
(107,520,l),
(107,154,ls),
(107,-5,o),
(69,-81,o),
(-55,-171,c),
(18,-250,l)
);
}
);
width = 312;
},
{
associatedMasterId = m006;
attr = {
axisRules = (
{
},
{
max = 200;
min = 150;
}
);
};
layerId = "E670A10E-7995-4876-9158-718F625CF038";
metricLeft = "=i-120";
name = "Jul 7, 26 at 20:51";
shapes = (
{
closed = 1;
nodes = (
(261,590,o),
(311,638,o),
(311,705,cs),
(311,772,o),
(261,820,o),
(191,820,cs),
(121,820,o),
(71,772,o),
(71,705,cs),
(71,638,o),
(121,590,o),
(191,590,cs)
);
},
{
closed = 1;
nodes = (
(237,-114,o),
(291,4,o),
(291,224,cs),
(291,520,l),
(91,520,l),
(91,224,ls),
(91,64,o),
(59,-6,o),
(-62,-110,c),
(74,-250,l)
);
}
);
width = 369;
},
{
associatedMasterId = m01;
attr = {
axisRules = (
{
},
{
max = 200;
min = 150;
}
);
};
layerId = "A2D2A5D3-076D-4D81-8A18-C174FC06D152";
metricLeft = "=i-160";
name = "Jul 7, 26 at 20:51";
shapes = (
{
closed = 1;
nodes = (
(161,682,o),
(174,694,o),
(174,711,cs),
(174,728,o),
(161,740,o),
(144,740,cs),
(127,740,o),
(114,728,o),
(114,711,cs),
(114,694,o),
(127,682,o),
(144,682,cs)
);
},
{
closed = 1;
nodes = (
(99,-182,o),
(154,-94,o),
(154,84,cs),
(154,520,l),
(134,520,l),
(134,84,ls),
(134,-86,o),
(84,-167,o),
(-64,-232,c),
(-56,-250,l)
);
}
);
width = 270;
},
{
associatedMasterId = m002;
attr = {
axisRules = (
{
},
{
max = 200;
min = 150;
}
);
};
layerId = "2E462478-513B-4A80-9BDF-C88AE89E06C3";
metricLeft = "=i-150";
name = "Jul 7, 26 at 20:52";
shapes = (
{
closed = 1;
nodes = (
(214,636,o),
(245,666,o),
(245,708,cs),
(245,750,o),
(214,780,o),
(170,780,cs),
(127,780,o),
(95,750,o),
(95,708,cs),
(95,666,o),
(127,636,o),
(170,636,cs)
);
},
{
closed = 1;
nodes = (
(166,-148,o),
(225,-45,o),
(225,154,cs),
(225,520,l),
(115,520,l),
(115,154,ls),
(115,-10,o),
(71,-85,o),
(-73,-168,c),
(-7,-250,l)
);
}
);
width = 322;
},
{
associatedMasterId = m003;
attr = {
axisRules = (
{
},
{
max = 200;
min = 150;
}
);
};
layerId = "13259BD1-B526-4ACE-AABB-6DE50991F636";
metricLeft = "=i-140";
name = "Jul 7, 26 at 20:52";
shapes = (
{
closed = 1;
nodes = (
(268,590,o),
(318,638,o),
(318,705,cs),
(318,772,o),
(268,820,o),
(198,820,cs),
(128,820,o),
(78,772,o),
(78,705,cs),
(78,638,o),
(128,590,o),
(198,590,cs)
);
},
{
closed = 1;
nodes = (
(235,-114,o),
(298,3,o),
(298,224,cs),
(298,520,l),
(98,520,l),
(98,224,ls),
(98,66,o),
(61,-1,o),
(-82,-103,c),
(43,-250,l)
);
}
);
width = 376;
}
);
metricLeft = "=H*.7";
metricRight = "=i";
unicode = 106;
},
{
glyphname = k;
kernLeft = H;
kernRight = k;
lastChange = "2026-07-10 22:32:01 +0000";
layers = (
{
layerId = m01;
shapes = (
{
closed = 1;
nodes = (
(116,0,l),
(116,770,l),
(96,770,l),
(96,0,l)
);
},
{
closed = 1;
nodes = (
(103,219,l),
(196,284,l),
(196,284,l),
(535,520,l),
(501,520,l),
(106,245,l)
);
},
{
closed = 1;
nodes = (
(546,0,l),
(201,295,l),
(181,286,l),
(516,0,l)
);
}
);
width = 565;
},
{
layerId = m002;
shapes = (
{
closed = 1;
nodes = (
(186,0,l),
(186,770,l),
(77,770,l),
(77,0,l)
);
},
{
closed = 1;
nodes = (
(141,131,l),
(283,252,l),
(283,252,l),
(596,520,l),
(452,520,l),
(136,248,l)
);
},
{
closed = 1;
nodes = (
(607,0,l),
(286,323,l),
(183,283,l),
(471,0,l)
);
}
);
width = 622;
},
{
layerId = m003;
shapes = (
{
closed = 1;
nodes = (
(256,0,l),
(256,770,l),
(58,770,l),
(58,0,l)
);
},
{
closed = 1;
nodes = (
(165,36,l),
(372,269,l),
(372,199,l),
(656,520,l),
(421,520,l),
(189,250,l)
);
},
{
closed = 1;
nodes = (
(668,0,l),
(373,350,l),
(210,271,l),
(442,0,l)
);
}
);
width = 680;
},
{
layerId = m005;
shapes = (
{
closed = 1;
nodes = (
(184,0,l),
(184,770,l),
(75,770,l),
(75,0,l)
);
},
{
closed = 1;
nodes = (
(140,131,l),
(272,256,l),
(272,252,l),
(555,520,l),
(421,523,l),
(146,261,l)
);
},
{
closed = 1;
nodes = (
(565,0,l),
(275,323,l),
(187,277,l),
(439,0,l)
);
}
);
width = 580;
},
{
layerId = m006;
shapes = (
{
closed = 1;
nodes = (
(256,0,l),
(256,770,l),
(58,770,l),
(58,0,l)
);
},
{
closed = 1;
nodes = (
(185,56,l),
(363,289,l),
(363,199,l),
(608,520,l),
(392,520,l),
(191,250,l)
);
},
{
closed = 1;
nodes = (
(618,0,l),
(364,350,l),
(199,285,l),
(410,0,l)
);
}
);
width = 630;
},
{
layerId = m004;
name = "Thin F2";
shapes = (
{
closed = 1;
nodes = (
(112,0,l),
(112,770,l),
(92,770,l),
(92,0,l)
);
},
{
closed = 1;
nodes = (
(98,219,l),
(185,284,l),
(185,284,l),
(502,520,l),
(469,520,l),
(98,244,l)
);
},
{
closed = 1;
nodes = (
(512,0,l),
(189,295,l),
(176,280,l),
(483,0,l)
);
}
);
width = 530;
},
{
associatedMasterId = m003;
attr = {
axisRules = (
{
},
{
max = 200;
min = 150;
}
);
};
layerId = "02EAB736-54F5-431E-B3E7-0A988BD757CF";
name = "Jul 6, 26 at 16:23";
shapes = (
{
closed = 1;
nodes = (
(256,0,l),
(256,770,l),
(58,770,l),
(58,0,l)
);
},
{
closed = 1;
nodes = (
(403,199,l),
(403,199,l),
(403,199,l),
(663,520,l),
(427,520,l),
(225,253,l)
);
},
{
closed = 1;
nodes = (
(668,0,l),
(403,307,l),
(225,253,l),
(426,0,l)
);
}
);
width = 680;
},
{
associatedMasterId = m002;
attr = {
axisRules = (
{
},
{
max = 200;
min = 150;
}
);
};
background = {
shapes = (
{
closed = 1;
nodes = (
(186,0,l),
(186,770,l),
(77,770,l),
(77,0,l)
);
},
{
closed = 1;
nodes = (
(265,232,l),
(265,232,l),
(265,232,l),
(595,520,l),
(459,520,l),
(165,264,l)
);
},
{
closed = 1;
nodes = (
(607,0,l),
(265,294,l),
(166,262,l),
(468,0,l)
);
}
);
};
layerId = "CBD18C7F-FE89-4AF6-BE9D-1A4666DC9EF1";
name = "Jul 6, 26 at 16:23";
shapes = (
{
closed = 1;
nodes = (
(186,0,l),
(186,770,l),
(77,770,l),
(77,0,l)
);
},
{
closed = 1;
nodes = (
(265,232,l),
(265,232,l),
(265,232,l),
(595,520,l),
(451,520,l),
(155,263,l)
);
},
{
closed = 1;
nodes = (
(607,0,l),
(270,294,l),
(154,263,l),
(463,0,l)
);
}
);
width = 622;
},
{
associatedMasterId = m01;
attr = {
axisRules = (
{
},
{
max = 200;
min = 150;
}
);
};
layerId = "7D66DE08-5BD7-4A3A-BE20-67653E1A5821";
name = "Jul 6, 26 at 16:24";
shapes = (
{
closed = 1;
nodes = (
(116,0,l),
(116,770,l),
(96,770,l),
(96,0,l)
);
},
{
closed = 1;
nodes = (
(127,265,l),
(127,265,l),
(127,265,l),
(527,520,l),
(490,520,l),
(105,275,l)
);
},
{
closed = 1;
nodes = (
(546,0,l),
(126,281,l),
(106,270,l),
(510,0,l)
);
}
);
width = 565;
},
{
associatedMasterId = m006;
attr = {
axisRules = (
{
},
{
max = 200;
min = 150;
}
);
};
layerId = "7892EEDB-327B-4944-88EB-38AB56BAF4C5";
name = "Jul 6, 26 at 16:24";
shapes = (
{
closed = 1;
nodes = (
(256,0,l),
(256,770,l),
(58,770,l),
(58,0,l)
);
},
{
closed = 1;
nodes = (
(355,199,l),
(355,199,l),
(355,199,l),
(613,520,l),
(397,520,l),
(188,253,l)
);
},
{
closed = 1;
nodes = (
(618,0,l),
(355,307,l),
(188,253,l),
(396,0,l)
);
}
);
width = 630;
},
{
associatedMasterId = m005;
attr = {
axisRules = (
{
},
{
max = 200;
min = 150;
}
);
};
layerId = "3229758C-F18C-4755-A116-93542C7CBD48";
name = "Jul 6, 26 at 16:24";
shapes = (
{
closed = 1;
nodes = (
(184,0,l),
(184,770,l),
(75,770,l),
(75,0,l)
);
},
{
closed = 1;
nodes = (
(241,235,l),
(241,235,l),
(241,235,l),
(544,520,l),
(406,520,l),
(128,263,l)
);
},
{
closed = 1;
nodes = (
(555,0,l),
(241,293,l),
(128,263,l),
(417,0,l)
);
}
);
width = 570;
},
{
associatedMasterId = m004;
attr = {
axisRules = (
{
},
{
max = 200;
min = 150;
}
);
};
layerId = "98612CFF-5517-4541-9412-A1CC9877709E";
name = "Jul 6, 26 at 16:24";
shapes = (
{
closed = 1;
nodes = (
(112,0,l),
(112,770,l),
(92,770,l),
(92,0,l)
);
},
{
closed = 1;
nodes = (
(119,265,l),
(119,265,l),
(119,265,l),
(476,520,l),
(441,520,l),
(100,276,l)
);
},
{
closed = 1;
nodes = (
(492,0,l),
(118,281,l),
(98,271,l),
(459,0,l)
);
}
);
width = 510;
}
);
metricLeft = "=h";
metricRight = "=|*.2";
unicode = 107;
},
{
glyphname = l;
kernLeft = I;
kernRight = I;
lastChange = "2026-07-10 22:32:01 +0000";
layers = (
{
layerId = m01;
shapes = (
{
closed = 1;
nodes = (
(135,0,l),
(135,770,l),
(115,770,l),
(115,0,l)
);
}
);
width = 250;
},
{
layerId = m002;
shapes = (
{
closed = 1;
nodes = (
(202,0,l),
(202,770,l),
(92,770,l),
(92,0,l)
);
}
);
width = 294;
},
{
layerId = m003;
shapes = (
{
closed = 1;
nodes = (
(270,0,l),
(270,770,l),
(70,770,l),
(70,0,l)
);
}
);
width = 340;
},
{
layerId = m004;
shapes = (
{
closed = 1;
nodes = (
(130,0,l),
(130,770,l),
(110,770,l),
(110,0,l)
);
}
);
width = 240;
},
{
layerId = m005;
shapes = (
{
closed = 1;
nodes = (
(200,0,l),
(200,770,l),
(90,770,l),
(90,0,l)
);
}
);
width = 290;
},
{
layerId = m006;
shapes = (
{
closed = 1;
nodes = (
(270,0,l),
(270,770,l),
(70,770,l),
(70,0,l)
);
}
);
width = 340;
}
);
metricLeft = "=h*1.2";
metricRight = "=|";
unicode = 108;
},
{
glyphname = m;
kernLeft = m;
kernRight = h;
lastChange = "2026-07-10 22:32:01 +0000";
layers = (
{
layerId = m002;
shapes = (
{
closed = 1;
nodes = (
(185,0,l),
(185,256,ls),
(185,371,o),
(229,434,o),
(309,434,cs),
(382,434,o),
(423,381,o),
(423,286,cs),
(423,0,l),
(531,0,l),
(531,256,ls),
(531,371,o),
(575,434,o),
(655,434,cs),
(728,434,o),
(769,381,o),
(769,286,cs),
(769,0,l),
(877,0,l),
(877,313,ls),
(877,450,o),
(809,530,o),
(693,530,cs),
(613,530,o),
(540,492,o),
(503,432,c),
(501,432,l),
(473,497,o),
(420,530,o),
(347,530,cs),
(276,530,o),
(215,499,o),
(182,448,c),
(180,448,l),
(180,520,l),
(77,520,l),
(77,0,l)
);
}
);
width = 939;
},
{
layerId = m003;
shapes = (
{
closed = 1;
nodes = (
(255,0,l),
(255,265,ls),
(255,325,o),
(278,358,o),
(319,358,cs),
(359,358,o),
(380,326,o),
(380,265,cs),
(380,0,l),
(576,0,l),
(576,265,ls),
(576,325,o),
(599,358,o),
(640,358,cs),
(680,358,o),
(701,326,o),
(701,265,cs),
(701,0,l),
(898,0,l),
(898,320,ls),
(898,450,o),
(827,530,o),
(713,530,cs),
(645,530,o),
(572,502,o),
(530,460,c),
(529,460,l),
(496,505,o),
(445,530,o),
(388,530,cs),
(332,530,o),
(283,506,o),
(246,460,c),
(244,460,l),
(244,520,l),
(58,520,l),
(58,0,l)
);
}
);
width = 944;
},
{
layerId = m004;
name = "Thin F2";
shapes = (
{
closed = 1;
nodes = (
(112,0,l),
(112,344,l),
(136,451,o),
(198,510,o),
(286,510,cs),
(380,510,o),
(422,445,o),
(422,300,cs),
(422,0,l),
(442,0,l),
(442,344,l),
(465,451,o),
(527,510,o),
(616,510,cs),
(710,510,o),
(752,445,o),
(752,300,cs),
(752,0,l),
(772,0,l),
(772,300,ls),
(772,454,o),
(724,530,o),
(616,530,cs),
(531,530,o),
(468,481,o),
(436,393,c),
(434,393,l),
(417,485,o),
(369,530,o),
(286,530,cs),
(208,530,o),
(148,488,o),
(114,412,c),
(112,412,l),
(112,520,l),
(92,520,l),
(92,0,l)
);
}
);
width = 846;
},
{
layerId = m005;
shapes = (
{
closed = 1;
nodes = (
(183,0,l),
(183,334,l),
(203,400,o),
(245,438,o),
(299,438,cs),
(358,438,o),
(386,391,o),
(386,294,cs),
(386,0,l),
(494,0,l),
(494,334,l),
(514,400,o),
(556,438,o),
(610,438,cs),
(669,438,o),
(697,391,o),
(697,294,cs),
(697,0,l),
(805,0,l),
(805,300,ls),
(805,456,o),
(752,530,o),
(641,530,cs),
(571,530,o),
(517,501,o),
(473,440,c),
(471,440,l),
(449,500,o),
(402,530,o),
(330,530,cs),
(266,530,o),
(220,506,o),
(180,448,c),
(178,448,l),
(178,520,l),
(75,520,l),
(75,0,l)
);
}
);
width = 865;
},
{
layerId = m006;
name = "Black F2";
shapes = (
{
closed = 1;
nodes = (
(252,0,l),
(252,315,l),
(259,346,o),
(281,366,o),
(308,366,cs),
(338,366,o),
(353,341,o),
(353,288,cs),
(353,0,l),
(543,0,l),
(543,315,l),
(550,346,o),
(572,366,o),
(599,366,cs),
(629,366,o),
(644,341,o),
(644,288,cs),
(644,0,l),
(838,0,l),
(838,300,ls),
(838,455,o),
(788,530,o),
(685,530,cs),
(624,530,o),
(562,504,o),
(517,460,c),
(515,460,l),
(491,505,o),
(448,530,o),
(393,530,cs),
(338,530,o),
(285,505,o),
(244,460,c),
(242,460,l),
(242,520,l),
(58,520,l),
(58,0,l)
);
}
);
width = 884;
},
{
layerId = m01;
name = "Thin F1";
shapes = (
{
closed = 1;
nodes = (
(116,0,l),
(116,306,ls),
(116,429,o),
(189,510,o),
(300,510,cs),
(406,510,o),
(466,436,o),
(466,306,cs),
(466,0,l),
(486,0,l),
(486,306,ls),
(486,429,o),
(559,510,o),
(670,510,cs),
(776,510,o),
(836,436,o),
(836,306,cs),
(836,0,l),
(856,0,l),
(856,306,ls),
(856,446,o),
(788,530,o),
(670,530,cs),
(575,530,o),
(505,475,o),
(478,387,c),
(476,387,l),
(454,478,o),
(393,530,o),
(300,530,cs),
(215,530,o),
(149,485,o),
(118,412,c),
(116,412,l),
(116,520,l),
(96,520,l),
(96,0,l)
);
}
);
width = 933;
},
{
associatedMasterId = m01;
attr = {
coordinates = (
200,
200
);
};
layerId = "99584B94-22D3-449D-AA18-0BDC02D7093F";
name = "Jun 29, 26 at 16:22";
shapes = (
{
closed = 1;
nodes = (
(133,0,l),
(133,294,ls),
(133,415,o),
(198,491,o),
(302,491,cs),
(399,491,o),
(455,422,o),
(455,301,cs),
(455,0,l),
(497,0,l),
(497,294,ls),
(497,415,o),
(562,491,o),
(666,491,cs),
(763,491,o),
(819,422,o),
(819,301,cs),
(819,0,l),
(861,0,l),
(860,308,ls),
(861,447,o),
(791,530,o),
(670,530,cs),
(580,530,o),
(512,484,o),
(479,411,c),
(477,411,l),
(451,489,o),
(394,530,o),
(311,530,cs),
(232,530,o),
(165,493,o),
(133,431,c),
(131,431,l),
(131,520,l),
(91,520,l),
(91,0,l)
);
}
);
width = 934;
},
{
associatedMasterId = m004;
attr = {
coordinates = (
200,
100
);
};
layerId = "682119E7-B46F-47FC-B77A-23ECD4F329F8";
name = "Jul 6, 26 at 15:11";
shapes = (
{
closed = 1;
nodes = (
(130,0,l),
(130,342,l),
(150,433,o),
(208,492,o),
(280,492,cs),
(356,492,o),
(396,426,o),
(396,299,cs),
(396,0,l),
(437,0,l),
(437,342,l),
(457,433,o),
(516,492,o),
(587,492,cs),
(663,492,o),
(703,426,o),
(703,299,cs),
(703,0,l),
(745,0,l),
(745,300,ls),
(745,449,o),
(695,530,o),
(595,530,cs),
(521,530,o),
(460,488,o),
(423,415,c),
(421,415,l),
(400,489,o),
(356,530,o),
(287,530,cs),
(222,530,o),
(164,494,o),
(130,431,c),
(128,431,l),
(128,520,l),
(88,520,l),
(88,0,l)
);
}
);
width = 815;
}
);
metricLeft = "=h";
metricRight = "=|*.8";
unicode = 109;
},
{
glyphname = n;
kernLeft = m;
kernRight = h;
lastChange = "2026-07-10 22:32:01 +0000";
layers = (
{
layerId = m01;
shapes = (
{
closed = 1;
nodes = (
(116,0,l),
(116,313,ls),
(116,434,o),
(195,510,o),
(321,510,cs),
(442,510,o),
(506,439,o),
(506,306,cs),
(506,0,l),
(526,0,l),
(526,306,ls),
(526,449,o),
(454,530,o),
(321,530,cs),
(223,530,o),
(150,486,o),
(117,412,c),
(115,412,l),
(115,520,l),
(96,520,l),
(96,0,l)
);
}
);
width = 603;
},
{
layerId = m002;
shapes = (
{
closed = 1;
nodes = (
(186,0,l),
(186,256,ls),
(186,367,o),
(243,434,o),
(336,434,cs),
(416,434,o),
(458,383,o),
(458,286,cs),
(458,0,l),
(567,0,l),
(567,313,ls),
(567,447,o),
(489,530,o),
(364,530,cs),
(288,530,o),
(219,499,o),
(183,448,c),
(181,448,l),
(181,520,l),
(77,520,l),
(77,0,l)
);
}
);
width = 629;
},
{
layerId = m003;
shapes = (
{
closed = 1;
nodes = (
(256,0,l),
(256,265,ls),
(256,325,o),
(283,358,o),
(333,358,cs),
(383,358,o),
(410,325,o),
(410,265,cs),
(410,0,l),
(608,0,l),
(608,320,ls),
(608,445,o),
(526,530,o),
(406,530,cs),
(342,530,o),
(288,506,o),
(248,460,c),
(246,460,l),
(246,520,l),
(58,520,l),
(58,0,l)
);
}
);
width = 654;
},
{
layerId = m004;
name = "Thin F2";
shapes = (
{
closed = 1;
nodes = (
(112,0,l),
(112,352,l),
(137,451,o),
(207,510,o),
(298,510,cs),
(405,510,o),
(452,446,o),
(452,300,cs),
(452,0,l),
(472,0,l),
(472,300,ls),
(472,455,o),
(418,530,o),
(298,530,cs),
(216,530,o),
(150,486,o),
(114,412,c),
(112,412,l),
(112,520,l),
(92,520,l),
(92,0,l)
);
}
);
width = 546;
},
{
layerId = m005;
shapes = (
{
closed = 1;
nodes = (
(184,0,l),
(184,334,l),
(206,397,o),
(256,434,o),
(320,434,cs),
(388,434,o),
(416,392,o),
(416,290,cs),
(416,0,l),
(525,0,l),
(525,300,ls),
(525,457,o),
(472,530,o),
(358,530,cs),
(286,530,o),
(223,501,o),
(181,448,c),
(179,448,l),
(179,520,l),
(75,520,l),
(75,0,l)
);
}
);
width = 585;
},
{
layerId = m006;
name = "Black F2";
shapes = (
{
closed = 1;
nodes = (
(256,0,l),
(256,315,l),
(264,347,o),
(288,366,o),
(321,366,cs),
(360,366,o),
(380,339,o),
(380,288,cs),
(380,0,l),
(578,0,l),
(578,300,ls),
(578,454,o),
(525,530,o),
(417,530,cs),
(355,530,o),
(296,505,o),
(248,460,c),
(246,460,l),
(246,520,l),
(58,520,l),
(58,0,l)
);
}
);
width = 624;
},
{
associatedMasterId = m004;
attr = {
coordinates = (
200,
100
);
};
layerId = "DBFFBCB2-45B6-47F5-99BE-56E40808C34B";
name = "Jun 21, 26 at 16:31";
shapes = (
{
closed = 1;
nodes = (
(130,0,l),
(130,348,l),
(154,437,o),
(219,491,o),
(304,491,cs),
(401,491,o),
(443,433,o),
(443,298,cs),
(443,0,l),
(485,0,l),
(485,300,ls),
(485,456,o),
(432,530,o),
(313,530,cs),
(232,530,o),
(170,496,o),
(131,431,c),
(129,431,l),
(129,520,l),
(88,520,l),
(88,0,l)
);
}
);
width = 555;
},
{
associatedMasterId = m01;
attr = {
coordinates = (
200,
200
);
};
layerId = "81FA8989-86D4-442E-9BF5-DE0B1DCBA8C0";
name = "Jun 21, 26 at 20:34";
shapes = (
{
closed = 1;
nodes = (
(133,0,l),
(133,299,ls),
(133,417,o),
(206,491,o),
(324,491,cs),
(435,491,o),
(493,425,o),
(493,301,cs),
(493,0,l),
(536,0,l),
(536,308,ls),
(536,449,o),
(462,530,o),
(331,530,cs),
(241,530,o),
(166,492,o),
(133,431,c),
(131,431,l),
(131,520,l),
(91,520,l),
(91,0,l)
);
}
);
width = 609;
}
);
metricLeft = "=h";
metricRight = "=h";
unicode = 110;
},
{
color = 4;
glyphname = o;
kernLeft = o;
kernRight = o;
lastChange = "2026-07-11 05:46:23 +0000";
layers = (
{
layerId = m01;
shapes = (
{
closed = 1;
nodes = (
(514,-20,o),
(628,92,o),
(628,260,cs),
(628,260,ls),
(628,428,o),
(514,540,o),
(343,540,cs),
(172,540,o),
(58,428,o),
(58,260,cs),
(58,260,ls),
(58,92,o),
(172,-20,o),
(343,-20,cs)
);
},
{
closed = 1;
nodes = (
(183,0,o),
(78,103,o),
(78,260,cs),
(78,260,ls),
(78,417,o),
(183,520,o),
(343,520,cs),
(503,520,o),
(608,417,o),
(608,260,cs),
(608,260,ls),
(608,103,o),
(503,0,o),
(343,0,cs)
);
}
);
width = 686;
},
{
layerId = m002;
shapes = (
{
closed = 1;
nodes = (
(510,-20,o),
(626,92,o),
(626,260,cs),
(626,260,ls),
(626,428,o),
(510,540,o),
(336,540,cs),
(162,540,o),
(46,428,o),
(46,260,cs),
(46,260,ls),
(46,92,o),
(162,-20,o),
(336,-20,cs)
);
},
{
closed = 1;
nodes = (
(225,76,o),
(155,147,o),
(155,260,cs),
(155,260,ls),
(155,373,o),
(225,444,o),
(336,444,cs),
(447,444,o),
(517,373,o),
(517,260,cs),
(517,260,ls),
(517,147,o),
(447,76,o),
(336,76,cs)
);
}
);
width = 672;
},
{
layerId = m003;
shapes = (
{
closed = 1;
nodes = (
(507,-20,o),
(625,92,o),
(625,260,cs),
(625,260,ls),
(625,428,o),
(507,540,o),
(330,540,cs),
(153,540,o),
(35,428,o),
(35,260,cs),
(35,260,ls),
(35,92,o),
(153,-20,o),
(330,-20,cs)
);
},
{
closed = 1;
nodes = (
(265,152,o),
(227,192,o),
(227,260,cs),
(227,260,ls),
(227,328,o),
(265,368,o),
(330,368,cs),
(395,368,o),
(433,328,o),
(433,260,cs),
(433,260,ls),
(433,192,o),
(395,152,o),
(330,152,cs)
);
}
);
width = 660;
},
{
layerId = m004;
shapes = (
{
closed = 1;
nodes = (
(433,-20,o),
(526,83,o),
(526,240,cs),
(526,280,ls),
(526,437,o),
(433,540,o),
(291,540,cs),
(149,540,o),
(56,437,o),
(56,280,cs),
(56,240,ls),
(56,83,o),
(149,-20,o),
(291,-20,cs)
);
},
{
closed = 1;
nodes = (
(160,0,o),
(76,93,o),
(76,240,cs),
(76,280,ls),
(76,427,o),
(160,520,o),
(291,520,cs),
(422,520,o),
(506,427,o),
(506,280,cs),
(506,240,ls),
(506,93,o),
(422,0,o),
(291,0,cs)
);
}
);
width = 582;
},
{
layerId = m005;
shapes = (
{
closed = 1;
nodes = (
(454,-20,o),
(555,84,o),
(555,240,cs),
(555,280,ls),
(555,437,o),
(454,540,o),
(300,540,cs),
(146,540,o),
(45,437,o),
(45,280,cs),
(45,240,ls),
(45,84,o),
(146,-20,o),
(300,-20,cs)
);
},
{
closed = 1;
nodes = (
(210,76,o),
(154,139,o),
(154,240,cs),
(154,280,ls),
(154,381,o),
(210,444,o),
(300,444,cs),
(390,444,o),
(446,381,o),
(446,280,cs),
(446,240,ls),
(446,139,o),
(390,76,o),
(300,76,cs)
);
}
);
width = 600;
},
{
layerId = m006;
shapes = (
{
closed = 1;
nodes = (
(475,-20,o),
(585,84,o),
(585,240,cs),
(585,280,ls),
(585,436,o),
(475,540,o),
(310,540,cs),
(145,540,o),
(35,436,o),
(35,280,cs),
(35,240,ls),
(35,84,o),
(145,-20,o),
(310,-20,cs)
);
},
{
closed = 1;
nodes = (
(262,144,o),
(233,180,o),
(233,240,cs),
(233,280,ls),
(233,340,o),
(262,376,o),
(310,376,cs),
(358,376,o),
(387,340,o),
(387,280,cs),
(387,240,ls),
(387,180,o),
(358,144,o),
(310,144,cs)
);
}
);
width = 620;
}
);
metricLeft = "=O*.96";
metricRight = "=|";
unicode = 111;
},
{
color = 4;
glyphname = p;
kernLeft = n;
kernRight = o;
lastChange = "2026-07-11 06:29:30 +0000";
layers = (
{
layerId = m01;
shapes = (
{
closed = 1;
nodes = (
(249,530,o),
(158,474,o),
(118,376,c),
(116,376,l),
(116,520,l),
(96,520,l),
(96,-230,l),
(116,-230,l),
(116,144,l),
(118,144,l),
(158,46,o),
(249,-10,o),
(366,-10,cs),
(528,-10,o),
(636,98,o),
(636,260,c),
(636,260,l),
(636,422,o),
(528,530,o),
(366,530,cs)
);
},
{
closed = 1;
nodes = (
(517,510,o),
(616,411,o),
(616,260,c),
(616,260,l),
(616,109,o),
(517,10,o),
(366,10,cs),
(215,10,o),
(116,109,o),
(116,260,c),
(116,260,l),
(116,411,o),
(215,510,o),
(366,510,cs)
);
}
);
width = 694;
},
{
associatedMasterId = m01;
attr = {
coordinates = (
200,
200
);
};
layerId = "46F1A50B-7C0C-4B23-8733-B6799256F0FB";
name = "Jun 20, 26 at 14:30";
shapes = (
{
closed = 1;
nodes = (
(268,530,o),
(174,485,o),
(134,404,c),
(132,404,l),
(132,520,l),
(91,520,l),
(91,-230,l),
(133,-230,l),
(133,116,l),
(135,116,l),
(174,36,o),
(266,-10,o),
(371,-10,cs),
(531,-10,o),
(638,98,o),
(638,260,c),
(638,260,l),
(638,422,o),
(531,530,o),
(371,530,cs)
);
},
{
closed = 1;
nodes = (
(504,491,o),
(596,400,o),
(596,260,c),
(596,260,l),
(596,120,o),
(504,28,o),
(364,28,cs),
(225,28,o),
(133,120,o),
(133,260,c),
(133,260,l),
(133,400,o),
(225,491,o),
(364,491,cs)
);
}
);
width = 693;
},
{
layerId = m002;
shapes = (
{
closed = 1;
nodes = (
(302,530,o),
(222,498,o),
(183,448,c),
(181,448,l),
(181,520,l),
(77,520,l),
(77,-230,l),
(186,-230,l),
(186,72,l),
(188,72,l),
(225,22,o),
(302,-10,o),
(387,-10,cs),
(543,-10,o),
(647,98,o),
(647,260,c),
(647,260,l),
(647,422,o),
(543,530,o),
(387,530,cs)
);
},
{
closed = 1;
nodes = (
(468,436,o),
(538,366,o),
(538,260,c),
(538,260,l),
(538,154,o),
(468,84,o),
(362,84,cs),
(256,84,o),
(186,154,o),
(186,260,c),
(186,260,l),
(186,366,o),
(256,436,o),
(362,436,cs)
);
}
);
width = 693;
},
{
layerId = m003;
shapes = (
{
closed = 1;
nodes = (
(359,530,o),
(290,503,o),
(248,460,c),
(246,460,l),
(246,520,l),
(58,520,l),
(58,-230,l),
(256,-230,l),
(256,60,l),
(258,60,l),
(300,15,o),
(361,-10,o),
(428,-10,cs),
(566,-10,o),
(658,98,o),
(658,260,c),
(658,260,l),
(658,422,o),
(566,530,o),
(428,530,cs)
);
},
{
closed = 1;
nodes = (
(418,363,o),
(460,320,o),
(460,260,c),
(460,260,l),
(460,200,o),
(418,157,o),
(358,157,cs),
(298,157,o),
(256,200,o),
(256,260,c),
(256,260,l),
(256,320,o),
(298,363,o),
(358,363,cs)
);
}
);
width = 693;
},
{
layerId = m004;
name = "Thin F2";
shapes = (
{
closed = 1;
nodes = (
(227,530,o),
(152,483,o),
(114,412,c),
(112,412,l),
(112,520,l),
(92,520,l),
(92,-230,l),
(112,-230,l),
(112,108,l),
(114,108,l),
(152,37,o),
(227,-10,o),
(312,-10,cs),
(446,-10,o),
(532,90,o),
(532,240,cs),
(532,280,ls),
(532,430,o),
(446,530,o),
(312,530,cs)
);
},
{
closed = 1;
nodes = (
(434,510,o),
(512,420,o),
(512,280,cs),
(512,240,ls),
(512,100,o),
(434,10,o),
(312,10,cs),
(216,10,o),
(135,73,o),
(112,165,c),
(112,355,l),
(135,447,o),
(216,510,o),
(312,510,cs)
);
}
);
width = 588;
},
{
associatedMasterId = m004;
attr = {
coordinates = (
200,
100
);
};
layerId = "4542052A-5F31-4362-B451-0B9720437F60";
name = "Jun 20, 26 at 14:28";
shapes = (
{
closed = 1;
nodes = (
(240,530,o),
(170,491,o),
(131,431,c),
(129,431,l),
(129,520,l),
(88,520,l),
(88,-230,l),
(130,-230,l),
(130,89,l),
(132,89,l),
(171,28,o),
(241,-10,o),
(323,-10,cs),
(456,-10,o),
(542,89,o),
(542,240,cs),
(542,280,ls),
(542,431,o),
(456,530,o),
(323,530,cs)
);
},
{
closed = 1;
nodes = (
(428,491,o),
(499,409,o),
(499,280,cs),
(499,240,ls),
(499,111,o),
(428,29,o),
(315,29,cs),
(226,29,o),
(151,90,o),
(130,176,c),
(130,344,l),
(151,430,o),
(226,491,o),
(315,491,cs)
);
}
);
width = 596;
},
{
layerId = m005;
shapes = (
{
closed = 1;
nodes = (
(282,530,o),
(224,502,o),
(181,448,c),
(179,448,l),
(179,520,l),
(75,520,l),
(75,-230,l),
(184,-230,l),
(184,72,l),
(186,72,l),
(228,17,o),
(283,-10,o),
(354,-10,cs),
(487,-10,o),
(570,86,o),
(570,240,cs),
(570,280,ls),
(570,434,o),
(487,530,o),
(354,530,cs)
);
},
{
closed = 1;
nodes = (
(409,434,o),
(461,376,o),
(461,280,cs),
(461,240,ls),
(461,144,o),
(409,86,o),
(323,86,cs),
(256,86,o),
(200,136,o),
(184,209,c),
(184,311,l),
(200,384,o),
(256,434,o),
(323,434,cs)
);
}
);
width = 615;
},
{
layerId = m006;
name = "Black F2";
shapes = (
{
closed = 1;
nodes = (
(335,530,o),
(294,511,o),
(248,460,c),
(246,460,l),
(246,520,l),
(58,520,l),
(58,-230,l),
(256,-230,l),
(256,60,l),
(258,60,l),
(302,7,o),
(338,-10,o),
(395,-10,cs),
(528,-10,o),
(608,84,o),
(608,240,cs),
(608,280,ls),
(608,436,o),
(528,530,o),
(395,530,cs)
);
},
{
closed = 1;
nodes = (
(383,378,o),
(410,344,o),
(410,280,cs),
(410,240,ls),
(410,176,o),
(383,142,o),
(333,142,cs),
(295,142,o),
(265,162,o),
(256,193,c),
(256,327,l),
(265,358,o),
(295,378,o),
(333,378,cs)
);
}
);
width = 643;
}
);
metricLeft = "=h";
metricRight = "=o";
unicode = 112;
},
{
color = 4;
glyphname = q;
kernLeft = o;
kernRight = u;
lastChange = "2026-07-11 06:30:49 +0000";
layers = (
{
layerId = m01;
shapes = (
{
closed = 1;
nodes = (
(166,530,o),
(58,422,o),
(58,260,c),
(58,260,l),
(58,98,o),
(166,-10,o),
(328,-10,cs),
(445,-10,o),
(536,46,o),
(576,144,c),
(578,144,l),
(578,-230,l),
(598,-230,l),
(598,520,l),
(578,520,l),
(578,376,l),
(576,376,l),
(536,474,o),
(445,530,o),
(328,530,cs)
);
},
{
closed = 1;
nodes = (
(479,510,o),
(578,411,o),
(578,260,c),
(578,260,l),
(578,109,o),
(479,10,o),
(328,10,cs),
(177,10,o),
(78,109,o),
(78,260,c),
(78,260,l),
(78,411,o),
(177,510,o),
(328,510,cs)
);
}
);
width = 694;
},
{
associatedMasterId = m01;
attr = {
coordinates = (
200,
200
);
};
layerId = "46F1A50B-7C0C-4B23-8733-B6799256F0FB";
name = "Jun 20, 26 at 14:30";
shapes = (
{
closed = 1;
nodes = (
(162,530,o),
(55,422,o),
(55,260,c),
(55,260,l),
(55,98,o),
(162,-10,o),
(322,-10,cs),
(427,-10,o),
(519,36,o),
(558,116,c),
(560,116,l),
(560,-230,l),
(602,-230,l),
(602,520,l),
(561,520,l),
(561,404,l),
(559,404,l),
(519,485,o),
(425,530,o),
(322,530,cs)
);
},
{
closed = 1;
nodes = (
(468,491,o),
(560,400,o),
(560,260,c),
(560,260,l),
(560,120,o),
(468,28,o),
(329,28,cs),
(189,28,o),
(97,120,o),
(97,260,c),
(97,260,l),
(97,400,o),
(189,491,o),
(329,491,cs)
);
}
);
width = 693;
},
{
layerId = m002;
shapes = (
{
closed = 1;
nodes = (
(150,530,o),
(46,422,o),
(46,260,c),
(46,260,l),
(46,98,o),
(150,-10,o),
(306,-10,cs),
(391,-10,o),
(468,22,o),
(505,72,c),
(507,72,l),
(507,-230,l),
(616,-230,l),
(616,520,l),
(512,520,l),
(512,448,l),
(510,448,l),
(471,498,o),
(391,530,o),
(306,530,cs)
);
},
{
closed = 1;
nodes = (
(437,436,o),
(507,366,o),
(507,260,c),
(507,260,l),
(507,154,o),
(437,84,o),
(331,84,cs),
(225,84,o),
(155,154,o),
(155,260,c),
(155,260,l),
(155,366,o),
(225,436,o),
(331,436,cs)
);
}
);
width = 693;
},
{
layerId = m003;
shapes = (
{
closed = 1;
nodes = (
(127,530,o),
(35,422,o),
(35,260,c),
(35,260,l),
(35,98,o),
(127,-10,o),
(265,-10,cs),
(332,-10,o),
(393,15,o),
(435,60,c),
(437,60,l),
(437,-230,l),
(635,-230,l),
(635,520,l),
(447,520,l),
(447,460,l),
(445,460,l),
(403,503,o),
(334,530,o),
(265,530,cs)
);
},
{
closed = 1;
nodes = (
(395,363,o),
(437,320,o),
(437,260,c),
(437,260,l),
(437,200,o),
(395,157,o),
(335,157,cs),
(275,157,o),
(233,200,o),
(233,260,c),
(233,260,l),
(233,320,o),
(275,363,o),
(335,363,cs)
);
}
);
width = 693;
},
{
layerId = m004;
name = "Thin F2";
shapes = (
{
closed = 1;
nodes = (
(142,530,o),
(56,430,o),
(56,280,cs),
(56,240,ls),
(56,90,o),
(142,-10,o),
(276,-10,cs),
(361,-10,o),
(436,37,o),
(474,108,c),
(476,108,l),
(476,-230,l),
(496,-230,l),
(496,520,l),
(476,520,l),
(476,412,l),
(474,412,l),
(436,483,o),
(361,530,o),
(276,530,cs)
);
},
{
closed = 1;
nodes = (
(372,510,o),
(453,447,o),
(476,355,c),
(476,165,l),
(453,73,o),
(372,10,o),
(276,10,cs),
(154,10,o),
(76,100,o),
(76,240,cs),
(76,280,ls),
(76,420,o),
(154,510,o),
(276,510,cs)
);
}
);
width = 588;
},
{
associatedMasterId = m004;
attr = {
coordinates = (
200,
100
);
};
layerId = "4542052A-5F31-4362-B451-0B9720437F60";
name = "Jun 20, 26 at 14:28";
shapes = (
{
closed = 1;
nodes = (
(139,530,o),
(53,431,o),
(53,280,cs),
(53,240,ls),
(53,89,o),
(139,-10,o),
(272,-10,cs),
(354,-10,o),
(424,28,o),
(463,89,c),
(465,89,l),
(465,-230,l),
(507,-230,l),
(507,520,l),
(466,520,l),
(466,431,l),
(464,431,l),
(425,491,o),
(355,530,o),
(272,530,cs)
);
},
{
closed = 1;
nodes = (
(369,491,o),
(444,430,o),
(465,344,c),
(465,176,l),
(444,90,o),
(369,29,o),
(280,29,cs),
(167,29,o),
(96,111,o),
(96,240,cs),
(96,280,ls),
(96,409,o),
(167,491,o),
(280,491,cs)
);
}
);
width = 595;
},
{
layerId = m005;
shapes = (
{
closed = 1;
nodes = (
(128,530,o),
(45,434,o),
(45,280,cs),
(45,240,ls),
(45,86,o),
(128,-10,o),
(261,-10,cs),
(332,-10,o),
(387,17,o),
(429,72,c),
(431,72,l),
(431,-230,l),
(540,-230,l),
(540,520,l),
(436,520,l),
(436,448,l),
(434,448,l),
(391,502,o),
(333,530,o),
(261,530,cs)
);
},
{
closed = 1;
nodes = (
(359,434,o),
(415,384,o),
(431,311,c),
(431,209,l),
(415,136,o),
(359,86,o),
(292,86,cs),
(206,86,o),
(154,144,o),
(154,240,cs),
(154,280,ls),
(154,376,o),
(206,434,o),
(292,434,cs)
);
}
);
width = 615;
},
{
layerId = m006;
name = "Black F2";
shapes = (
{
closed = 1;
nodes = (
(115,530,o),
(35,436,o),
(35,280,cs),
(35,240,ls),
(35,84,o),
(115,-10,o),
(248,-10,cs),
(305,-10,o),
(341,7,o),
(385,60,c),
(387,60,l),
(387,-230,l),
(585,-230,l),
(585,520,l),
(397,520,l),
(397,460,l),
(395,460,l),
(349,511,o),
(308,530,o),
(248,530,cs)
);
},
{
closed = 1;
nodes = (
(348,378,o),
(378,358,o),
(387,327,c),
(387,193,l),
(378,162,o),
(348,142,o),
(310,142,cs),
(260,142,o),
(233,176,o),
(233,240,cs),
(233,280,ls),
(233,344,o),
(260,378,o),
(310,378,cs)
);
}
);
width = 643;
}
);
metricLeft = "=o";
metricRight = "=|h";
unicode = 113;
},
{
glyphname = r;
kernLeft = m;
kernRight = r;
lastChange = "2026-07-10 22:32:01 +0000";
layers = (
{
layerId = m01;
shapes = (
{
closed = 1;
nodes = (
(116,0,l),
(116,187,ls),
(116,400,o),
(232,510,o),
(456,510,c),
(456,530,l),
(277,530,o),
(162,461,o),
(118,328,c),
(116,328,l),
(116,520,l),
(96,520,l),
(96,0,l)
);
}
);
width = 476;
},
{
layerId = m002;
shapes = (
{
closed = 1;
nodes = (
(186,0,l),
(186,194,ls),
(186,359,o),
(278,435,o),
(477,435,c),
(477,530,l),
(341,530,o),
(237,487,o),
(183,409,c),
(181,409,l),
(181,520,l),
(77,520,l),
(77,0,l)
);
}
);
width = 493;
},
{
layerId = m003;
shapes = (
{
closed = 1;
nodes = (
(256,0,l),
(256,200,ls),
(256,316,o),
(322,360,o),
(498,360,c),
(498,530,l),
(404,530,o),
(312,493,o),
(248,430,c),
(246,430,l),
(246,520,l),
(58,520,l),
(58,0,l)
);
}
);
width = 510;
},
{
layerId = m004;
shapes = (
{
closed = 1;
nodes = (
(112,0,l),
(112,293,l),
(138,436,o),
(227,510,o),
(372,510,c),
(372,530,l),
(244,530,o),
(156,475,o),
(114,370,c),
(112,370,l),
(112,520,l),
(92,520,l),
(92,0,l)
);
}
);
width = 391;
},
{
layerId = m005;
shapes = (
{
closed = 1;
nodes = (
(184,0,l),
(184,298,l),
(209,391,o),
(283,435,o),
(415,435,c),
(415,530,l),
(314,530,o),
(231,494,o),
(181,428,c),
(179,428,l),
(179,520,l),
(75,520,l),
(75,0,l)
);
}
);
width = 431;
},
{
layerId = m006;
shapes = (
{
closed = 1;
nodes = (
(256,0,l),
(256,265,l),
(280,334,o),
(335,360,o),
(458,360,c),
(458,530,l),
(378,530,o),
(306,499,o),
(248,440,c),
(246,440,l),
(246,520,l),
(58,520,l),
(58,0,l)
);
}
);
width = 470;
},
{
associatedMasterId = m004;
attr = {
coordinates = (
200,
100
);
};
layerId = "B84F732E-EFF5-45B8-A523-5511923AEA33";
name = "Jul 4, 26 at 16:53";
shapes = (
{
closed = 1;
nodes = (
(130,0,l),
(130,294,l),
(156,425,o),
(241,491,o),
(383,491,c),
(383,530,l),
(263,530,o),
(175,485,o),
(131,401,c),
(129,401,l),
(129,520,l),
(88,520,l),
(88,0,l)
);
}
);
width = 401;
},
{
associatedMasterId = m01;
attr = {
coordinates = (
200,
200
);
};
layerId = "754E0805-38BC-423B-B5CC-BF79164602CD";
name = "Jul 4, 26 at 16:53";
shapes = (
{
closed = 1;
nodes = (
(133,0,l),
(133,189,ls),
(133,390,o),
(243,491,o),
(461,491,c),
(461,530,l),
(293,530,o),
(180,474,o),
(134,368,c),
(132,368,l),
(132,520,l),
(91,520,l),
(91,0,l)
);
}
);
width = 480;
}
);
metricLeft = "=h";
metricRight = "=H*.2";
unicode = 114;
},
{
glyphname = s;
kernLeft = s;
kernRight = s;
lastChange = "2026-07-10 22:32:01 +0000";
layers = (
{
layerId = m01;
shapes = (
{
closed = 1;
nodes = (
(363,-20,o),
(438,35,o),
(438,127,cs),
(438,333,o),
(68,234,o),
(68,403,cs),
(68,475,o),
(130,520,o),
(241,520,cs),
(305,520,o),
(372,505,o),
(411,482,c),
(421,499,l),
(379,524,o),
(308,540,o),
(241,540,cs),
(121,540,o),
(48,488,o),
(48,403,cs),
(48,214,o),
(418,313,o),
(418,127,cs),
(418,48,o),
(353,0,o),
(238,0,cs),
(174,0,o),
(106,15,o),
(59,42,c),
(49,25,l),
(100,-4,o),
(171,-20,o),
(238,-20,cs)
);
}
);
width = 486;
},
{
layerId = m002;
shapes = (
{
closed = 1;
nodes = (
(395,-20,o),
(479,39,o),
(479,139,cs),
(479,334,o),
(149,282,o),
(149,388,cs),
(149,425,o),
(189,446,o),
(261,446,cs),
(318,446,o),
(381,433,o),
(441,408,c),
(461,500,l),
(402,527,o),
(336,540,o),
(264,540,cs),
(120,540,o),
(39,486,o),
(39,390,cs),
(39,196,o),
(367,251,o),
(367,140,cs),
(367,96,o),
(332,74,o),
(255,74,cs),
(192,74,o),
(123,89,o),
(61,115,c),
(41,24,l),
(101,-4,o),
(178,-20,o),
(252,-20,cs)
);
}
);
width = 518;
},
{
layerId = m004;
shapes = (
{
closed = 1;
nodes = (
(337,-20,o),
(406,35,o),
(406,127,cs),
(406,333,o),
(66,234,o),
(66,403,cs),
(66,475,o),
(124,520,o),
(224,520,cs),
(282,520,o),
(346,505,o),
(380,482,c),
(391,499,l),
(354,524,o),
(285,540,o),
(224,540,cs),
(114,540,o),
(46,488,o),
(46,403,cs),
(46,216,o),
(386,312,o),
(386,127,cs),
(386,47,o),
(327,0,o),
(221,0,cs),
(161,0,o),
(102,15,o),
(58,42,c),
(47,25,l),
(94,-4,o),
(158,-20,o),
(221,-20,cs)
);
}
);
width = 452;
},
{
layerId = m005;
shapes = (
{
closed = 1;
nodes = (
(370,-20,o),
(448,38,o),
(448,139,cs),
(448,339,o),
(149,281,o),
(149,392,cs),
(149,428,o),
(183,446,o),
(251,446,cs),
(307,446,o),
(356,434,o),
(409,410,c),
(431,500,l),
(377,526,o),
(315,540,o),
(247,540,cs),
(113,540,o),
(38,486,o),
(38,390,cs),
(38,196,o),
(337,251,o),
(337,135,cs),
(337,95,o),
(300,74,o),
(229,74,cs),
(171,74,o),
(112,88,o),
(62,114,c),
(40,24,l),
(91,-4,o),
(165,-20,o),
(236,-20,cs)
);
}
);
width = 486;
},
{
layerId = m006;
shapes = (
{
closed = 1;
nodes = (
(403,-20,o),
(489,41,o),
(489,149,cs),
(489,338,o),
(231,303,o),
(231,370,cs),
(231,386,o),
(245,392,o),
(280,392,cs),
(324,392,o),
(374,381,o),
(444,356,c),
(472,501,l),
(400,529,o),
(342,540,o),
(270,540,cs),
(113,540,o),
(29,483,o),
(29,376,cs),
(29,186,o),
(287,214,o),
(287,152,cs),
(287,135,o),
(270,128,o),
(232,128,cs),
(184,128,o),
(130,140,o),
(60,166,c),
(32,21,l),
(92,-4,o),
(174,-20,o),
(251,-20,cs)
);
}
);
width = 518;
},
{
layerId = m003;
name = "Black F2";
shapes = (
{
closed = 1;
nodes = (
(427,-20,o),
(519,41,o),
(519,149,cs),
(519,339,o),
(229,304,o),
(229,371,cs),
(229,386,o),
(244,392,o),
(281,392,cs),
(333,392,o),
(393,381,o),
(471,356,c),
(501,501,l),
(425,529,o),
(363,540,o),
(287,540,cs),
(119,540,o),
(29,483,o),
(29,376,cs),
(29,185,o),
(316,213,o),
(316,151,cs),
(316,133,o),
(307,128,o),
(271,128,cs),
(211,128,o),
(136,142,o),
(63,166,c),
(33,21,l),
(97,-4,o),
(184,-20,o),
(266,-20,cs)
);
}
);
width = 548;
}
);
metricLeft = "=h*.5";
metricRight = "=|";
unicode = 115;
},
{
glyphname = t;
kernLeft = f;
kernRight = c;
lastChange = "2026-07-10 22:32:01 +0000";
layers = (
{
layerId = m01;
shapes = (
{
closed = 1;
nodes = (
(357,-10,o),
(389,-7,o),
(418,3,c),
(418,25,l),
(390,15,o),
(358,10,o),
(322,10,cs),
(224,10,o),
(189,47,o),
(189,150,cs),
(189,500,l),
(428,500,l),
(428,520,l),
(189,520,l),
(189,690,l),
(169,690,l),
(169,520,l),
(38,520,l),
(38,500,l),
(169,500,l),
(169,150,ls),
(169,36,o),
(213,-10,o),
(322,-10,cs)
);
}
);
width = 521;
},
{
layerId = m002;
shapes = (
{
closed = 1;
nodes = (
(363,-10,o),
(401,-5,o),
(441,6,c),
(441,96,l),
(412,86,o),
(376,81,o),
(344,81,cs),
(274,81,o),
(252,105,o),
(252,181,cs),
(252,430,l),
(451,430,l),
(451,520,l),
(252,520,l),
(252,690,l),
(143,690,l),
(143,520,l),
(31,520,l),
(31,430,l),
(143,430,l),
(143,160,ls),
(143,38,o),
(194,-10,o),
(322,-10,cs)
);
}
);
width = 525;
},
{
layerId = m003;
shapes = (
{
closed = 1;
nodes = (
(369,-10,o),
(412,-4,o),
(463,10,c),
(463,166,l),
(429,157,o),
(393,151,o),
(365,151,cs),
(324,151,o),
(313,163,o),
(313,211,cs),
(313,360,l),
(473,360,l),
(473,520,l),
(313,520,l),
(313,690,l),
(115,690,l),
(115,520,l),
(23,520,l),
(23,360,l),
(115,360,l),
(115,170,ls),
(115,42,o),
(174,-10,o),
(320,-10,cs)
);
}
);
width = 529;
},
{
layerId = m004;
shapes = (
{
closed = 1;
nodes = (
(319,-10,o),
(347,-6,o),
(377,3,c),
(377,25,l),
(347,14,o),
(319,10,o),
(289,10,cs),
(198,10,o),
(167,46,o),
(167,150,cs),
(167,500,l),
(377,500,l),
(377,520,l),
(167,520,l),
(167,690,l),
(147,690,l),
(147,520,l),
(37,520,l),
(37,500,l),
(147,500,l),
(147,150,ls),
(147,36,o),
(186,-10,o),
(289,-10,cs)
);
}
);
width = 467;
},
{
layerId = m005;
shapes = (
{
closed = 1;
nodes = (
(330,-10,o),
(367,-5,o),
(410,7,c),
(410,97,l),
(386,87,o),
(353,81,o),
(320,81,cs),
(258,81,o),
(240,103,o),
(240,181,cs),
(240,430,l),
(410,430,l),
(410,520,l),
(240,520,l),
(240,690,l),
(131,690,l),
(131,520,l),
(30,520,l),
(30,430,l),
(131,430,l),
(131,160,ls),
(131,39,o),
(178,-10,o),
(293,-10,cs)
);
}
);
width = 482;
},
{
layerId = m006;
shapes = (
{
closed = 1;
nodes = (
(343,-10,o),
(395,-3,o),
(443,10,c),
(443,166,l),
(422,158,o),
(380,151,o),
(351,151,cs),
(318,151,o),
(313,159,o),
(313,211,cs),
(313,360,l),
(443,360,l),
(443,520,l),
(313,520,l),
(313,690,l),
(115,690,l),
(115,520,l),
(23,520,l),
(23,360,l),
(115,360,l),
(115,170,ls),
(115,43,o),
(168,-10,o),
(296,-10,cs)
);
}
);
width = 499;
}
);
metricLeft = "=f";
metricRight = "=c";
unicode = 116;
},
{
glyphname = u;
kernLeft = u;
kernRight = n;
lastChange = "2026-07-10 22:32:01 +0000";
layers = (
{
layerId = m01;
shapes = (
{
closed = 1;
nodes = (
(372,-10,o),
(443,34,o),
(476,108,c),
(478,108,l),
(478,0,l),
(497,0,l),
(497,520,l),
(477,520,l),
(477,209,ls),
(477,87,o),
(400,10,o),
(277,10,cs),
(160,10,o),
(97,81,o),
(97,214,cs),
(97,520,l),
(77,520,l),
(77,214,ls),
(77,71,o),
(148,-10,o),
(277,-10,cs)
);
}
);
width = 593;
},
{
layerId = m002;
shapes = (
{
closed = 1;
nodes = (
(334,-10,o),
(401,21,o),
(436,72,c),
(438,72,l),
(438,0,l),
(542,0,l),
(542,520,l),
(433,520,l),
(433,265,ls),
(433,154,o),
(378,86,o),
(289,86,cs),
(211,86,o),
(171,137,o),
(171,235,cs),
(171,520,l),
(62,520,l),
(62,207,ls),
(62,73,o),
(138,-10,o),
(260,-10,cs)
);
}
);
width = 619;
},
{
layerId = m003;
shapes = (
{
closed = 1;
nodes = (
(304,-10,o),
(357,14,o),
(396,60,c),
(398,60,l),
(398,0,l),
(586,0,l),
(586,520,l),
(388,520,l),
(388,255,ls),
(388,194,o),
(363,162,o),
(316,162,cs),
(269,162,o),
(244,194,o),
(244,255,cs),
(244,520,l),
(46,520,l),
(46,200,ls),
(46,75,o),
(125,-10,o),
(242,-10,cs)
);
}
);
width = 644;
},
{
layerId = m004;
name = "Thin F2";
shapes = (
{
closed = 1;
nodes = (
(325,-10,o),
(387,34,o),
(422,108,c),
(424,108,l),
(424,0,l),
(444,0,l),
(444,520,l),
(424,520,l),
(424,170,l),
(400,70,o),
(334,10,o),
(248,10,cs),
(141,10,o),
(94,74,o),
(94,220,cs),
(94,520,l),
(74,520,l),
(74,220,ls),
(74,65,o),
(128,-10,o),
(248,-10,cs)
);
}
);
width = 536;
},
{
layerId = m005;
shapes = (
{
closed = 1;
nodes = (
(296,-10,o),
(353,18,o),
(394,72,c),
(396,72,l),
(396,0,l),
(500,0,l),
(500,520,l),
(391,520,l),
(391,186,l),
(371,122,o),
(325,86,o),
(265,86,cs),
(198,86,o),
(169,130,o),
(169,230,cs),
(169,520,l),
(60,520,l),
(60,220,ls),
(60,64,o),
(114,-10,o),
(227,-10,cs)
);
}
);
width = 575;
},
{
layerId = m006;
name = "Black F2";
shapes = (
{
closed = 1;
nodes = (
(266,-10,o),
(320,14,o),
(366,60,c),
(368,60,l),
(368,0,l),
(556,0,l),
(556,520,l),
(358,520,l),
(358,205,l),
(351,173,o),
(334,154,o),
(303,154,cs),
(266,154,o),
(244,183,o),
(244,232,cs),
(244,520,l),
(46,520,l),
(46,220,ls),
(46,68,o),
(101,-10,o),
(207,-10,cs)
);
}
);
width = 614;
},
{
associatedMasterId = m004;
attr = {
coordinates = (
200,
100
);
};
layerId = "DBFFBCB2-45B6-47F5-99BE-56E40808C34B";
name = "Jun 21, 26 at 16:31";
shapes = (
{
closed = 1;
nodes = (
(320,-10,o),
(376,23,o),
(414,89,c),
(416,89,l),
(416,0,l),
(457,0,l),
(457,520,l),
(415,520,l),
(415,174,l),
(392,83,o),
(331,29,o),
(251,29,cs),
(154,29,o),
(112,88,o),
(112,223,cs),
(112,520,l),
(70,520,l),
(70,220,ls),
(70,65,o),
(124,-10,o),
(242,-10,cs)
);
}
);
width = 545;
},
{
associatedMasterId = m01;
attr = {
coordinates = (
200,
200
);
};
layerId = "81FA8989-86D4-442E-9BF5-DE0B1DCBA8C0";
name = "Jun 21, 26 at 20:34";
shapes = (
{
closed = 1;
nodes = (
(359,-10,o),
(433,28,o),
(466,89,c),
(468,89,l),
(468,0,l),
(508,0,l),
(508,520,l),
(466,520,l),
(466,223,ls),
(466,104,o),
(395,29,o),
(280,29,cs),
(173,29,o),
(116,95,o),
(116,219,cs),
(116,520,l),
(73,520,l),
(73,212,ls),
(73,72,o),
(146,-10,o),
(273,-10,cs)
);
}
);
width = 599;
}
);
metricLeft = "=|n";
metricRight = "=|n";
unicode = 117;
},
{
glyphname = v;
kernLeft = v;
kernRight = v;
lastChange = "2026-07-10 22:32:01 +0000";
layers = (
{
layerId = m01;
shapes = (
{
closed = 1;
nodes = (
(282,0,l),
(530,520,l),
(507,520,l),
(281,44,l),
(271,23,l),
(269,23,l),
(259,44,l),
(33,520,l),
(10,520,l),
(258,0,l)
);
}
);
width = 540;
},
{
layerId = m002;
shapes = (
{
closed = 1;
nodes = (
(368,0,l),
(578,520,l),
(462,520,l),
(315,142,l),
(294,87,l),
(292,87,l),
(271,142,l),
(124,520,l),
(8,520,l),
(218,0,l)
);
}
);
width = 586;
},
{
layerId = m003;
shapes = (
{
closed = 1;
nodes = (
(453,0,l),
(626,520,l),
(416,520,l),
(329,197,l),
(317,150,l),
(315,150,l),
(303,197,l),
(216,520,l),
(6,520,l),
(179,0,l)
);
}
);
width = 632;
},
{
layerId = m004;
shapes = (
{
closed = 1;
nodes = (
(267,0,l),
(499,520,l),
(477,520,l),
(266,46,l),
(255,20,l),
(253,20,l),
(242,46,l),
(31,520,l),
(9,520,l),
(241,0,l)
);
}
);
width = 508;
},
{
layerId = m005;
shapes = (
{
closed = 1;
nodes = (
(344,0,l),
(538,520,l),
(422,520,l),
(284,117,l),
(274,85,l),
(272,85,l),
(262,117,l),
(124,520,l),
(8,520,l),
(202,0,l)
);
}
);
width = 546;
},
{
layerId = m006;
shapes = (
{
closed = 1;
nodes = (
(428,0,l),
(576,520,l),
(366,520,l),
(301,187,l),
(292,140,l),
(290,140,l),
(281,187,l),
(216,520,l),
(6,520,l),
(154,0,l)
);
}
);
width = 582;
}
);
metricLeft = "=h*.1";
metricRight = "=|";
unicode = 118;
},
{
glyphname = w;
kernLeft = v;
kernRight = v;
lastChange = "2026-07-10 22:32:44 +0000";
layers = (
{
layerId = m01;
shapes = (
{
closed = 1;
nodes = (
(262,0,l),
(459,501,l),
(461,501,l),
(658,0,l),
(688,0,l),
(900,520,l),
(878,520,l),
(685,46,l),
(674,19,l),
(672,19,l),
(661,47,l),
(475,520,l),
(475,520,l),
(475,520,l),
(445,520,l),
(445,520,l),
(445,520,l),
(259,47,l),
(248,19,l),
(246,19,l),
(235,46,l),
(42,520,l),
(20,520,l),
(232,0,l)
);
}
);
width = 920;
},
{
layerId = m002;
shapes = (
{
closed = 1;
nodes = (
(337,0,l),
(465,415,l),
(467,415,l),
(595,0,l),
(735,0,l),
(916,520,l),
(799,520,l),
(683,159,l),
(666,105,l),
(664,105,l),
(649,154,l),
(536,520,l),
(536,520,l),
(536,520,l),
(396,520,l),
(396,520,l),
(396,520,l),
(283,154,l),
(268,105,l),
(266,105,l),
(249,159,l),
(133,520,l),
(16,520,l),
(197,0,l)
);
}
);
width = 932;
},
{
background = {
shapes = (
{
closed = 1;
nodes = (
(411,0,l),
(471,350,l),
(473,350,l),
(533,0,l),
(783,0,l),
(932,520,l),
(720,520,l),
(660,170,l),
(658,170,l),
(598,520,l),
(598,520,l),
(598,520,l),
(598,520,l),
(598,520,l),
(346,520,l),
(346,520,l),
(346,520,l),
(346,520,l),
(346,520,l),
(286,170,l),
(284,170,l),
(224,520,l),
(12,520,l),
(161,0,l)
);
}
);
};
layerId = m003;
shapes = (
{
closed = 1;
nodes = (
(411,0,l),
(471,350,l),
(473,350,l),
(533,0,l),
(783,0,l),
(932,520,l),
(720,520,l),
(668,218,l),
(660,170,l),
(658,170,l),
(650,218,l),
(598,520,l),
(598,520,l),
(598,520,l),
(346,520,l),
(346,520,l),
(346,520,l),
(294,218,l),
(286,170,l),
(284,170,l),
(276,218,l),
(224,520,l),
(12,520,l),
(161,0,l)
);
}
);
width = 944;
},
{
background = {
shapes = (
{
closed = 1;
nodes = (
(218,0,l),
(367,498,l),
(369,498,l),
(518,0,l),
(548,0,l),
(718,520,l),
(696,520,l),
(547,61,l),
(534,20,l),
(532,20,l),
(508,103,l),
(383,520,l),
(353,520,l),
(228,103,l),
(204,20,l),
(202,20,l),
(189,61,l),
(39,520,l),
(18,520,l),
(188,0,l)
);
}
);
};
layerId = m004;
name = "Thin F2";
shapes = (
{
closed = 1;
nodes = (
(218,0,l),
(367,498,l),
(369,498,l),
(518,0,l),
(548,0,l),
(718,520,l),
(696,520,l),
(547,61,l),
(534,20,l),
(532,20,l),
(508,103,l),
(383,520,l),
(383,520,l),
(383,520,l),
(353,520,l),
(353,520,l),
(353,520,l),
(228,103,l),
(204,20,l),
(202,20,l),
(189,61,l),
(39,520,l),
(18,520,l),
(188,0,l)
);
}
);
width = 736;
},
{
associatedMasterId = m004;
attr = {
axisRules = (
{
max = 400;
min = 100;
},
{
max = 200;
min = 180;
}
);
};
background = {
shapes = (
{
closed = 1;
nodes = (
(284,0,l),
(575,520,l),
(552,520,l),
(300,70,l),
(273,21,l),
(271,21,l),
(246,76,l),
(40,520,l),
(18,520,l),
(259,0,l)
);
},
{
closed = 1;
nodes = (
(577,0,l),
(818,520,l),
(796,520,l),
(590,76,l),
(565,21,l),
(563,21,l),
(536,70,l),
(284,520,l),
(261,520,l),
(552,0,l)
);
}
);
};
layerId = "FD7FF068-7DB1-4934-B33C-DDACFAB29FC6";
name = "Jul 2, 26 at 14:53";
shapes = (
{
closed = 1;
nodes = (
(284,0,l),
(418,239,l),
(552,0,l),
(577,0,l),
(818,520,l),
(796,520,l),
(590,76,l),
(565,21,l),
(563,21,l),
(536,70,l),
(430,260,l),
(575,520,l),
(552,520,l),
(418,281,l),
(284,520,l),
(261,520,l),
(406,260,l),
(300,70,l),
(273,21,l),
(271,21,l),
(246,76,l),
(40,520,l),
(18,520,l),
(259,0,l)
);
}
);
width = 836;
},
{
layerId = m005;
name = "Medium F2";
shapes = (
{
closed = 1;
nodes = (
(304,0,l),
(385,419,l),
(387,419,l),
(468,0,l),
(608,0,l),
(756,520,l),
(646,520,l),
(558,169,l),
(541,101,l),
(539,101,l),
(527,168,l),
(456,520,l),
(456,520,l),
(456,520,l),
(316,520,l),
(316,520,l),
(316,520,l),
(245,168,l),
(233,101,l),
(231,101,l),
(214,169,l),
(126,520,l),
(16,520,l),
(164,0,l)
);
}
);
width = 772;
},
{
associatedMasterId = m005;
attr = {
axisRules = (
{
max = 400;
min = 100;
},
{
max = 200;
min = 180;
}
);
};
background = {
shapes = (
{
closed = 1;
nodes = (
(376,0,l),
(656,520,l),
(542,520,l),
(330,126,l),
(308,82,l),
(306,82,l),
(287,131,l),
(130,520,l),
(16,520,l),
(226,0,l)
);
},
{
closed = 1;
nodes = (
(686,0,l),
(896,520,l),
(782,520,l),
(625,131,l),
(606,82,l),
(604,82,l),
(582,126,l),
(370,520,l),
(256,520,l),
(536,0,l)
);
}
);
};
layerId = "54609187-C85F-413B-BF59-C07B1D964E2A";
name = "Jul 2, 26 at 14:54";
shapes = (
{
closed = 1;
nodes = (
(376,0,l),
(456,169,l),
(536,0,l),
(686,0,l),
(896,520,l),
(782,520,l),
(625,131,l),
(606,82,l),
(604,82,l),
(582,126,l),
(513,254,l),
(656,520,l),
(542,520,l),
(456,340,l),
(370,520,l),
(256,520,l),
(399,254,l),
(330,126,l),
(308,82,l),
(306,82,l),
(287,131,l),
(130,520,l),
(16,520,l),
(226,0,l)
);
}
);
width = 912;
},
{
background = {
shapes = (
{
closed = 1;
nodes = (
(358,0,l),
(401,340,l),
(403,340,l),
(446,0,l),
(657,0,l),
(792,520,l),
(596,520,l),
(560,228,l),
(555,180,l),
(553,180,l),
(548,228,l),
(508,520,l),
(296,520,l),
(256,228,l),
(251,180,l),
(249,180,l),
(244,228,l),
(208,520,l),
(12,520,l),
(147,0,l)
);
}
);
};
layerId = m006;
name = "Black F2";
shapes = (
{
closed = 1;
nodes = (
(358,0,l),
(401,340,l),
(403,340,l),
(446,0,l),
(657,0,l),
(792,520,l),
(596,520,l),
(560,228,l),
(555,180,l),
(553,180,l),
(548,228,l),
(508,520,l),
(508,520,l),
(508,520,l),
(296,520,l),
(296,520,l),
(296,520,l),
(256,228,l),
(251,180,l),
(249,180,l),
(244,228,l),
(208,520,l),
(12,520,l),
(147,0,l)
);
}
);
width = 804;
},
{
associatedMasterId = m01;
attr = {
axisRules = (
{
max = 400;
min = 100;
},
{
max = 200;
min = 180;
}
);
};
background = {
shapes = (
{
closed = 1;
nodes = (
(326,0,l),
(657,520,l),
(633,520,l),
(336,53,l),
(315,19,l),
(313,19,l),
(299,46,l),
(43,520,l),
(20,520,l),
(301,0,l)
);
},
{
closed = 1;
nodes = (
(679,0,l),
(960,520,l),
(937,520,l),
(681,46,l),
(667,19,l),
(665,19,l),
(644,53,l),
(347,520,l),
(323,520,l),
(654,0,l)
);
}
);
};
layerId = "2347B018-E600-474C-9A49-E3653E8BC378";
name = "Thin F2 [100‹wg‹400, 180‹wd‹200] Jul 9, 26 at 10:39";
shapes = (
{
closed = 1;
nodes = (
(326,0,l),
(490,258,l),
(654,0,l),
(679,0,l),
(960,520,l),
(937,520,l),
(681,46,l),
(667,19,l),
(665,19,l),
(644,53,l),
(502,276,l),
(657,520,l),
(633,520,l),
(490,295,l),
(347,520,l),
(323,520,l),
(478,276,l),
(336,53,l),
(315,19,l),
(313,19,l),
(299,46,l),
(43,520,l),
(20,520,l),
(301,0,l)
);
}
);
width = 980;
},
{
associatedMasterId = m002;
attr = {
axisRules = (
{
max = 400;
min = 100;
},
{
max = 200;
min = 180;
}
);
};
background = {
shapes = (
{
closed = 1;
nodes = (
(419,0,l),
(716,520,l),
(596,520,l),
(371,105,l),
(354,72,l),
(352,72,l),
(337,105,l),
(136,520,l),
(16,520,l),
(283,0,l)
);
},
{
closed = 1;
nodes = (
(729,0,l),
(996,520,l),
(876,520,l),
(675,105,l),
(660,72,l),
(658,72,l),
(641,105,l),
(416,520,l),
(296,520,l),
(593,0,l)
);
}
);
};
layerId = "E0F8CF90-7D1F-4478-A857-B0DA8CC25B23";
name = "Medium F2 [100‹wg‹400, 180‹wd‹200] Jul 9, 26 at 10:43";
shapes = (
{
closed = 1;
nodes = (
(419,0,l),
(506,152,l),
(593,0,l),
(729,0,l),
(996,520,l),
(876,520,l),
(675,105,l),
(660,72,l),
(658,72,l),
(641,105,l),
(562,251,l),
(716,520,l),
(596,520,l),
(506,354,l),
(416,520,l),
(296,520,l),
(450,251,l),
(371,105,l),
(354,72,l),
(352,72,l),
(337,105,l),
(136,520,l),
(16,520,l),
(283,0,l)
);
}
);
width = 1012;
}
);
metricLeft = "=v*2";
metricRight = "=|";
unicode = 119;
},
{
glyphname = x;
kernLeft = x;
kernRight = x;
lastChange = "2026-07-10 22:32:01 +0000";
layers = (
{
layerId = m01;
shapes = (
{
closed = 1;
nodes = (
(50,0,l),
(278,247,l),
(280,247,l),
(508,0,l),
(539,0,l),
(293,263,l),
(534,520,l),
(503,520,l),
(280,279,l),
(278,279,l),
(55,520,l),
(24,520,l),
(265,263,l),
(19,0,l)
);
}
);
width = 558;
},
{
layerId = m002;
shapes = (
{
closed = 1;
nodes = (
(141,0,l),
(293,214,l),
(297,214,l),
(449,0,l),
(575,0,l),
(377,262,l),
(573,520,l),
(447,520,l),
(297,310,l),
(293,310,l),
(143,520,l),
(17,520,l),
(213,262,l),
(15,0,l)
);
}
);
width = 590;
},
{
layerId = m003;
shapes = (
{
closed = 1;
nodes = (
(226,0,l),
(311,180,l),
(313,180,l),
(398,0,l),
(612,0,l),
(462,260,l),
(612,520,l),
(398,520,l),
(313,340,l),
(311,340,l),
(226,520,l),
(12,520,l),
(162,260,l),
(12,0,l)
);
}
);
width = 624;
},
{
layerId = m004;
shapes = (
{
closed = 1;
nodes = (
(44,0,l),
(237,247,l),
(239,247,l),
(432,0,l),
(458,0,l),
(251,263,l),
(453,520,l),
(427,520,l),
(239,279,l),
(237,279,l),
(49,520,l),
(23,520,l),
(225,263,l),
(18,0,l)
);
}
);
width = 476;
},
{
layerId = m005;
shapes = (
{
closed = 1;
nodes = (
(139,0,l),
(259,204,l),
(261,204,l),
(381,0,l),
(505,0,l),
(334,262,l),
(503,520,l),
(379,520,l),
(261,320,l),
(259,320,l),
(141,520,l),
(17,520,l),
(186,262,l),
(15,0,l)
);
}
);
width = 520;
},
{
layerId = m006;
shapes = (
{
closed = 1;
nodes = (
(214,0,l),
(281,160,l),
(283,160,l),
(350,0,l),
(552,0,l),
(417,260,l),
(552,520,l),
(350,520,l),
(283,360,l),
(281,360,l),
(214,520,l),
(12,520,l),
(147,260,l),
(12,0,l)
);
}
);
width = 564;
}
);
metricLeft = "=|k";
metricRight = "=|";
unicode = 120;
},
{
glyphname = y;
kernLeft = v;
kernRight = v;
lastChange = "2026-07-10 22:32:46 +0000";
layers = (
{
layerId = m01;
shapes = (
{
closed = 1;
nodes = (
(147,-230,l),
(177,-168,o),
(207,-107,o),
(237,-45,c),
(510,520,l),
(487,520,l),
(271,72,l),
(253,34,l),
(251,34,l),
(239,62,l),
(32,520,l),
(10,520,l),
(245,1,l),
(242,12,l),
(203,-69,o),
(164,-149,o),
(125,-230,c)
);
}
);
width = 520;
},
{
layerId = m002;
shapes = (
{
closed = 1;
nodes = (
(245,-230,l),
(273,-165,o),
(301,-100,o),
(329,-35,c),
(568,520,l),
(452,520,l),
(312,171,l),
(286,106,l),
(284,106,l),
(259,173,l),
(124,520,l),
(8,520,l),
(248,-41,l),
(251,38,l),
(211,-51,o),
(171,-141,o),
(131,-230,c)
);
}
);
width = 576;
},
{
layerId = m003;
shapes = (
{
closed = 1;
nodes = (
(342,-230,l),
(365,-169,o),
(389,-107,o),
(412,-46,c),
(626,520,l),
(416,520,l),
(334,219,l),
(321,170,l),
(319,170,l),
(305,219,l),
(216,520,l),
(6,520,l),
(251,-84,l),
(259,64,l),
(218,-34,o),
(177,-132,o),
(136,-230,c)
);
}
);
width = 632;
},
{
layerId = m004;
shapes = (
{
closed = 1;
nodes = (
(138,-230,l),
(166,-168,o),
(194,-107,o),
(222,-45,c),
(479,520,l),
(457,520,l),
(254,73,l),
(238,37,l),
(236,37,l),
(225,63,l),
(30,520,l),
(9,520,l),
(230,1,l),
(229,18,l),
(191,-65,o),
(154,-147,o),
(116,-230,c)
);
}
);
width = 488;
},
{
layerId = m005;
shapes = (
{
closed = 1;
nodes = (
(233,-230,l),
(258,-169,o),
(282,-109,o),
(307,-48,c),
(538,520,l),
(422,520,l),
(287,147,l),
(273,107,l),
(271,107,l),
(259,142,l),
(124,520,l),
(8,520,l),
(235,-41,l),
(234,41,l),
(195,-50,o),
(157,-140,o),
(119,-230,c)
);
}
);
width = 546;
},
{
layerId = m006;
shapes = (
{
closed = 1;
nodes = (
(326,-230,l),
(348,-169,o),
(370,-107,o),
(392,-46,c),
(596,520,l),
(386,520,l),
(318,220,l),
(306,166,l),
(304,166,l),
(291,220,l),
(216,520,l),
(6,520,l),
(239,-84,l),
(237,64,l),
(198,-34,o),
(159,-132,o),
(120,-230,c)
);
}
);
width = 602;
},
{
associatedMasterId = m01;
attr = {
axisRules = (
{
},
{
max = 200;
min = 150;
}
);
};
layerId = "05AD52A5-A688-442F-8632-3D991EBE4103";
name = "Jul 2, 26 at 17:43";
shapes = (
{
closed = 1;
nodes = (
(28,-250,l),
(146,-199,o),
(201,-141,o),
(261,1,cs),
(480,520,l),
(458,520,l),
(259,45,l),
(251,26,l),
(249,26,l),
(242,42,l),
(32,520,l),
(10,520,l),
(244,-10,l),
(243,9,l),
(185,-128,o),
(133,-183,o),
(20,-232,c)
);
}
);
width = 490;
},
{
associatedMasterId = m002;
attr = {
axisRules = (
{
},
{
max = 200;
min = 150;
}
);
};
layerId = "62C5FE96-8B67-416E-8B85-F331AD4025BA";
name = "Jul 2, 26 at 17:43";
shapes = (
{
closed = 1;
nodes = (
(109,-250,l),
(222,-190,o),
(289,-116,o),
(336,1,cs),
(538,520,l),
(422,520,l),
(297,159,l),
(280,108,l),
(278,108,l),
(260,159,l),
(124,520,l),
(8,520,l),
(247,-35,l),
(241,43,l),
(204,-60,o),
(149,-120,o),
(45,-170,c)
);
}
);
width = 546;
},
{
associatedMasterId = m003;
attr = {
axisRules = (
{
},
{
max = 200;
min = 150;
}
);
};
layerId = "E71C6179-5698-4260-8380-EB811EB30242";
name = "Jul 2, 26 at 17:43";
shapes = (
{
closed = 1;
nodes = (
(189,-250,l),
(296,-182,o),
(377,-90,o),
(410,1,cs),
(596,520,l),
(386,520,l),
(319,227,l),
(309,181,l),
(307,181,l),
(295,227,l),
(216,520,l),
(6,520,l),
(249,-60,l),
(239,77,l),
(222,7,o),
(164,-55,o),
(67,-108,c)
);
}
);
width = 602;
},
{
associatedMasterId = m006;
attr = {
axisRules = (
{
},
{
max = 200;
min = 150;
}
);
};
layerId = "6BCCC6ED-199A-4AB9-A8D2-347BBFF9794E";
name = "Black F1 [100‹wd‹150] Jul 6, 26 at 12:51";
shapes = (
{
closed = 1;
nodes = (
(109,-250,l),
(319,-173,o),
(357,-129,o),
(447,138,cs),
(576,520,l),
(366,520,l),
(305,209,l),
(299,176,l),
(297,176,l),
(288,217,l),
(216,520,l),
(6,520,l),
(241,-75,l),
(225,51,l),
(210,-37,o),
(191,-53,o),
(43,-102,c)
);
}
);
width = 582;
},
{
associatedMasterId = m004;
attr = {
axisRules = (
{
},
{
max = 200;
min = 150;
}
);
};
layerId = "4298DB5E-DC43-442E-9D3F-775B5C1883BD";
name = "Thin F1 [100‹wd‹150] Jul 6, 26 at 12:55";
shapes = (
{
closed = 1;
nodes = (
(46,-250,l),
(149,-199,o),
(194,-135,o),
(285,90,cs),
(459,520,l),
(437,520,l),
(245,46,l),
(239,30,l),
(237,30,l),
(231,45,l),
(31,520,l),
(9,520,l),
(233,-10,l),
(229,9,l),
(162,-142,o),
(120,-191,o),
(37,-232,c)
);
}
);
width = 468;
},
{
associatedMasterId = m005;
attr = {
axisRules = (
{
},
{
max = 200;
min = 150;
}
);
};
background = {
shapes = (
{
closed = 0;
nodes = (
(410,-254,l),
(267,133,l),
(124,520,l)
);
},
{
closed = 0;
nodes = (
(214,-292,l),
(518,520,l)
);
},
{
closed = 0;
nodes = (
(98,-292,l),
(402,520,l),
(269,133,l),
(136,-254,l)
);
}
);
};
layerId = "86B41C46-702E-4CF9-B057-F0B2A64CCEBE";
name = "Medium F1 [100‹wd‹150] Jul 6, 26 at 13:25";
shapes = (
{
closed = 1;
nodes = (
(78,-250,l),
(234,-186,o),
(275,-133,o),
(366,114,cs),
(518,520,l),
(402,520,l),
(290,194,l),
(269,130,l),
(267,130,l),
(253,171,l),
(124,520,l),
(8,520,l),
(237,-42,l),
(229,42,l),
(184,-76,o),
(159,-103,o),
(32,-162,c)
);
}
);
width = 526;
}
);
metricLeft = "=v";
metricRight = "=|";
unicode = 121;
},
{
glyphname = z;
kernLeft = z;
kernRight = z;
lastChange = "2026-07-10 22:32:01 +0000";
layers = (
{
layerId = m01;
shapes = (
{
closed = 1;
nodes = (
(518,0,l),
(518,20,l),
(86,20,l),
(86,22,l),
(518,500,l),
(518,520,l),
(58,520,l),
(58,500,l),
(490,500,l),
(490,498,l),
(58,20,l),
(58,0,l)
);
}
);
width = 576;
},
{
layerId = m002;
shapes = (
{
closed = 1;
nodes = (
(536,0,l),
(536,88,l),
(191,88,l),
(191,90,l),
(536,432,l),
(536,520,l),
(46,520,l),
(46,432,l),
(391,432,l),
(391,430,l),
(46,88,l),
(46,0,l)
);
}
);
width = 582;
},
{
layerId = m003;
shapes = (
{
closed = 1;
nodes = (
(555,0,l),
(555,156,l),
(296,156,l),
(296,158,l),
(555,364,l),
(555,520,l),
(35,520,l),
(35,364,l),
(294,364,l),
(294,362,l),
(35,156,l),
(35,0,l)
);
}
);
width = 590;
},
{
layerId = m004;
shapes = (
{
closed = 1;
nodes = (
(425,0,l),
(425,20,l),
(81,20,l),
(81,22,l),
(425,500,l),
(425,520,l),
(55,520,l),
(55,500,l),
(399,500,l),
(399,498,l),
(55,20,l),
(55,0,l)
);
}
);
width = 480;
},
{
layerId = m005;
shapes = (
{
closed = 1;
nodes = (
(455,0,l),
(455,88,l),
(173,88,l),
(173,90,l),
(455,432,l),
(455,520,l),
(45,520,l),
(45,432,l),
(327,432,l),
(327,430,l),
(45,88,l),
(45,0,l)
);
}
);
width = 500;
},
{
layerId = m006;
shapes = (
{
closed = 1;
nodes = (
(485,0,l),
(485,156,l),
(265,156,l),
(265,158,l),
(485,364,l),
(485,520,l),
(35,520,l),
(35,364,l),
(255,364,l),
(255,362,l),
(35,156,l),
(35,0,l)
);
}
);
width = 520;
}
);
metricLeft = "=h*.6";
metricRight = "=|";
unicode = 122;
},
{
color = 10;
export = 0;
glyphname = b.001;
kernLeft = H;
kernRight = o;
lastChange = "2026-07-11 05:33:02 +0000";
layers = (
{
layerId = m01;
shapes = (
{
closed = 1;
nodes = (
(528,-10,o),
(636,98,o),
(636,260,cs),
(636,422,o),
(528,530,o),
(366,530,cs),
(249,530,o),
(158,474,o),
(118,376,c),
(116,376,l),
(116,770,l),
(96,770,l),
(96,0,l),
(116,0,l),
(116,144,l),
(118,144,l),
(158,46,o),
(249,-10,o),
(366,-10,cs)
);
},
{
closed = 1;
nodes = (
(215,10,o),
(116,109,o),
(116,260,c),
(116,260,l),
(116,411,o),
(215,510,o),
(366,510,cs),
(517,510,o),
(616,411,o),
(616,260,cs),
(616,109,o),
(517,10,o),
(366,10,cs)
);
}
);
width = 694;
},
{
associatedMasterId = m01;
attr = {
coordinates = (
200,
200
);
};
layerId = "46F1A50B-7C0C-4B23-8733-B6799256F0FB";
name = "Jun 20, 26 at 14:30";
shapes = (
{
closed = 1;
nodes = (
(531,-10,o),
(638,98,o),
(638,260,cs),
(638,422,o),
(531,530,o),
(371,530,cs),
(266,530,o),
(174,484,o),
(135,404,c),
(133,404,l),
(133,770,l),
(91,770,l),
(91,0,l),
(132,0,l),
(132,116,l),
(134,116,l),
(174,35,o),
(268,-10,o),
(371,-10,cs)
);
},
{
closed = 1;
nodes = (
(225,29,o),
(133,120,o),
(133,260,c),
(133,260,l),
(133,400,o),
(225,492,o),
(364,492,cs),
(504,492,o),
(596,400,o),
(596,260,cs),
(596,120,o),
(504,29,o),
(364,29,cs)
);
}
);
width = 693;
},
{
layerId = m002;
shapes = (
{
closed = 1;
nodes = (
(543,-10,o),
(647,98,o),
(647,260,cs),
(647,422,o),
(543,530,o),
(387,530,cs),
(302,530,o),
(225,498,o),
(188,448,c),
(186,448,l),
(186,770,l),
(77,770,l),
(77,0,l),
(181,0,l),
(181,72,l),
(183,72,l),
(222,22,o),
(302,-10,o),
(387,-10,cs)
);
},
{
closed = 1;
nodes = (
(256,84,o),
(186,154,o),
(186,260,c),
(186,260,l),
(186,366,o),
(256,436,o),
(362,436,cs),
(468,436,o),
(538,366,o),
(538,260,cs),
(538,154,o),
(468,84,o),
(362,84,cs)
);
}
);
width = 693;
},
{
layerId = m003;
shapes = (
{
closed = 1;
nodes = (
(566,-10,o),
(658,98,o),
(658,260,cs),
(658,422,o),
(566,530,o),
(428,530,cs),
(361,530,o),
(300,505,o),
(258,460,c),
(256,460,l),
(256,770,l),
(58,770,l),
(58,0,l),
(246,0,l),
(246,60,l),
(248,60,l),
(290,17,o),
(359,-10,o),
(428,-10,cs)
);
},
{
closed = 1;
nodes = (
(298,157,o),
(256,200,o),
(256,260,c),
(256,260,l),
(256,320,o),
(298,363,o),
(358,363,cs),
(418,363,o),
(460,320,o),
(460,260,cs),
(460,200,o),
(418,157,o),
(358,157,cs)
);
}
);
width = 693;
},
{
layerId = m004;
name = "Thin F2";
shapes = (
{
closed = 1;
nodes = (
(439,-10,o),
(522,97,o),
(522,260,cs),
(522,423,o),
(439,530,o),
(307,530,cs),
(223,530,o),
(151,485,o),
(114,412,c),
(112,412,l),
(112,770,l),
(92,770,l),
(92,0,l),
(112,0,l),
(112,108,l),
(114,108,l),
(151,35,o),
(223,-10,o),
(307,-10,cs)
);
},
{
closed = 1;
nodes = (
(212,10,o),
(134,73,o),
(112,168,c),
(112,352,l),
(134,447,o),
(212,510,o),
(307,510,cs),
(426,510,o),
(502,413,o),
(502,260,cs),
(502,107,o),
(426,10,o),
(307,10,cs)
);
}
);
width = 578;
},
{
layerId = m005;
shapes = (
{
closed = 1;
nodes = (
(483,-10,o),
(565,95,o),
(565,260,cs),
(565,425,o),
(483,530,o),
(353,530,cs),
(285,530,o),
(225,501,o),
(186,448,c),
(184,448,l),
(184,770,l),
(75,770,l),
(75,0,l),
(179,0,l),
(179,72,l),
(181,72,l),
(220,20,o),
(283,-10,o),
(353,-10,cs)
);
},
{
closed = 1;
nodes = (
(257,86,o),
(200,134,o),
(184,208,c),
(184,312,l),
(200,386,o),
(257,434,o),
(330,434,cs),
(412,434,o),
(456,373,o),
(456,260,cs),
(456,147,o),
(412,86,o),
(330,86,cs)
);
}
);
width = 610;
},
{
layerId = m006;
name = "Black F2";
shapes = (
{
closed = 1;
nodes = (
(527,-10,o),
(608,92,o),
(608,260,cs),
(608,428,o),
(527,530,o),
(395,530,cs),
(338,530,o),
(302,511,o),
(258,460,c),
(256,460,l),
(256,770,l),
(58,770,l),
(58,0,l),
(246,0,l),
(246,60,l),
(248,60,l),
(293,10,o),
(336,-10,o),
(395,-10,cs)
);
},
{
closed = 1;
nodes = (
(296,142,o),
(265,162,o),
(256,193,c),
(256,327,l),
(265,358,o),
(296,378,o),
(333,378,cs),
(384,378,o),
(410,339,o),
(410,260,cs),
(410,181,o),
(384,142,o),
(333,142,cs)
);
}
);
width = 643;
},
{
associatedMasterId = m004;
attr = {
coordinates = (
200,
100
);
};
layerId = "9ECECF33-0D80-4161-A09F-E5E90B007CD8";
name = "Jul 3, 26 at 20:59";
shapes = (
{
closed = 1;
nodes = (
(450,-10,o),
(533,97,o),
(533,260,cs),
(533,424,o),
(450,530,o),
(318,530,cs),
(241,530,o),
(170,494,o),
(132,431,c),
(130,431,l),
(130,770,l),
(88,770,l),
(88,0,l),
(129,0,l),
(129,89,l),
(131,89,l),
(168,28,o),
(239,-10,o),
(318,-10,cs)
);
},
{
closed = 1;
nodes = (
(223,29,o),
(150,89,o),
(130,178,c),
(130,342,l),
(150,431,o),
(223,491,o),
(313,491,cs),
(422,491,o),
(490,403,o),
(490,260,cs),
(490,117,o),
(422,29,o),
(313,29,cs)
);
}
);
width = 587;
}
);
metricLeft = "=h";
metricRight = "=o";
},
